<?xml version="1.0" encoding="utf-8" standalone="no"?>
<!DOCTYPE svg PUBLIC "-//W3C//DTD SVG 1.1//EN"
  "http://www.w3.org/Graphics/SVG/1.1/DTD/svg11.dtd">
<svg xmlns:xlink="http://www.w3.org/1999/xlink" width="432pt" height="432pt" viewBox="0 0 432 432" xmlns="http://www.w3.org/2000/svg" version="1.1">
 <metadata>
  <rdf:RDF xmlns:dc="http://purl.org/dc/elements/1.1/" xmlns:cc="http://creativecommons.org/ns#" xmlns:rdf="http://www.w3.org/1999/02/22-rdf-syntax-ns#">
   <cc:Work>
    <dc:type rdf:resource="http://purl.org/dc/dcmitype/StillImage"/>
    <dc:date>2026-06-30T19:48:33.097881</dc:date>
    <dc:format>image/svg+xml</dc:format>
    <dc:creator>
     <cc:Agent>
      <dc:title>Matplotlib v3.11.0, https://matplotlib.org/</dc:title>
     </cc:Agent>
    </dc:creator>
   </cc:Work>
  </rdf:RDF>
 </metadata>
 <defs>
  <style type="text/css">*{stroke-linejoin: round; stroke-linecap: butt}</style>
 </defs>
 <g id="figure_1">
  <g id="patch_1">
   <path d="M 0 432 
L 432 432 
L 432 0 
L 0 0 
z
" style="fill: #ffffff"/>
  </g>
  <g id="axes_1">
   <g id="patch_2">
    <path d="M 383.244 223.92 
C 383.244 202.201972 378.966022 180.695125 370.654893 160.630283 
C 362.343763 140.565442 350.161113 122.332817 334.804148 106.975852 
C 319.447183 91.618887 301.214558 79.436237 281.149717 71.125107 
C 261.084875 62.813978 239.578028 58.536 217.86 58.536 
C 196.141972 58.536 174.635125 62.813978 154.570283 71.125107 
C 134.505442 79.436237 116.272817 91.618887 100.915852 106.975852 
C 85.558887 122.332817 73.376237 140.565442 65.065107 160.630283 
C 56.753978 180.695125 52.476 202.201972 52.476 223.92 
C 52.476 245.638028 56.753978 267.144875 65.065107 287.209717 
C 73.376237 307.274558 85.558887 325.507183 100.915852 340.864148 
C 116.272817 356.221113 134.505442 368.403763 154.570283 376.714893 
C 174.635125 385.026022 196.141972 389.304 217.86 389.304 
C 239.578028 389.304 261.084875 385.026022 281.149717 376.714893 
C 301.214558 368.403763 319.447183 356.221113 334.804148 340.864148 
C 350.161113 325.507183 362.343763 307.274558 370.654893 287.209717 
C 378.966022 267.144875 383.244 245.638028 383.244 223.92 
M 217.86 223.92 
C 217.86 223.92 217.86 223.92 217.86 223.92 
C 217.86 223.92 217.86 223.92 217.86 223.92 
C 217.86 223.92 217.86 223.92 217.86 223.92 
C 217.86 223.92 217.86 223.92 217.86 223.92 
C 217.86 223.92 217.86 223.92 217.86 223.92 
C 217.86 223.92 217.86 223.92 217.86 223.92 
C 217.86 223.92 217.86 223.92 217.86 223.92 
C 217.86 223.92 217.86 223.92 217.86 223.92 
C 217.86 223.92 217.86 223.92 217.86 223.92 
C 217.86 223.92 217.86 223.92 217.86 223.92 
C 217.86 223.92 217.86 223.92 217.86 223.92 
C 217.86 223.92 217.86 223.92 217.86 223.92 
C 217.86 223.92 217.86 223.92 217.86 223.92 
C 217.86 223.92 217.86 223.92 217.86 223.92 
C 217.86 223.92 217.86 223.92 217.86 223.92 
C 217.86 223.92 217.86 223.92 217.86 223.92 
z
" style="fill: #ffffff"/>
   </g>
   <g id="matplotlib.axis_1">
    <g id="xtick_1">
     <g id="line2d_1">
      <path d="M 217.86 223.92 
L 383.244 223.92 
" clip-path="url(#p395ea4fdb4)" style="fill: none; stroke: #cccccc; stroke-linecap: round"/>
     </g>
     <g id="text_1">
      <!-- Budget -->
      <g style="fill: #262626" transform="translate(380.570227 227.051229) scale(0.121 -0.121)">
       <defs>
        <path id="ArialMT-25" d="M 469 0 
L 469 4581 
L 2188 4581 
Q 2713 4581 3030 4442 
Q 3347 4303 3526 4014 
Q 3706 3725 3706 3409 
Q 3706 3116 3547 2856 
Q 3388 2597 3066 2438 
Q 3481 2316 3704 2022 
Q 3928 1728 3928 1328 
Q 3928 1006 3792 729 
Q 3656 453 3456 303 
Q 3256 153 2954 76 
Q 2653 0 2216 0 
L 469 0 
z
M 1075 2656 
L 2066 2656 
Q 2469 2656 2644 2709 
Q 2875 2778 2992 2937 
Q 3109 3097 3109 3338 
Q 3109 3566 3000 3739 
Q 2891 3913 2687 3977 
Q 2484 4041 1991 4041 
L 1075 4041 
L 1075 2656 
z
M 1075 541 
L 2216 541 
Q 2509 541 2628 563 
Q 2838 600 2978 687 
Q 3119 775 3209 942 
Q 3300 1109 3300 1328 
Q 3300 1584 3169 1773 
Q 3038 1963 2805 2039 
Q 2572 2116 2134 2116 
L 1075 2116 
L 1075 541 
z
" transform="scale(0.015625)"/>
        <path id="ArialMT-58" d="M 2597 0 
L 2597 488 
Q 2209 -75 1544 -75 
Q 1250 -75 995 37 
Q 741 150 617 320 
Q 494 491 444 738 
Q 409 903 409 1263 
L 409 3319 
L 972 3319 
L 972 1478 
Q 972 1038 1006 884 
Q 1059 663 1231 536 
Q 1403 409 1656 409 
Q 1909 409 2131 539 
Q 2353 669 2445 892 
Q 2538 1116 2538 1541 
L 2538 3319 
L 3100 3319 
L 3100 0 
L 2597 0 
z
" transform="scale(0.015625)"/>
        <path id="ArialMT-47" d="M 2575 0 
L 2575 419 
Q 2259 -75 1647 -75 
Q 1250 -75 917 144 
Q 584 363 401 755 
Q 219 1147 219 1656 
Q 219 2153 384 2558 
Q 550 2963 881 3178 
Q 1213 3394 1622 3394 
Q 1922 3394 2156 3267 
Q 2391 3141 2538 2938 
L 2538 4581 
L 3097 4581 
L 3097 0 
L 2575 0 
z
M 797 1656 
Q 797 1019 1065 703 
Q 1334 388 1700 388 
Q 2069 388 2326 689 
Q 2584 991 2584 1609 
Q 2584 2291 2321 2609 
Q 2059 2928 1675 2928 
Q 1300 2928 1048 2622 
Q 797 2316 797 1656 
z
" transform="scale(0.015625)"/>
        <path id="ArialMT-4a" d="M 319 -275 
L 866 -356 
Q 900 -609 1056 -725 
Q 1266 -881 1628 -881 
Q 2019 -881 2231 -725 
Q 2444 -569 2519 -288 
Q 2563 -116 2559 434 
Q 2191 0 1641 0 
Q 956 0 581 494 
Q 206 988 206 1678 
Q 206 2153 378 2554 
Q 550 2956 876 3175 
Q 1203 3394 1644 3394 
Q 2231 3394 2613 2919 
L 2613 3319 
L 3131 3319 
L 3131 450 
Q 3131 -325 2973 -648 
Q 2816 -972 2473 -1159 
Q 2131 -1347 1631 -1347 
Q 1038 -1347 672 -1080 
Q 306 -813 319 -275 
z
M 784 1719 
Q 784 1066 1043 766 
Q 1303 466 1694 466 
Q 2081 466 2343 764 
Q 2606 1063 2606 1700 
Q 2606 2309 2336 2618 
Q 2066 2928 1684 2928 
Q 1309 2928 1046 2623 
Q 784 2319 784 1719 
z
" transform="scale(0.015625)"/>
        <path id="ArialMT-48" d="M 2694 1069 
L 3275 997 
Q 3138 488 2766 206 
Q 2394 -75 1816 -75 
Q 1088 -75 661 373 
Q 234 822 234 1631 
Q 234 2469 665 2931 
Q 1097 3394 1784 3394 
Q 2450 3394 2872 2941 
Q 3294 2488 3294 1666 
Q 3294 1616 3291 1516 
L 816 1516 
Q 847 969 1125 678 
Q 1403 388 1819 388 
Q 2128 388 2347 550 
Q 2566 713 2694 1069 
z
M 847 1978 
L 2700 1978 
Q 2663 2397 2488 2606 
Q 2219 2931 1791 2931 
Q 1403 2931 1139 2672 
Q 875 2413 847 1978 
z
" transform="scale(0.015625)"/>
        <path id="ArialMT-57" d="M 1650 503 
L 1731 6 
Q 1494 -44 1306 -44 
Q 1000 -44 831 53 
Q 663 150 594 308 
Q 525 466 525 972 
L 525 2881 
L 113 2881 
L 113 3319 
L 525 3319 
L 525 4141 
L 1084 4478 
L 1084 3319 
L 1650 3319 
L 1650 2881 
L 1084 2881 
L 1084 941 
Q 1084 700 1114 631 
Q 1144 563 1211 522 
Q 1278 481 1403 481 
Q 1497 481 1650 503 
z
" transform="scale(0.015625)"/>
       </defs>
       <use xlink:href="#ArialMT-25"/>
       <use xlink:href="#ArialMT-58" transform="translate(66.703125 0)"/>
       <use xlink:href="#ArialMT-47" transform="translate(122.3125 0)"/>
       <use xlink:href="#ArialMT-4a" transform="translate(177.921875 0)"/>
       <use xlink:href="#ArialMT-48" transform="translate(233.53125 0)"/>
       <use xlink:href="#ArialMT-57" transform="translate(289.140625 0)"/>
      </g>
     </g>
    </g>
    <g id="xtick_2">
     <g id="line2d_2">
      <path d="M 217.86 223.92 
L 217.86 58.536 
" clip-path="url(#p395ea4fdb4)" style="fill: none; stroke: #cccccc; stroke-linecap: round"/>
     </g>
     <g id="text_2">
      <!-- Grid -->
      <g style="fill: #262626" transform="translate(206.431172 45.167348) scale(0.121 -0.121)">
       <defs>
        <path id="ArialMT-2a" d="M 2638 1797 
L 2638 2334 
L 4578 2338 
L 4578 638 
Q 4131 281 3656 101 
Q 3181 -78 2681 -78 
Q 2006 -78 1454 211 
Q 903 500 622 1047 
Q 341 1594 341 2269 
Q 341 2938 620 3517 
Q 900 4097 1425 4378 
Q 1950 4659 2634 4659 
Q 3131 4659 3532 4498 
Q 3934 4338 4162 4050 
Q 4391 3763 4509 3300 
L 3963 3150 
Q 3859 3500 3706 3700 
Q 3553 3900 3268 4020 
Q 2984 4141 2638 4141 
Q 2222 4141 1919 4014 
Q 1616 3888 1430 3681 
Q 1244 3475 1141 3228 
Q 966 2803 966 2306 
Q 966 1694 1177 1281 
Q 1388 869 1791 669 
Q 2194 469 2647 469 
Q 3041 469 3416 620 
Q 3791 772 3984 944 
L 3984 1797 
L 2638 1797 
z
" transform="scale(0.015625)"/>
        <path id="ArialMT-55" d="M 416 0 
L 416 3319 
L 922 3319 
L 922 2816 
Q 1116 3169 1280 3281 
Q 1444 3394 1641 3394 
Q 1925 3394 2219 3213 
L 2025 2691 
Q 1819 2813 1613 2813 
Q 1428 2813 1281 2702 
Q 1134 2591 1072 2394 
Q 978 2094 978 1738 
L 978 0 
L 416 0 
z
" transform="scale(0.015625)"/>
        <path id="ArialMT-4c" d="M 425 3934 
L 425 4581 
L 988 4581 
L 988 3934 
L 425 3934 
z
M 425 0 
L 425 3319 
L 988 3319 
L 988 0 
L 425 0 
z
" transform="scale(0.015625)"/>
       </defs>
       <use xlink:href="#ArialMT-2a"/>
       <use xlink:href="#ArialMT-55" transform="translate(77.78125 0)"/>
       <use xlink:href="#ArialMT-4c" transform="translate(111.078125 0)"/>
       <use xlink:href="#ArialMT-47" transform="translate(133.296875 0)"/>
      </g>
     </g>
    </g>
    <g id="xtick_3">
     <g id="line2d_3">
      <path d="M 217.86 223.92 
L 52.476 223.92 
" clip-path="url(#p395ea4fdb4)" style="fill: none; stroke: #cccccc; stroke-linecap: round"/>
     </g>
     <g id="text_3">
      <!-- Demand -->
      <g style="fill: #262626" transform="translate(13.109836 227.051348) scale(0.121 -0.121)">
       <defs>
        <path id="ArialMT-27" d="M 494 0 
L 494 4581 
L 2072 4581 
Q 2606 4581 2888 4516 
Q 3281 4425 3559 4188 
Q 3922 3881 4101 3404 
Q 4281 2928 4281 2316 
Q 4281 1794 4159 1391 
Q 4038 988 3847 723 
Q 3656 459 3429 307 
Q 3203 156 2883 78 
Q 2563 0 2147 0 
L 494 0 
z
M 1100 541 
L 2078 541 
Q 2531 541 2789 625 
Q 3047 709 3200 863 
Q 3416 1078 3536 1442 
Q 3656 1806 3656 2325 
Q 3656 3044 3420 3430 
Q 3184 3816 2847 3947 
Q 2603 4041 2063 4041 
L 1100 4041 
L 1100 541 
z
" transform="scale(0.015625)"/>
        <path id="ArialMT-50" d="M 422 0 
L 422 3319 
L 925 3319 
L 925 2853 
Q 1081 3097 1340 3245 
Q 1600 3394 1931 3394 
Q 2300 3394 2536 3241 
Q 2772 3088 2869 2813 
Q 3263 3394 3894 3394 
Q 4388 3394 4653 3120 
Q 4919 2847 4919 2278 
L 4919 0 
L 4359 0 
L 4359 2091 
Q 4359 2428 4304 2576 
Q 4250 2725 4106 2815 
Q 3963 2906 3769 2906 
Q 3419 2906 3187 2673 
Q 2956 2441 2956 1928 
L 2956 0 
L 2394 0 
L 2394 2156 
Q 2394 2531 2256 2718 
Q 2119 2906 1806 2906 
Q 1569 2906 1367 2781 
Q 1166 2656 1075 2415 
Q 984 2175 984 1722 
L 984 0 
L 422 0 
z
" transform="scale(0.015625)"/>
        <path id="ArialMT-44" d="M 2588 409 
Q 2275 144 1986 34 
Q 1697 -75 1366 -75 
Q 819 -75 525 192 
Q 231 459 231 875 
Q 231 1119 342 1320 
Q 453 1522 633 1644 
Q 813 1766 1038 1828 
Q 1203 1872 1538 1913 
Q 2219 1994 2541 2106 
Q 2544 2222 2544 2253 
Q 2544 2597 2384 2738 
Q 2169 2928 1744 2928 
Q 1347 2928 1158 2789 
Q 969 2650 878 2297 
L 328 2372 
Q 403 2725 575 2942 
Q 747 3159 1072 3276 
Q 1397 3394 1825 3394 
Q 2250 3394 2515 3294 
Q 2781 3194 2906 3042 
Q 3031 2891 3081 2659 
Q 3109 2516 3109 2141 
L 3109 1391 
Q 3109 606 3145 398 
Q 3181 191 3288 0 
L 2700 0 
Q 2613 175 2588 409 
z
M 2541 1666 
Q 2234 1541 1622 1453 
Q 1275 1403 1131 1340 
Q 988 1278 909 1158 
Q 831 1038 831 891 
Q 831 666 1001 516 
Q 1172 366 1500 366 
Q 1825 366 2078 508 
Q 2331 650 2450 897 
Q 2541 1088 2541 1459 
L 2541 1666 
z
" transform="scale(0.015625)"/>
        <path id="ArialMT-51" d="M 422 0 
L 422 3319 
L 928 3319 
L 928 2847 
Q 1294 3394 1984 3394 
Q 2284 3394 2536 3286 
Q 2788 3178 2913 3003 
Q 3038 2828 3088 2588 
Q 3119 2431 3119 2041 
L 3119 0 
L 2556 0 
L 2556 2019 
Q 2556 2363 2490 2533 
Q 2425 2703 2258 2804 
Q 2091 2906 1866 2906 
Q 1506 2906 1245 2678 
Q 984 2450 984 1813 
L 984 0 
L 422 0 
z
" transform="scale(0.015625)"/>
       </defs>
       <use xlink:href="#ArialMT-27"/>
       <use xlink:href="#ArialMT-48" transform="translate(72.21875 0)"/>
       <use xlink:href="#ArialMT-50" transform="translate(127.828125 0)"/>
       <use xlink:href="#ArialMT-44" transform="translate(211.125 0)"/>
       <use xlink:href="#ArialMT-51" transform="translate(266.734375 0)"/>
       <use xlink:href="#ArialMT-47" transform="translate(322.34375 0)"/>
      </g>
     </g>
    </g>
    <g id="xtick_4">
     <g id="line2d_4">
      <path d="M 217.86 223.92 
L 217.86 389.304 
" clip-path="url(#p395ea4fdb4)" style="fill: none; stroke: #cccccc; stroke-linecap: round"/>
     </g>
     <g id="text_4">
      <!-- Generation -->
      <g style="fill: #262626" transform="translate(187.92857 408.935348) scale(0.121 -0.121)">
       <defs>
        <path id="ArialMT-52" d="M 213 1659 
Q 213 2581 725 3025 
Q 1153 3394 1769 3394 
Q 2453 3394 2887 2945 
Q 3322 2497 3322 1706 
Q 3322 1066 3130 698 
Q 2938 331 2570 128 
Q 2203 -75 1769 -75 
Q 1072 -75 642 372 
Q 213 819 213 1659 
z
M 791 1659 
Q 791 1022 1069 705 
Q 1347 388 1769 388 
Q 2188 388 2466 706 
Q 2744 1025 2744 1678 
Q 2744 2294 2464 2611 
Q 2184 2928 1769 2928 
Q 1347 2928 1069 2612 
Q 791 2297 791 1659 
z
" transform="scale(0.015625)"/>
       </defs>
       <use xlink:href="#ArialMT-2a"/>
       <use xlink:href="#ArialMT-48" transform="translate(77.78125 0)"/>
       <use xlink:href="#ArialMT-51" transform="translate(133.390625 0)"/>
       <use xlink:href="#ArialMT-48" transform="translate(189 0)"/>
       <use xlink:href="#ArialMT-55" transform="translate(244.609375 0)"/>
       <use xlink:href="#ArialMT-44" transform="translate(277.90625 0)"/>
       <use xlink:href="#ArialMT-57" transform="translate(333.515625 0)"/>
       <use xlink:href="#ArialMT-4c" transform="translate(361.296875 0)"/>
       <use xlink:href="#ArialMT-52" transform="translate(383.515625 0)"/>
       <use xlink:href="#ArialMT-51" transform="translate(439.125 0)"/>
      </g>
     </g>
    </g>
   </g>
   <g id="matplotlib.axis_2">
    <g id="ytick_1">
     <g id="line2d_5">
      <path d="M 244.54328 223.92 
C 244.54328 220.415984 243.853065 216.94604 242.512136 213.708751 
C 241.171207 210.471462 239.205642 207.529785 236.727928 205.052072 
C 234.250215 202.574358 231.308538 200.608793 228.071249 199.267864 
C 224.83396 197.926935 221.364016 197.23672 217.86 197.23672 
C 214.355984 197.23672 210.88604 197.926935 207.648751 199.267864 
C 204.411462 200.608793 201.469785 202.574358 198.992072 205.052072 
C 196.514358 207.529785 194.548793 210.471462 193.207864 213.708751 
C 191.866935 216.94604 191.17672 220.415984 191.17672 223.92 
C 191.17672 227.424016 191.866935 230.89396 193.207864 234.131249 
C 194.548793 237.368538 196.514358 240.310215 198.992072 242.787928 
C 201.469785 245.265642 204.411462 247.231207 207.648751 248.572136 
C 210.88604 249.913065 214.355984 250.60328 217.86 250.60328 
C 221.364016 250.60328 224.83396 249.913065 228.071249 248.572136 
C 231.308538 247.231207 234.250215 245.265642 236.727928 242.787928 
C 239.205642 240.310215 241.171207 237.368538 242.512136 234.131249 
C 243.853065 230.89396 244.54328 227.424016 244.54328 223.92 
" clip-path="url(#p395ea4fdb4)" style="fill: none; stroke: #cccccc; stroke-linecap: round"/>
     </g>
    </g>
    <g id="ytick_2">
     <g id="line2d_6">
      <path d="M 271.22656 223.92 
C 271.22656 216.911968 269.84613 209.972079 267.164272 203.497502 
C 264.482415 197.022924 260.551284 191.139571 255.595856 186.184144 
C 250.640429 181.228716 244.757076 177.297585 238.282498 174.615728 
C 231.807921 171.93387 224.868032 170.55344 217.86 170.55344 
C 210.851968 170.55344 203.912079 171.93387 197.437502 174.615728 
C 190.962924 177.297585 185.079571 181.228716 180.124144 186.184144 
C 175.168716 191.139571 171.237585 197.022924 168.555728 203.497502 
C 165.87387 209.972079 164.49344 216.911968 164.49344 223.92 
C 164.49344 230.928032 165.87387 237.867921 168.555728 244.342498 
C 171.237585 250.817076 175.168716 256.700429 180.124144 261.655856 
C 185.079571 266.611284 190.962924 270.542415 197.437502 273.224272 
C 203.912079 275.90613 210.851968 277.28656 217.86 277.28656 
C 224.868032 277.28656 231.807921 275.90613 238.282498 273.224272 
C 244.757076 270.542415 250.640429 266.611284 255.595856 261.655856 
C 260.551284 256.700429 264.482415 250.817076 267.164272 244.342498 
C 269.84613 237.867921 271.22656 230.928032 271.22656 223.92 
" clip-path="url(#p395ea4fdb4)" style="fill: none; stroke: #cccccc; stroke-linecap: round"/>
     </g>
    </g>
    <g id="ytick_3">
     <g id="line2d_7">
      <path d="M 297.90984 223.92 
C 297.90984 213.407951 295.839195 202.998119 291.816409 193.286253 
C 287.793622 183.574386 281.896925 174.749356 274.463785 167.316215 
C 267.030644 159.883075 258.205614 153.986378 248.493747 149.963591 
C 238.781881 145.940805 228.372049 143.87016 217.86 143.87016 
C 207.347951 143.87016 196.938119 145.940805 187.226253 149.963591 
C 177.514386 153.986378 168.689356 159.883075 161.256215 167.316215 
C 153.823075 174.749356 147.926378 183.574386 143.903591 193.286253 
C 139.880805 202.998119 137.81016 213.407951 137.81016 223.92 
C 137.81016 234.432049 139.880805 244.841881 143.903591 254.553747 
C 147.926378 264.265614 153.823075 273.090644 161.256215 280.523785 
C 168.689356 287.956925 177.514386 293.853622 187.226253 297.876409 
C 196.938119 301.899195 207.347951 303.96984 217.86 303.96984 
C 228.372049 303.96984 238.781881 301.899195 248.493747 297.876409 
C 258.205614 293.853622 267.030644 287.956925 274.463785 280.523785 
C 281.896925 273.090644 287.793622 264.265614 291.816409 254.553747 
C 295.839195 244.841881 297.90984 234.432049 297.90984 223.92 
" clip-path="url(#p395ea4fdb4)" style="fill: none; stroke: #cccccc; stroke-linecap: round"/>
     </g>
    </g>
    <g id="ytick_4">
     <g id="line2d_8">
      <path d="M 324.59312 223.92 
C 324.59312 209.903935 321.832261 196.024159 316.468545 183.075003 
C 311.104829 170.125848 303.242567 158.359142 293.331713 148.448287 
C 283.420858 138.537433 271.654152 130.675171 258.704997 125.311455 
C 245.755841 119.947739 231.876065 117.18688 217.86 117.18688 
C 203.843935 117.18688 189.964159 119.947739 177.015003 125.311455 
C 164.065848 130.675171 152.299142 138.537433 142.388287 148.448287 
C 132.477433 158.359142 124.615171 170.125848 119.251455 183.075003 
C 113.887739 196.024159 111.12688 209.903935 111.12688 223.92 
C 111.12688 237.936065 113.887739 251.815841 119.251455 264.764997 
C 124.615171 277.714152 132.477433 289.480858 142.388287 299.391713 
C 152.299142 309.302567 164.065848 317.164829 177.015003 322.528545 
C 189.964159 327.892261 203.843935 330.65312 217.86 330.65312 
C 231.876065 330.65312 245.755841 327.892261 258.704997 322.528545 
C 271.654152 317.164829 283.420858 309.302567 293.331713 299.391713 
C 303.242567 289.480858 311.104829 277.714152 316.468545 264.764997 
C 321.832261 251.815841 324.59312 237.936065 324.59312 223.92 
" clip-path="url(#p395ea4fdb4)" style="fill: none; stroke: #cccccc; stroke-linecap: round"/>
     </g>
    </g>
    <g id="ytick_5">
     <g id="line2d_9">
      <path d="M 351.2764 223.92 
C 351.2764 206.399919 347.825326 189.050199 341.120681 172.863754 
C 334.416036 156.67731 324.588209 141.968927 312.199641 129.580359 
C 299.811073 117.191791 285.10269 107.363964 268.916246 100.659319 
C 252.729801 93.954674 235.380081 90.5036 217.86 90.5036 
C 200.339919 90.5036 182.990199 93.954674 166.803754 100.659319 
C 150.61731 107.363964 135.908927 117.191791 123.520359 129.580359 
C 111.131791 141.968927 101.303964 156.67731 94.599319 172.863754 
C 87.894674 189.050199 84.4436 206.399919 84.4436 223.92 
C 84.4436 241.440081 87.894674 258.789801 94.599319 274.976246 
C 101.303964 291.16269 111.131791 305.871073 123.520359 318.259641 
C 135.908927 330.648209 150.61731 340.476036 166.803754 347.180681 
C 182.990199 353.885326 200.339919 357.3364 217.86 357.3364 
C 235.380081 357.3364 252.729801 353.885326 268.916246 347.180681 
C 285.10269 340.476036 299.811073 330.648209 312.199641 318.259641 
C 324.588209 305.871073 334.416036 291.16269 341.120681 274.976246 
C 347.825326 258.789801 351.2764 241.440081 351.2764 223.92 
" clip-path="url(#p395ea4fdb4)" style="fill: none; stroke: #cccccc; stroke-linecap: round"/>
     </g>
    </g>
    <g id="ytick_6">
     <g id="line2d_10">
      <path d="M 377.95968 223.92 
C 377.95968 202.895903 373.818391 182.076238 365.772817 162.652505 
C 357.727244 143.228772 345.933851 125.578713 331.067569 110.712431 
C 316.201287 95.846149 298.551228 84.052756 279.127495 76.007183 
C 259.703762 67.961609 238.884097 63.82032 217.86 63.82032 
C 196.835903 63.82032 176.016238 67.961609 156.592505 76.007183 
C 137.168772 84.052756 119.518713 95.846149 104.652431 110.712431 
C 89.786149 125.578713 77.992756 143.228772 69.947183 162.652505 
C 61.901609 182.076238 57.76032 202.895903 57.76032 223.92 
C 57.76032 244.944097 61.901609 265.763762 69.947183 285.187495 
C 77.992756 304.611228 89.786149 322.261287 104.652431 337.127569 
C 119.518713 351.993851 137.168772 363.787244 156.592505 371.832817 
C 176.016238 379.878391 196.835903 384.01968 217.86 384.01968 
C 238.884097 384.01968 259.703762 379.878391 279.127495 371.832817 
C 298.551228 363.787244 316.201287 351.993851 331.067569 337.127569 
C 345.933851 322.261287 357.727244 304.611228 365.772817 285.187495 
C 373.818391 265.763762 377.95968 244.944097 377.95968 223.92 
" clip-path="url(#p395ea4fdb4)" style="fill: none; stroke: #cccccc; stroke-linecap: round"/>
     </g>
    </g>
   </g>
   <g id="patch_3">
    <path d="M 376.714883 223.92 
L 217.86 194.794859 
L 189.587455 223.92 
L 217.86 271.628775 
z
" clip-path="url(#p395ea4fdb4)" style="fill: #008080; opacity: 0.25; stroke: #008080; stroke-linejoin: miter"/>
   </g>
   <g id="line2d_11">
    <path d="M 376.714883 223.92 
L 217.86 194.794859 
L 189.587455 223.92 
L 217.86 271.628775 
L 376.714883 223.92 
" clip-path="url(#p395ea4fdb4)" style="fill: none; stroke: #008080; stroke-width: 2; stroke-linecap: round"/>
   </g>
   <g id="patch_4">
    <path d="M 383.244 223.92 
C 383.244 202.201972 378.966022 180.695125 370.654893 160.630283 
C 362.343763 140.565442 350.161113 122.332817 334.804148 106.975852 
C 319.447183 91.618887 301.214558 79.436237 281.149717 71.125107 
C 261.084875 62.813978 239.578028 58.536 217.86 58.536 
C 196.141972 58.536 174.635125 62.813978 154.570283 71.125107 
C 134.505442 79.436237 116.272817 91.618887 100.915852 106.975852 
C 85.558887 122.332817 73.376237 140.565442 65.065107 160.630283 
C 56.753978 180.695125 52.476 202.201972 52.476 223.92 
C 52.476 245.638028 56.753978 267.144875 65.065107 287.209717 
C 73.376237 307.274558 85.558887 325.507183 100.915852 340.864148 
C 116.272817 356.221113 134.505442 368.403763 154.570283 376.714893 
C 174.635125 385.026022 196.141972 389.304 217.86 389.304 
C 239.578028 389.304 261.084875 385.026022 281.149717 376.714893 
C 301.214558 368.403763 319.447183 356.221113 334.804148 340.864148 
C 350.161113 325.507183 362.343763 307.274558 370.654893 287.209717 
C 378.966022 267.144875 383.244 245.638028 383.244 223.92 
" style="fill: none; stroke: #cccccc; stroke-width: 1.25; stroke-linejoin: miter; stroke-linecap: square"/>
   </g>
   <g id="text_5">
    <!-- Chart 12: Radar Chart FY2024 Growth Rates -->
    <g style="fill: #262626" transform="translate(85.807406 30.358217) scale(0.132 -0.132)">
     <defs>
      <path id="ArialMT-26" d="M 3763 1606 
L 4369 1453 
Q 4178 706 3683 314 
Q 3188 -78 2472 -78 
Q 1731 -78 1267 223 
Q 803 525 561 1097 
Q 319 1669 319 2325 
Q 319 3041 592 3573 
Q 866 4106 1370 4382 
Q 1875 4659 2481 4659 
Q 3169 4659 3637 4309 
Q 4106 3959 4291 3325 
L 3694 3184 
Q 3534 3684 3231 3912 
Q 2928 4141 2469 4141 
Q 1941 4141 1586 3887 
Q 1231 3634 1087 3207 
Q 944 2781 944 2328 
Q 944 1744 1114 1308 
Q 1284 872 1643 656 
Q 2003 441 2422 441 
Q 2931 441 3284 734 
Q 3638 1028 3763 1606 
z
" transform="scale(0.015625)"/>
      <path id="ArialMT-4b" d="M 422 0 
L 422 4581 
L 984 4581 
L 984 2938 
Q 1378 3394 1978 3394 
Q 2347 3394 2619 3248 
Q 2891 3103 3008 2847 
Q 3125 2591 3125 2103 
L 3125 0 
L 2563 0 
L 2563 2103 
Q 2563 2525 2380 2717 
Q 2197 2909 1863 2909 
Q 1613 2909 1392 2779 
Q 1172 2650 1078 2428 
Q 984 2206 984 1816 
L 984 0 
L 422 0 
z
" transform="scale(0.015625)"/>
      <path id="ArialMT-3" transform="scale(0.015625)"/>
      <path id="ArialMT-14" d="M 2384 0 
L 1822 0 
L 1822 3584 
Q 1619 3391 1289 3197 
Q 959 3003 697 2906 
L 697 3450 
Q 1169 3672 1522 3987 
Q 1875 4303 2022 4600 
L 2384 4600 
L 2384 0 
z
" transform="scale(0.015625)"/>
      <path id="ArialMT-15" d="M 3222 541 
L 3222 0 
L 194 0 
Q 188 203 259 391 
Q 375 700 629 1000 
Q 884 1300 1366 1694 
Q 2113 2306 2375 2664 
Q 2638 3022 2638 3341 
Q 2638 3675 2398 3904 
Q 2159 4134 1775 4134 
Q 1369 4134 1125 3890 
Q 881 3647 878 3216 
L 300 3275 
Q 359 3922 746 4261 
Q 1134 4600 1788 4600 
Q 2447 4600 2831 4234 
Q 3216 3869 3216 3328 
Q 3216 3053 3103 2787 
Q 2991 2522 2730 2228 
Q 2469 1934 1863 1422 
Q 1356 997 1212 845 
Q 1069 694 975 541 
L 3222 541 
z
" transform="scale(0.015625)"/>
      <path id="ArialMT-1d" d="M 578 2678 
L 578 3319 
L 1219 3319 
L 1219 2678 
L 578 2678 
z
M 578 0 
L 578 641 
L 1219 641 
L 1219 0 
L 578 0 
z
" transform="scale(0.015625)"/>
      <path id="ArialMT-35" d="M 503 0 
L 503 4581 
L 2534 4581 
Q 3147 4581 3465 4457 
Q 3784 4334 3975 4021 
Q 4166 3709 4166 3331 
Q 4166 2844 3850 2509 
Q 3534 2175 2875 2084 
Q 3116 1969 3241 1856 
Q 3506 1613 3744 1247 
L 4541 0 
L 3778 0 
L 3172 953 
Q 2906 1366 2734 1584 
Q 2563 1803 2427 1890 
Q 2291 1978 2150 2013 
Q 2047 2034 1813 2034 
L 1109 2034 
L 1109 0 
L 503 0 
z
M 1109 2559 
L 2413 2559 
Q 2828 2559 3062 2645 
Q 3297 2731 3419 2920 
Q 3541 3109 3541 3331 
Q 3541 3656 3305 3865 
Q 3069 4075 2559 4075 
L 1109 4075 
L 1109 2559 
z
" transform="scale(0.015625)"/>
      <path id="ArialMT-29" d="M 525 0 
L 525 4581 
L 3616 4581 
L 3616 4041 
L 1131 4041 
L 1131 2622 
L 3281 2622 
L 3281 2081 
L 1131 2081 
L 1131 0 
L 525 0 
z
" transform="scale(0.015625)"/>
      <path id="ArialMT-3c" d="M 1784 0 
L 1784 1941 
L 19 4581 
L 756 4581 
L 1659 3200 
Q 1909 2813 2125 2425 
Q 2331 2784 2625 3234 
L 3513 4581 
L 4219 4581 
L 2391 1941 
L 2391 0 
L 1784 0 
z
" transform="scale(0.015625)"/>
      <path id="ArialMT-13" d="M 266 2259 
Q 266 3072 433 3567 
Q 600 4063 929 4331 
Q 1259 4600 1759 4600 
Q 2128 4600 2406 4451 
Q 2684 4303 2865 4023 
Q 3047 3744 3150 3342 
Q 3253 2941 3253 2259 
Q 3253 1453 3087 958 
Q 2922 463 2592 192 
Q 2263 -78 1759 -78 
Q 1097 -78 719 397 
Q 266 969 266 2259 
z
M 844 2259 
Q 844 1131 1108 757 
Q 1372 384 1759 384 
Q 2147 384 2411 759 
Q 2675 1134 2675 2259 
Q 2675 3391 2411 3762 
Q 2147 4134 1753 4134 
Q 1366 4134 1134 3806 
Q 844 3388 844 2259 
z
" transform="scale(0.015625)"/>
      <path id="ArialMT-17" d="M 2069 0 
L 2069 1097 
L 81 1097 
L 81 1613 
L 2172 4581 
L 2631 4581 
L 2631 1613 
L 3250 1613 
L 3250 1097 
L 2631 1097 
L 2631 0 
L 2069 0 
z
M 2069 1613 
L 2069 3678 
L 634 1613 
L 2069 1613 
z
" transform="scale(0.015625)"/>
      <path id="ArialMT-5a" d="M 1034 0 
L 19 3319 
L 600 3319 
L 1128 1403 
L 1325 691 
Q 1338 744 1497 1375 
L 2025 3319 
L 2603 3319 
L 3100 1394 
L 3266 759 
L 3456 1400 
L 4025 3319 
L 4572 3319 
L 3534 0 
L 2950 0 
L 2422 1988 
L 2294 2553 
L 1622 0 
L 1034 0 
z
" transform="scale(0.015625)"/>
      <path id="ArialMT-56" d="M 197 991 
L 753 1078 
Q 800 744 1014 566 
Q 1228 388 1613 388 
Q 2000 388 2187 545 
Q 2375 703 2375 916 
Q 2375 1106 2209 1216 
Q 2094 1291 1634 1406 
Q 1016 1563 777 1677 
Q 538 1791 414 1992 
Q 291 2194 291 2438 
Q 291 2659 392 2848 
Q 494 3038 669 3163 
Q 800 3259 1026 3326 
Q 1253 3394 1513 3394 
Q 1903 3394 2198 3281 
Q 2494 3169 2634 2976 
Q 2775 2784 2828 2463 
L 2278 2388 
Q 2241 2644 2061 2787 
Q 1881 2931 1553 2931 
Q 1166 2931 1000 2803 
Q 834 2675 834 2503 
Q 834 2394 903 2306 
Q 972 2216 1119 2156 
Q 1203 2125 1616 2013 
Q 2213 1853 2448 1751 
Q 2684 1650 2818 1456 
Q 2953 1263 2953 975 
Q 2953 694 2789 445 
Q 2625 197 2315 61 
Q 2006 -75 1616 -75 
Q 969 -75 630 194 
Q 291 463 197 991 
z
" transform="scale(0.015625)"/>
     </defs>
     <use xlink:href="#ArialMT-26"/>
     <use xlink:href="#ArialMT-4b" transform="translate(72.21875 0)"/>
     <use xlink:href="#ArialMT-44" transform="translate(127.828125 0)"/>
     <use xlink:href="#ArialMT-55" transform="translate(183.4375 0)"/>
     <use xlink:href="#ArialMT-57" transform="translate(216.734375 0)"/>
     <use xlink:href="#ArialMT-3" transform="translate(244.515625 0)"/>
     <use xlink:href="#ArialMT-14" transform="translate(272.296875 0)"/>
     <use xlink:href="#ArialMT-15" transform="translate(327.90625 0)"/>
     <use xlink:href="#ArialMT-1d" transform="translate(383.515625 0)"/>
     <use xlink:href="#ArialMT-3" transform="translate(411.296875 0)"/>
     <use xlink:href="#ArialMT-35" transform="translate(439.078125 0)"/>
     <use xlink:href="#ArialMT-44" transform="translate(511.296875 0)"/>
     <use xlink:href="#ArialMT-47" transform="translate(566.90625 0)"/>
     <use xlink:href="#ArialMT-44" transform="translate(622.515625 0)"/>
     <use xlink:href="#ArialMT-55" transform="translate(678.125 0)"/>
     <use xlink:href="#ArialMT-3" transform="translate(711.421875 0)"/>
     <use xlink:href="#ArialMT-26" transform="translate(739.203125 0)"/>
     <use xlink:href="#ArialMT-4b" transform="translate(811.421875 0)"/>
     <use xlink:href="#ArialMT-44" transform="translate(867.03125 0)"/>
     <use xlink:href="#ArialMT-55" transform="translate(922.640625 0)"/>
     <use xlink:href="#ArialMT-57" transform="translate(955.9375 0)"/>
     <use xlink:href="#ArialMT-3" transform="translate(983.71875 0)"/>
     <use xlink:href="#ArialMT-29" transform="translate(1011.5 0)"/>
     <use xlink:href="#ArialMT-3c" transform="translate(1072.578125 0)"/>
     <use xlink:href="#ArialMT-15" transform="translate(1139.28125 0)"/>
     <use xlink:href="#ArialMT-13" transform="translate(1194.890625 0)"/>
     <use xlink:href="#ArialMT-15" transform="translate(1250.5 0)"/>
     <use xlink:href="#ArialMT-17" transform="translate(1306.109375 0)"/>
     <use xlink:href="#ArialMT-3" transform="translate(1361.71875 0)"/>
     <use xlink:href="#ArialMT-2a" transform="translate(1389.5 0)"/>
     <use xlink:href="#ArialMT-55" transform="translate(1467.28125 0)"/>
     <use xlink:href="#ArialMT-52" transform="translate(1500.578125 0)"/>
     <use xlink:href="#ArialMT-5a" transform="translate(1556.1875 0)"/>
     <use xlink:href="#ArialMT-57" transform="translate(1628.40625 0)"/>
     <use xlink:href="#ArialMT-4b" transform="translate(1656.1875 0)"/>
     <use xlink:href="#ArialMT-3" transform="translate(1711.796875 0)"/>
     <use xlink:href="#ArialMT-35" transform="translate(1739.578125 0)"/>
     <use xlink:href="#ArialMT-44" transform="translate(1811.796875 0)"/>
     <use xlink:href="#ArialMT-57" transform="translate(1867.40625 0)"/>
     <use xlink:href="#ArialMT-48" transform="translate(1895.1875 0)"/>
     <use xlink:href="#ArialMT-56" transform="translate(1950.796875 0)"/>
    </g>
   </g>
  </g>
 </g>
 <defs>
  <clipPath id="p395ea4fdb4">
   <path d="M 383.244 223.92 
C 383.244 202.201972 378.966022 180.695125 370.654893 160.630283 
C 362.343763 140.565442 350.161113 122.332817 334.804148 106.975852 
C 319.447183 91.618887 301.214558 79.436237 281.149717 71.125107 
C 261.084875 62.813978 239.578028 58.536 217.86 58.536 
C 196.141972 58.536 174.635125 62.813978 154.570283 71.125107 
C 134.505442 79.436237 116.272817 91.618887 100.915852 106.975852 
C 85.558887 122.332817 73.376237 140.565442 65.065107 160.630283 
C 56.753978 180.695125 52.476 202.201972 52.476 223.92 
C 52.476 245.638028 56.753978 267.144875 65.065107 287.209717 
C 73.376237 307.274558 85.558887 325.507183 100.915852 340.864148 
C 116.272817 356.221113 134.505442 368.403763 154.570283 376.714893 
C 174.635125 385.026022 196.141972 389.304 217.86 389.304 
C 239.578028 389.304 261.084875 385.026022 281.149717 376.714893 
C 301.214558 368.403763 319.447183 356.221113 334.804148 340.864148 
C 350.161113 325.507183 362.343763 307.274558 370.654893 287.209717 
C 378.966022 267.144875 383.244 245.638028 383.244 223.92 
M 217.86 223.92 
C 217.86 223.92 217.86 223.92 217.86 223.92 
C 217.86 223.92 217.86 223.92 217.86 223.92 
C 217.86 223.92 217.86 223.92 217.86 223.92 
C 217.86 223.92 217.86 223.92 217.86 223.92 
C 217.86 223.92 217.86 223.92 217.86 223.92 
C 217.86 223.92 217.86 223.92 217.86 223.92 
C 217.86 223.92 217.86 223.92 217.86 223.92 
C 217.86 223.92 217.86 223.92 217.86 223.92 
C 217.86 223.92 217.86 223.92 217.86 223.92 
C 217.86 223.92 217.86 223.92 217.86 223.92 
C 217.86 223.92 217.86 223.92 217.86 223.92 
C 217.86 223.92 217.86 223.92 217.86 223.92 
C 217.86 223.92 217.86 223.92 217.86 223.92 
C 217.86 223.92 217.86 223.92 217.86 223.92 
C 217.86 223.92 217.86 223.92 217.86 223.92 
C 217.86 223.92 217.86 223.92 217.86 223.92 
z
"/>
  </clipPath>
 </defs>
</svg>
