<?xml version="1.0" encoding="utf-8" standalone="no"?>
<!DOCTYPE svg PUBLIC "-//W3C//DTD SVG 1.1//EN"
  "http://www.w3.org/Graphics/SVG/1.1/DTD/svg11.dtd">
<svg xmlns:xlink="http://www.w3.org/1999/xlink" width="576pt" height="432pt" viewBox="0 0 576 432" xmlns="http://www.w3.org/2000/svg" version="1.1">
 <metadata>
  <rdf:RDF xmlns:dc="http://purl.org/dc/elements/1.1/" xmlns:cc="http://creativecommons.org/ns#" xmlns:rdf="http://www.w3.org/1999/02/22-rdf-syntax-ns#">
   <cc:Work>
    <dc:type rdf:resource="http://purl.org/dc/dcmitype/StillImage"/>
    <dc:date>2026-06-30T19:48:27.141820</dc:date>
    <dc:format>image/svg+xml</dc:format>
    <dc:creator>
     <cc:Agent>
      <dc:title>Matplotlib v3.11.0, https://matplotlib.org/</dc:title>
     </cc:Agent>
    </dc:creator>
   </cc:Work>
  </rdf:RDF>
 </metadata>
 <defs>
  <style type="text/css">*{stroke-linejoin: round; stroke-linecap: butt}</style>
 </defs>
 <g id="figure_1">
  <g id="patch_1">
   <path d="M 0 432 
L 576 432 
L 576 0 
L 0 0 
z
" style="fill: #ffffff"/>
  </g>
  <g id="axes_1">
   <g id="patch_2">
    <path d="M 67.023891 380.270504 
L 547.605644 380.270504 
L 547.605644 30.096 
L 67.023891 30.096 
z
" style="fill: #ffffff"/>
   </g>
   <g id="matplotlib.axis_1">
    <g id="xtick_1">
     <g id="line2d_1">
      <path d="M 140.927986 380.270504 
L 140.927986 30.096 
" clip-path="url(#pca3ebb12b8)" style="fill: none; stroke: #cccccc; stroke-linecap: round"/>
     </g>
     <g id="text_1">
      <!-- 10000 -->
      <g style="fill: #262626" transform="translate(124.10615 398.579635) scale(0.121 -0.121)">
       <defs>
        <path id="ArialMT-14" d="M 2384 0 
L 1822 0 
L 1822 3584 
Q 1619 3391 1289 3197 
Q 959 3003 697 2906 
L 697 3450 
Q 1169 3672 1522 3987 
Q 1875 4303 2022 4600 
L 2384 4600 
L 2384 0 
z
" transform="scale(0.015625)"/>
        <path id="ArialMT-13" d="M 266 2259 
Q 266 3072 433 3567 
Q 600 4063 929 4331 
Q 1259 4600 1759 4600 
Q 2128 4600 2406 4451 
Q 2684 4303 2865 4023 
Q 3047 3744 3150 3342 
Q 3253 2941 3253 2259 
Q 3253 1453 3087 958 
Q 2922 463 2592 192 
Q 2263 -78 1759 -78 
Q 1097 -78 719 397 
Q 266 969 266 2259 
z
M 844 2259 
Q 844 1131 1108 757 
Q 1372 384 1759 384 
Q 2147 384 2411 759 
Q 2675 1134 2675 2259 
Q 2675 3391 2411 3762 
Q 2147 4134 1753 4134 
Q 1366 4134 1134 3806 
Q 844 3388 844 2259 
z
" transform="scale(0.015625)"/>
       </defs>
       <use xlink:href="#ArialMT-14"/>
       <use xlink:href="#ArialMT-13" transform="translate(55.609375 0)"/>
       <use xlink:href="#ArialMT-13" transform="translate(111.21875 0)"/>
       <use xlink:href="#ArialMT-13" transform="translate(166.828125 0)"/>
       <use xlink:href="#ArialMT-13" transform="translate(222.4375 0)"/>
      </g>
     </g>
    </g>
    <g id="xtick_2">
     <g id="line2d_2">
      <path d="M 221.690427 380.270504 
L 221.690427 30.096 
" clip-path="url(#pca3ebb12b8)" style="fill: none; stroke: #cccccc; stroke-linecap: round"/>
     </g>
     <g id="text_2">
      <!-- 15000 -->
      <g style="fill: #262626" transform="translate(204.868591 398.579635) scale(0.121 -0.121)">
       <defs>
        <path id="ArialMT-18" d="M 266 1200 
L 856 1250 
Q 922 819 1161 601 
Q 1400 384 1738 384 
Q 2144 384 2425 690 
Q 2706 997 2706 1503 
Q 2706 1984 2436 2262 
Q 2166 2541 1728 2541 
Q 1456 2541 1237 2417 
Q 1019 2294 894 2097 
L 366 2166 
L 809 4519 
L 3088 4519 
L 3088 3981 
L 1259 3981 
L 1013 2750 
Q 1425 3038 1878 3038 
Q 2478 3038 2890 2622 
Q 3303 2206 3303 1553 
Q 3303 931 2941 478 
Q 2500 -78 1738 -78 
Q 1113 -78 717 272 
Q 322 622 266 1200 
z
" transform="scale(0.015625)"/>
       </defs>
       <use xlink:href="#ArialMT-14"/>
       <use xlink:href="#ArialMT-18" transform="translate(55.609375 0)"/>
       <use xlink:href="#ArialMT-13" transform="translate(111.21875 0)"/>
       <use xlink:href="#ArialMT-13" transform="translate(166.828125 0)"/>
       <use xlink:href="#ArialMT-13" transform="translate(222.4375 0)"/>
      </g>
     </g>
    </g>
    <g id="xtick_3">
     <g id="line2d_3">
      <path d="M 302.452868 380.270504 
L 302.452868 30.096 
" clip-path="url(#pca3ebb12b8)" style="fill: none; stroke: #cccccc; stroke-linecap: round"/>
     </g>
     <g id="text_3">
      <!-- 20000 -->
      <g style="fill: #262626" transform="translate(285.631032 398.579635) scale(0.121 -0.121)">
       <defs>
        <path id="ArialMT-15" d="M 3222 541 
L 3222 0 
L 194 0 
Q 188 203 259 391 
Q 375 700 629 1000 
Q 884 1300 1366 1694 
Q 2113 2306 2375 2664 
Q 2638 3022 2638 3341 
Q 2638 3675 2398 3904 
Q 2159 4134 1775 4134 
Q 1369 4134 1125 3890 
Q 881 3647 878 3216 
L 300 3275 
Q 359 3922 746 4261 
Q 1134 4600 1788 4600 
Q 2447 4600 2831 4234 
Q 3216 3869 3216 3328 
Q 3216 3053 3103 2787 
Q 2991 2522 2730 2228 
Q 2469 1934 1863 1422 
Q 1356 997 1212 845 
Q 1069 694 975 541 
L 3222 541 
z
" transform="scale(0.015625)"/>
       </defs>
       <use xlink:href="#ArialMT-15"/>
       <use xlink:href="#ArialMT-13" transform="translate(55.609375 0)"/>
       <use xlink:href="#ArialMT-13" transform="translate(111.21875 0)"/>
       <use xlink:href="#ArialMT-13" transform="translate(166.828125 0)"/>
       <use xlink:href="#ArialMT-13" transform="translate(222.4375 0)"/>
      </g>
     </g>
    </g>
    <g id="xtick_4">
     <g id="line2d_4">
      <path d="M 383.21531 380.270504 
L 383.21531 30.096 
" clip-path="url(#pca3ebb12b8)" style="fill: none; stroke: #cccccc; stroke-linecap: round"/>
     </g>
     <g id="text_4">
      <!-- 25000 -->
      <g style="fill: #262626" transform="translate(366.393474 398.579635) scale(0.121 -0.121)">
       <use xlink:href="#ArialMT-15"/>
       <use xlink:href="#ArialMT-18" transform="translate(55.609375 0)"/>
       <use xlink:href="#ArialMT-13" transform="translate(111.21875 0)"/>
       <use xlink:href="#ArialMT-13" transform="translate(166.828125 0)"/>
       <use xlink:href="#ArialMT-13" transform="translate(222.4375 0)"/>
      </g>
     </g>
    </g>
    <g id="xtick_5">
     <g id="line2d_5">
      <path d="M 463.977751 380.270504 
L 463.977751 30.096 
" clip-path="url(#pca3ebb12b8)" style="fill: none; stroke: #cccccc; stroke-linecap: round"/>
     </g>
     <g id="text_5">
      <!-- 30000 -->
      <g style="fill: #262626" transform="translate(447.155915 398.579635) scale(0.121 -0.121)">
       <defs>
        <path id="ArialMT-16" d="M 269 1209 
L 831 1284 
Q 928 806 1161 595 
Q 1394 384 1728 384 
Q 2125 384 2398 659 
Q 2672 934 2672 1341 
Q 2672 1728 2419 1979 
Q 2166 2231 1775 2231 
Q 1616 2231 1378 2169 
L 1441 2663 
Q 1497 2656 1531 2656 
Q 1891 2656 2178 2843 
Q 2466 3031 2466 3422 
Q 2466 3731 2256 3934 
Q 2047 4138 1716 4138 
Q 1388 4138 1169 3931 
Q 950 3725 888 3313 
L 325 3413 
Q 428 3978 793 4289 
Q 1159 4600 1703 4600 
Q 2078 4600 2393 4439 
Q 2709 4278 2876 4000 
Q 3044 3722 3044 3409 
Q 3044 3113 2884 2869 
Q 2725 2625 2413 2481 
Q 2819 2388 3044 2092 
Q 3269 1797 3269 1353 
Q 3269 753 2831 336 
Q 2394 -81 1725 -81 
Q 1122 -81 723 278 
Q 325 638 269 1209 
z
" transform="scale(0.015625)"/>
       </defs>
       <use xlink:href="#ArialMT-16"/>
       <use xlink:href="#ArialMT-13" transform="translate(55.609375 0)"/>
       <use xlink:href="#ArialMT-13" transform="translate(111.21875 0)"/>
       <use xlink:href="#ArialMT-13" transform="translate(166.828125 0)"/>
       <use xlink:href="#ArialMT-13" transform="translate(222.4375 0)"/>
      </g>
     </g>
    </g>
    <g id="xtick_6">
     <g id="line2d_6">
      <path d="M 544.740193 380.270504 
L 544.740193 30.096 
" clip-path="url(#pca3ebb12b8)" style="fill: none; stroke: #cccccc; stroke-linecap: round"/>
     </g>
     <g id="text_6">
      <!-- 35000 -->
      <g style="fill: #262626" transform="translate(527.918357 398.579635) scale(0.121 -0.121)">
       <use xlink:href="#ArialMT-16"/>
       <use xlink:href="#ArialMT-18" transform="translate(55.609375 0)"/>
       <use xlink:href="#ArialMT-13" transform="translate(111.21875 0)"/>
       <use xlink:href="#ArialMT-13" transform="translate(166.828125 0)"/>
       <use xlink:href="#ArialMT-13" transform="translate(222.4375 0)"/>
      </g>
     </g>
    </g>
    <g id="text_7">
     <!-- Power_Division_Budget_TkCr -->
     <g style="fill: #262626" transform="translate(219.279017 414.736031) scale(0.132 -0.132)">
      <defs>
       <path id="ArialMT-33" d="M 494 0 
L 494 4581 
L 2222 4581 
Q 2678 4581 2919 4538 
Q 3256 4481 3484 4323 
Q 3713 4166 3852 3881 
Q 3991 3597 3991 3256 
Q 3991 2672 3619 2267 
Q 3247 1863 2275 1863 
L 1100 1863 
L 1100 0 
L 494 0 
z
M 1100 2403 
L 2284 2403 
Q 2872 2403 3119 2622 
Q 3366 2841 3366 3238 
Q 3366 3525 3220 3729 
Q 3075 3934 2838 4000 
Q 2684 4041 2272 4041 
L 1100 4041 
L 1100 2403 
z
" transform="scale(0.015625)"/>
       <path id="ArialMT-52" d="M 213 1659 
Q 213 2581 725 3025 
Q 1153 3394 1769 3394 
Q 2453 3394 2887 2945 
Q 3322 2497 3322 1706 
Q 3322 1066 3130 698 
Q 2938 331 2570 128 
Q 2203 -75 1769 -75 
Q 1072 -75 642 372 
Q 213 819 213 1659 
z
M 791 1659 
Q 791 1022 1069 705 
Q 1347 388 1769 388 
Q 2188 388 2466 706 
Q 2744 1025 2744 1678 
Q 2744 2294 2464 2611 
Q 2184 2928 1769 2928 
Q 1347 2928 1069 2612 
Q 791 2297 791 1659 
z
" transform="scale(0.015625)"/>
       <path id="ArialMT-5a" d="M 1034 0 
L 19 3319 
L 600 3319 
L 1128 1403 
L 1325 691 
Q 1338 744 1497 1375 
L 2025 3319 
L 2603 3319 
L 3100 1394 
L 3266 759 
L 3456 1400 
L 4025 3319 
L 4572 3319 
L 3534 0 
L 2950 0 
L 2422 1988 
L 2294 2553 
L 1622 0 
L 1034 0 
z
" transform="scale(0.015625)"/>
       <path id="ArialMT-48" d="M 2694 1069 
L 3275 997 
Q 3138 488 2766 206 
Q 2394 -75 1816 -75 
Q 1088 -75 661 373 
Q 234 822 234 1631 
Q 234 2469 665 2931 
Q 1097 3394 1784 3394 
Q 2450 3394 2872 2941 
Q 3294 2488 3294 1666 
Q 3294 1616 3291 1516 
L 816 1516 
Q 847 969 1125 678 
Q 1403 388 1819 388 
Q 2128 388 2347 550 
Q 2566 713 2694 1069 
z
M 847 1978 
L 2700 1978 
Q 2663 2397 2488 2606 
Q 2219 2931 1791 2931 
Q 1403 2931 1139 2672 
Q 875 2413 847 1978 
z
" transform="scale(0.015625)"/>
       <path id="ArialMT-55" d="M 416 0 
L 416 3319 
L 922 3319 
L 922 2816 
Q 1116 3169 1280 3281 
Q 1444 3394 1641 3394 
Q 1925 3394 2219 3213 
L 2025 2691 
Q 1819 2813 1613 2813 
Q 1428 2813 1281 2702 
Q 1134 2591 1072 2394 
Q 978 2094 978 1738 
L 978 0 
L 416 0 
z
" transform="scale(0.015625)"/>
       <path id="ArialMT-42" d="M -97 -1272 
L -97 -866 
L 3631 -866 
L 3631 -1272 
L -97 -1272 
z
" transform="scale(0.015625)"/>
       <path id="ArialMT-27" d="M 494 0 
L 494 4581 
L 2072 4581 
Q 2606 4581 2888 4516 
Q 3281 4425 3559 4188 
Q 3922 3881 4101 3404 
Q 4281 2928 4281 2316 
Q 4281 1794 4159 1391 
Q 4038 988 3847 723 
Q 3656 459 3429 307 
Q 3203 156 2883 78 
Q 2563 0 2147 0 
L 494 0 
z
M 1100 541 
L 2078 541 
Q 2531 541 2789 625 
Q 3047 709 3200 863 
Q 3416 1078 3536 1442 
Q 3656 1806 3656 2325 
Q 3656 3044 3420 3430 
Q 3184 3816 2847 3947 
Q 2603 4041 2063 4041 
L 1100 4041 
L 1100 541 
z
" transform="scale(0.015625)"/>
       <path id="ArialMT-4c" d="M 425 3934 
L 425 4581 
L 988 4581 
L 988 3934 
L 425 3934 
z
M 425 0 
L 425 3319 
L 988 3319 
L 988 0 
L 425 0 
z
" transform="scale(0.015625)"/>
       <path id="ArialMT-59" d="M 1344 0 
L 81 3319 
L 675 3319 
L 1388 1331 
Q 1503 1009 1600 663 
Q 1675 925 1809 1294 
L 2547 3319 
L 3125 3319 
L 1869 0 
L 1344 0 
z
" transform="scale(0.015625)"/>
       <path id="ArialMT-56" d="M 197 991 
L 753 1078 
Q 800 744 1014 566 
Q 1228 388 1613 388 
Q 2000 388 2187 545 
Q 2375 703 2375 916 
Q 2375 1106 2209 1216 
Q 2094 1291 1634 1406 
Q 1016 1563 777 1677 
Q 538 1791 414 1992 
Q 291 2194 291 2438 
Q 291 2659 392 2848 
Q 494 3038 669 3163 
Q 800 3259 1026 3326 
Q 1253 3394 1513 3394 
Q 1903 3394 2198 3281 
Q 2494 3169 2634 2976 
Q 2775 2784 2828 2463 
L 2278 2388 
Q 2241 2644 2061 2787 
Q 1881 2931 1553 2931 
Q 1166 2931 1000 2803 
Q 834 2675 834 2503 
Q 834 2394 903 2306 
Q 972 2216 1119 2156 
Q 1203 2125 1616 2013 
Q 2213 1853 2448 1751 
Q 2684 1650 2818 1456 
Q 2953 1263 2953 975 
Q 2953 694 2789 445 
Q 2625 197 2315 61 
Q 2006 -75 1616 -75 
Q 969 -75 630 194 
Q 291 463 197 991 
z
" transform="scale(0.015625)"/>
       <path id="ArialMT-51" d="M 422 0 
L 422 3319 
L 928 3319 
L 928 2847 
Q 1294 3394 1984 3394 
Q 2284 3394 2536 3286 
Q 2788 3178 2913 3003 
Q 3038 2828 3088 2588 
Q 3119 2431 3119 2041 
L 3119 0 
L 2556 0 
L 2556 2019 
Q 2556 2363 2490 2533 
Q 2425 2703 2258 2804 
Q 2091 2906 1866 2906 
Q 1506 2906 1245 2678 
Q 984 2450 984 1813 
L 984 0 
L 422 0 
z
" transform="scale(0.015625)"/>
       <path id="ArialMT-25" d="M 469 0 
L 469 4581 
L 2188 4581 
Q 2713 4581 3030 4442 
Q 3347 4303 3526 4014 
Q 3706 3725 3706 3409 
Q 3706 3116 3547 2856 
Q 3388 2597 3066 2438 
Q 3481 2316 3704 2022 
Q 3928 1728 3928 1328 
Q 3928 1006 3792 729 
Q 3656 453 3456 303 
Q 3256 153 2954 76 
Q 2653 0 2216 0 
L 469 0 
z
M 1075 2656 
L 2066 2656 
Q 2469 2656 2644 2709 
Q 2875 2778 2992 2937 
Q 3109 3097 3109 3338 
Q 3109 3566 3000 3739 
Q 2891 3913 2687 3977 
Q 2484 4041 1991 4041 
L 1075 4041 
L 1075 2656 
z
M 1075 541 
L 2216 541 
Q 2509 541 2628 563 
Q 2838 600 2978 687 
Q 3119 775 3209 942 
Q 3300 1109 3300 1328 
Q 3300 1584 3169 1773 
Q 3038 1963 2805 2039 
Q 2572 2116 2134 2116 
L 1075 2116 
L 1075 541 
z
" transform="scale(0.015625)"/>
       <path id="ArialMT-58" d="M 2597 0 
L 2597 488 
Q 2209 -75 1544 -75 
Q 1250 -75 995 37 
Q 741 150 617 320 
Q 494 491 444 738 
Q 409 903 409 1263 
L 409 3319 
L 972 3319 
L 972 1478 
Q 972 1038 1006 884 
Q 1059 663 1231 536 
Q 1403 409 1656 409 
Q 1909 409 2131 539 
Q 2353 669 2445 892 
Q 2538 1116 2538 1541 
L 2538 3319 
L 3100 3319 
L 3100 0 
L 2597 0 
z
" transform="scale(0.015625)"/>
       <path id="ArialMT-47" d="M 2575 0 
L 2575 419 
Q 2259 -75 1647 -75 
Q 1250 -75 917 144 
Q 584 363 401 755 
Q 219 1147 219 1656 
Q 219 2153 384 2558 
Q 550 2963 881 3178 
Q 1213 3394 1622 3394 
Q 1922 3394 2156 3267 
Q 2391 3141 2538 2938 
L 2538 4581 
L 3097 4581 
L 3097 0 
L 2575 0 
z
M 797 1656 
Q 797 1019 1065 703 
Q 1334 388 1700 388 
Q 2069 388 2326 689 
Q 2584 991 2584 1609 
Q 2584 2291 2321 2609 
Q 2059 2928 1675 2928 
Q 1300 2928 1048 2622 
Q 797 2316 797 1656 
z
" transform="scale(0.015625)"/>
       <path id="ArialMT-4a" d="M 319 -275 
L 866 -356 
Q 900 -609 1056 -725 
Q 1266 -881 1628 -881 
Q 2019 -881 2231 -725 
Q 2444 -569 2519 -288 
Q 2563 -116 2559 434 
Q 2191 0 1641 0 
Q 956 0 581 494 
Q 206 988 206 1678 
Q 206 2153 378 2554 
Q 550 2956 876 3175 
Q 1203 3394 1644 3394 
Q 2231 3394 2613 2919 
L 2613 3319 
L 3131 3319 
L 3131 450 
Q 3131 -325 2973 -648 
Q 2816 -972 2473 -1159 
Q 2131 -1347 1631 -1347 
Q 1038 -1347 672 -1080 
Q 306 -813 319 -275 
z
M 784 1719 
Q 784 1066 1043 766 
Q 1303 466 1694 466 
Q 2081 466 2343 764 
Q 2606 1063 2606 1700 
Q 2606 2309 2336 2618 
Q 2066 2928 1684 2928 
Q 1309 2928 1046 2623 
Q 784 2319 784 1719 
z
" transform="scale(0.015625)"/>
       <path id="ArialMT-57" d="M 1650 503 
L 1731 6 
Q 1494 -44 1306 -44 
Q 1000 -44 831 53 
Q 663 150 594 308 
Q 525 466 525 972 
L 525 2881 
L 113 2881 
L 113 3319 
L 525 3319 
L 525 4141 
L 1084 4478 
L 1084 3319 
L 1650 3319 
L 1650 2881 
L 1084 2881 
L 1084 941 
Q 1084 700 1114 631 
Q 1144 563 1211 522 
Q 1278 481 1403 481 
Q 1497 481 1650 503 
z
" transform="scale(0.015625)"/>
       <path id="ArialMT-37" d="M 1659 0 
L 1659 4041 
L 150 4041 
L 150 4581 
L 3781 4581 
L 3781 4041 
L 2266 4041 
L 2266 0 
L 1659 0 
z
" transform="scale(0.015625)"/>
       <path id="ArialMT-4e" d="M 425 0 
L 425 4581 
L 988 4581 
L 988 1969 
L 2319 3319 
L 3047 3319 
L 1778 2088 
L 3175 0 
L 2481 0 
L 1384 1697 
L 988 1316 
L 988 0 
L 425 0 
z
" transform="scale(0.015625)"/>
       <path id="ArialMT-26" d="M 3763 1606 
L 4369 1453 
Q 4178 706 3683 314 
Q 3188 -78 2472 -78 
Q 1731 -78 1267 223 
Q 803 525 561 1097 
Q 319 1669 319 2325 
Q 319 3041 592 3573 
Q 866 4106 1370 4382 
Q 1875 4659 2481 4659 
Q 3169 4659 3637 4309 
Q 4106 3959 4291 3325 
L 3694 3184 
Q 3534 3684 3231 3912 
Q 2928 4141 2469 4141 
Q 1941 4141 1586 3887 
Q 1231 3634 1087 3207 
Q 944 2781 944 2328 
Q 944 1744 1114 1308 
Q 1284 872 1643 656 
Q 2003 441 2422 441 
Q 2931 441 3284 734 
Q 3638 1028 3763 1606 
z
" transform="scale(0.015625)"/>
      </defs>
      <use xlink:href="#ArialMT-33"/>
      <use xlink:href="#ArialMT-52" transform="translate(66.703125 0)"/>
      <use xlink:href="#ArialMT-5a" transform="translate(122.3125 0)"/>
      <use xlink:href="#ArialMT-48" transform="translate(194.53125 0)"/>
      <use xlink:href="#ArialMT-55" transform="translate(250.140625 0)"/>
      <use xlink:href="#ArialMT-42" transform="translate(283.4375 0)"/>
      <use xlink:href="#ArialMT-27" transform="translate(339.046875 0)"/>
      <use xlink:href="#ArialMT-4c" transform="translate(411.265625 0)"/>
      <use xlink:href="#ArialMT-59" transform="translate(433.484375 0)"/>
      <use xlink:href="#ArialMT-4c" transform="translate(483.484375 0)"/>
      <use xlink:href="#ArialMT-56" transform="translate(505.703125 0)"/>
      <use xlink:href="#ArialMT-4c" transform="translate(555.703125 0)"/>
      <use xlink:href="#ArialMT-52" transform="translate(577.921875 0)"/>
      <use xlink:href="#ArialMT-51" transform="translate(633.53125 0)"/>
      <use xlink:href="#ArialMT-42" transform="translate(689.140625 0)"/>
      <use xlink:href="#ArialMT-25" transform="translate(744.75 0)"/>
      <use xlink:href="#ArialMT-58" transform="translate(811.453125 0)"/>
      <use xlink:href="#ArialMT-47" transform="translate(867.0625 0)"/>
      <use xlink:href="#ArialMT-4a" transform="translate(922.671875 0)"/>
      <use xlink:href="#ArialMT-48" transform="translate(978.28125 0)"/>
      <use xlink:href="#ArialMT-57" transform="translate(1033.890625 0)"/>
      <use xlink:href="#ArialMT-42" transform="translate(1061.671875 0)"/>
      <use xlink:href="#ArialMT-37" transform="translate(1117.28125 0)"/>
      <use xlink:href="#ArialMT-4e" transform="translate(1178.359375 0)"/>
      <use xlink:href="#ArialMT-26" transform="translate(1228.359375 0)"/>
      <use xlink:href="#ArialMT-55" transform="translate(1300.578125 0)"/>
     </g>
    </g>
   </g>
   <g id="matplotlib.axis_2">
    <g id="ytick_1">
     <g id="line2d_7">
      <path d="M 67.023891 322.759615 
L 547.605644 322.759615 
" clip-path="url(#pca3ebb12b8)" style="fill: none; stroke: #cccccc; stroke-linecap: round"/>
     </g>
     <g id="text_8">
      <!-- 200 -->
      <g style="fill: #262626" transform="translate(37.337688 327.16418) scale(0.121 -0.121)">
       <use xlink:href="#ArialMT-15"/>
       <use xlink:href="#ArialMT-13" transform="translate(55.609375 0)"/>
       <use xlink:href="#ArialMT-13" transform="translate(111.21875 0)"/>
      </g>
     </g>
    </g>
    <g id="ytick_2">
     <g id="line2d_8">
      <path d="M 67.023891 257.257463 
L 547.605644 257.257463 
" clip-path="url(#pca3ebb12b8)" style="fill: none; stroke: #cccccc; stroke-linecap: round"/>
     </g>
     <g id="text_9">
      <!-- 400 -->
      <g style="fill: #262626" transform="translate(37.337688 261.662028) scale(0.121 -0.121)">
       <defs>
        <path id="ArialMT-17" d="M 2069 0 
L 2069 1097 
L 81 1097 
L 81 1613 
L 2172 4581 
L 2631 4581 
L 2631 1613 
L 3250 1613 
L 3250 1097 
L 2631 1097 
L 2631 0 
L 2069 0 
z
M 2069 1613 
L 2069 3678 
L 634 1613 
L 2069 1613 
z
" transform="scale(0.015625)"/>
       </defs>
       <use xlink:href="#ArialMT-17"/>
       <use xlink:href="#ArialMT-13" transform="translate(55.609375 0)"/>
       <use xlink:href="#ArialMT-13" transform="translate(111.21875 0)"/>
      </g>
     </g>
    </g>
    <g id="ytick_3">
     <g id="line2d_9">
      <path d="M 67.023891 191.755311 
L 547.605644 191.755311 
" clip-path="url(#pca3ebb12b8)" style="fill: none; stroke: #cccccc; stroke-linecap: round"/>
     </g>
     <g id="text_10">
      <!-- 600 -->
      <g style="fill: #262626" transform="translate(37.337688 196.159876) scale(0.121 -0.121)">
       <defs>
        <path id="ArialMT-19" d="M 3184 3459 
L 2625 3416 
Q 2550 3747 2413 3897 
Q 2184 4138 1850 4138 
Q 1581 4138 1378 3988 
Q 1113 3794 959 3422 
Q 806 3050 800 2363 
Q 1003 2672 1297 2822 
Q 1591 2972 1913 2972 
Q 2475 2972 2870 2558 
Q 3266 2144 3266 1488 
Q 3266 1056 3080 686 
Q 2894 316 2569 119 
Q 2244 -78 1831 -78 
Q 1128 -78 684 439 
Q 241 956 241 2144 
Q 241 3472 731 4075 
Q 1159 4600 1884 4600 
Q 2425 4600 2770 4297 
Q 3116 3994 3184 3459 
z
M 888 1484 
Q 888 1194 1011 928 
Q 1134 663 1356 523 
Q 1578 384 1822 384 
Q 2178 384 2434 671 
Q 2691 959 2691 1453 
Q 2691 1928 2437 2201 
Q 2184 2475 1800 2475 
Q 1419 2475 1153 2201 
Q 888 1928 888 1484 
z
" transform="scale(0.015625)"/>
       </defs>
       <use xlink:href="#ArialMT-19"/>
       <use xlink:href="#ArialMT-13" transform="translate(55.609375 0)"/>
       <use xlink:href="#ArialMT-13" transform="translate(111.21875 0)"/>
      </g>
     </g>
    </g>
    <g id="ytick_4">
     <g id="line2d_10">
      <path d="M 67.023891 126.253159 
L 547.605644 126.253159 
" clip-path="url(#pca3ebb12b8)" style="fill: none; stroke: #cccccc; stroke-linecap: round"/>
     </g>
     <g id="text_11">
      <!-- 800 -->
      <g style="fill: #262626" transform="translate(37.337688 130.657724) scale(0.121 -0.121)">
       <defs>
        <path id="ArialMT-1b" d="M 1131 2484 
Q 781 2613 612 2850 
Q 444 3088 444 3419 
Q 444 3919 803 4259 
Q 1163 4600 1759 4600 
Q 2359 4600 2725 4251 
Q 3091 3903 3091 3403 
Q 3091 3084 2923 2848 
Q 2756 2613 2416 2484 
Q 2838 2347 3058 2040 
Q 3278 1734 3278 1309 
Q 3278 722 2862 322 
Q 2447 -78 1769 -78 
Q 1091 -78 675 323 
Q 259 725 259 1325 
Q 259 1772 486 2073 
Q 713 2375 1131 2484 
z
M 1019 3438 
Q 1019 3113 1228 2906 
Q 1438 2700 1772 2700 
Q 2097 2700 2305 2904 
Q 2513 3109 2513 3406 
Q 2513 3716 2298 3927 
Q 2084 4138 1766 4138 
Q 1444 4138 1231 3931 
Q 1019 3725 1019 3438 
z
M 838 1322 
Q 838 1081 952 856 
Q 1066 631 1291 507 
Q 1516 384 1775 384 
Q 2178 384 2440 643 
Q 2703 903 2703 1303 
Q 2703 1709 2433 1975 
Q 2163 2241 1756 2241 
Q 1359 2241 1098 1978 
Q 838 1716 838 1322 
z
" transform="scale(0.015625)"/>
       </defs>
       <use xlink:href="#ArialMT-1b"/>
       <use xlink:href="#ArialMT-13" transform="translate(55.609375 0)"/>
       <use xlink:href="#ArialMT-13" transform="translate(111.21875 0)"/>
      </g>
     </g>
    </g>
    <g id="ytick_5">
     <g id="line2d_11">
      <path d="M 67.023891 60.751007 
L 547.605644 60.751007 
" clip-path="url(#pca3ebb12b8)" style="fill: none; stroke: #cccccc; stroke-linecap: round"/>
     </g>
     <g id="text_12">
      <!-- 1000 -->
      <g style="fill: #262626" transform="translate(30.608953 65.155573) scale(0.121 -0.121)">
       <use xlink:href="#ArialMT-14"/>
       <use xlink:href="#ArialMT-13" transform="translate(55.609375 0)"/>
       <use xlink:href="#ArialMT-13" transform="translate(111.21875 0)"/>
       <use xlink:href="#ArialMT-13" transform="translate(166.828125 0)"/>
      </g>
     </g>
    </g>
    <g id="text_13">
     <!-- Transmission_Added_ckm -->
     <g style="fill: #262626" transform="translate(23.831023 282.700252) rotate(-90) scale(0.132 -0.132)">
      <defs>
       <path id="ArialMT-44" d="M 2588 409 
Q 2275 144 1986 34 
Q 1697 -75 1366 -75 
Q 819 -75 525 192 
Q 231 459 231 875 
Q 231 1119 342 1320 
Q 453 1522 633 1644 
Q 813 1766 1038 1828 
Q 1203 1872 1538 1913 
Q 2219 1994 2541 2106 
Q 2544 2222 2544 2253 
Q 2544 2597 2384 2738 
Q 2169 2928 1744 2928 
Q 1347 2928 1158 2789 
Q 969 2650 878 2297 
L 328 2372 
Q 403 2725 575 2942 
Q 747 3159 1072 3276 
Q 1397 3394 1825 3394 
Q 2250 3394 2515 3294 
Q 2781 3194 2906 3042 
Q 3031 2891 3081 2659 
Q 3109 2516 3109 2141 
L 3109 1391 
Q 3109 606 3145 398 
Q 3181 191 3288 0 
L 2700 0 
Q 2613 175 2588 409 
z
M 2541 1666 
Q 2234 1541 1622 1453 
Q 1275 1403 1131 1340 
Q 988 1278 909 1158 
Q 831 1038 831 891 
Q 831 666 1001 516 
Q 1172 366 1500 366 
Q 1825 366 2078 508 
Q 2331 650 2450 897 
Q 2541 1088 2541 1459 
L 2541 1666 
z
" transform="scale(0.015625)"/>
       <path id="ArialMT-50" d="M 422 0 
L 422 3319 
L 925 3319 
L 925 2853 
Q 1081 3097 1340 3245 
Q 1600 3394 1931 3394 
Q 2300 3394 2536 3241 
Q 2772 3088 2869 2813 
Q 3263 3394 3894 3394 
Q 4388 3394 4653 3120 
Q 4919 2847 4919 2278 
L 4919 0 
L 4359 0 
L 4359 2091 
Q 4359 2428 4304 2576 
Q 4250 2725 4106 2815 
Q 3963 2906 3769 2906 
Q 3419 2906 3187 2673 
Q 2956 2441 2956 1928 
L 2956 0 
L 2394 0 
L 2394 2156 
Q 2394 2531 2256 2718 
Q 2119 2906 1806 2906 
Q 1569 2906 1367 2781 
Q 1166 2656 1075 2415 
Q 984 2175 984 1722 
L 984 0 
L 422 0 
z
" transform="scale(0.015625)"/>
       <path id="ArialMT-24" d="M -9 0 
L 1750 4581 
L 2403 4581 
L 4278 0 
L 3588 0 
L 3053 1388 
L 1138 1388 
L 634 0 
L -9 0 
z
M 1313 1881 
L 2866 1881 
L 2388 3150 
Q 2169 3728 2063 4100 
Q 1975 3659 1816 3225 
L 1313 1881 
z
" transform="scale(0.015625)"/>
       <path id="ArialMT-46" d="M 2588 1216 
L 3141 1144 
Q 3050 572 2676 248 
Q 2303 -75 1759 -75 
Q 1078 -75 664 370 
Q 250 816 250 1647 
Q 250 2184 428 2587 
Q 606 2991 970 3192 
Q 1334 3394 1763 3394 
Q 2303 3394 2647 3120 
Q 2991 2847 3088 2344 
L 2541 2259 
Q 2463 2594 2264 2762 
Q 2066 2931 1784 2931 
Q 1359 2931 1093 2626 
Q 828 2322 828 1663 
Q 828 994 1084 691 
Q 1341 388 1753 388 
Q 2084 388 2306 591 
Q 2528 794 2588 1216 
z
" transform="scale(0.015625)"/>
      </defs>
      <use xlink:href="#ArialMT-37"/>
      <use xlink:href="#ArialMT-55" transform="translate(57.375 0)"/>
      <use xlink:href="#ArialMT-44" transform="translate(90.671875 0)"/>
      <use xlink:href="#ArialMT-51" transform="translate(146.28125 0)"/>
      <use xlink:href="#ArialMT-56" transform="translate(201.890625 0)"/>
      <use xlink:href="#ArialMT-50" transform="translate(251.890625 0)"/>
      <use xlink:href="#ArialMT-4c" transform="translate(335.1875 0)"/>
      <use xlink:href="#ArialMT-56" transform="translate(357.40625 0)"/>
      <use xlink:href="#ArialMT-56" transform="translate(407.40625 0)"/>
      <use xlink:href="#ArialMT-4c" transform="translate(457.40625 0)"/>
      <use xlink:href="#ArialMT-52" transform="translate(479.625 0)"/>
      <use xlink:href="#ArialMT-51" transform="translate(535.234375 0)"/>
      <use xlink:href="#ArialMT-42" transform="translate(590.84375 0)"/>
      <use xlink:href="#ArialMT-24" transform="translate(646.453125 0)"/>
      <use xlink:href="#ArialMT-47" transform="translate(713.15625 0)"/>
      <use xlink:href="#ArialMT-47" transform="translate(768.765625 0)"/>
      <use xlink:href="#ArialMT-48" transform="translate(824.375 0)"/>
      <use xlink:href="#ArialMT-47" transform="translate(879.984375 0)"/>
      <use xlink:href="#ArialMT-42" transform="translate(935.59375 0)"/>
      <use xlink:href="#ArialMT-46" transform="translate(991.203125 0)"/>
      <use xlink:href="#ArialMT-4e" transform="translate(1041.203125 0)"/>
      <use xlink:href="#ArialMT-50" transform="translate(1091.203125 0)"/>
     </g>
    </g>
   </g>
   <g id="PathCollection_1">
    <defs>
     <path id="m52b703f9a9" d="M 0 3 
C 0.795609 3 1.55874 2.683901 2.12132 2.12132 
C 2.683901 1.55874 3 0.795609 3 0 
C 3 -0.795609 2.683901 -1.55874 2.12132 -2.12132 
C 1.55874 -2.683901 0.795609 -3 0 -3 
C -0.795609 -3 -1.55874 -2.683901 -2.12132 -2.12132 
C -2.683901 -1.55874 -3 -0.795609 -3 0 
C -3 0.795609 -2.683901 1.55874 -2.12132 2.12132 
C -1.55874 2.683901 -0.795609 3 0 3 
z
" style="stroke: #4c72b0; stroke-opacity: 0.8"/>
    </defs>
    <g clip-path="url(#pca3ebb12b8)">
     <use xlink:href="#m52b703f9a9" x="88.868516" y="364.353481" style="fill: #4c72b0; fill-opacity: 0.8; stroke: #4c72b0; stroke-opacity: 0.8"/>
     <use xlink:href="#m52b703f9a9" x="111.950422" y="278.218151" style="fill: #4c72b0; fill-opacity: 0.8; stroke: #4c72b0; stroke-opacity: 0.8"/>
     <use xlink:href="#m52b703f9a9" x="131.317255" y="223.523854" style="fill: #4c72b0; fill-opacity: 0.8; stroke: #4c72b0; stroke-opacity: 0.8"/>
     <use xlink:href="#m52b703f9a9" x="165.802817" y="272.322958" style="fill: #4c72b0; fill-opacity: 0.8; stroke: #4c72b0; stroke-opacity: 0.8"/>
     <use xlink:href="#m52b703f9a9" x="245.676872" y="312.934292" style="fill: #4c72b0; fill-opacity: 0.8; stroke: #4c72b0; stroke-opacity: 0.8"/>
     <use xlink:href="#m52b703f9a9" x="220.850498" y="210.095913" style="fill: #4c72b0; fill-opacity: 0.8; stroke: #4c72b0; stroke-opacity: 0.8"/>
     <use xlink:href="#m52b703f9a9" x="320.51135" y="163.261875" style="fill: #4c72b0; fill-opacity: 0.8; stroke: #4c72b0; stroke-opacity: 0.8"/>
     <use xlink:href="#m52b703f9a9" x="349.876574" y="215.663596" style="fill: #4c72b0; fill-opacity: 0.8; stroke: #4c72b0; stroke-opacity: 0.8"/>
     <use xlink:href="#m52b703f9a9" x="400.304642" y="180.947456" style="fill: #4c72b0; fill-opacity: 0.8; stroke: #4c72b0; stroke-opacity: 0.8"/>
     <use xlink:href="#m52b703f9a9" x="411.611384" y="207.148317" style="fill: #4c72b0; fill-opacity: 0.8; stroke: #4c72b0; stroke-opacity: 0.8"/>
     <use xlink:href="#m52b703f9a9" x="389.644" y="199.615569" style="fill: #4c72b0; fill-opacity: 0.8; stroke: #4c72b0; stroke-opacity: 0.8"/>
     <use xlink:href="#m52b703f9a9" x="400.433862" y="46.013023" style="fill: #4c72b0; fill-opacity: 0.8; stroke: #4c72b0; stroke-opacity: 0.8"/>
     <use xlink:href="#m52b703f9a9" x="525.761019" y="129.855777" style="fill: #4c72b0; fill-opacity: 0.8; stroke: #4c72b0; stroke-opacity: 0.8"/>
     <use xlink:href="#m52b703f9a9" x="451.540335" y="246.122097" style="fill: #4c72b0; fill-opacity: 0.8; stroke: #4c72b0; stroke-opacity: 0.8"/>
    </g>
   </g>
   <g id="FillBetweenPolyCollection_1">
    <defs>
     <path id="m81ad4e026d" d="M 88.868516 -185.102506 
L 88.868516 -81.719209 
L 93.281571 -84.354031 
L 97.694627 -86.968801 
L 102.107683 -89.467981 
L 106.520738 -91.913089 
L 110.933794 -94.803602 
L 115.346849 -97.132489 
L 119.759905 -99.508132 
L 124.17296 -102.189374 
L 128.586016 -104.576928 
L 132.999072 -107.342572 
L 137.412127 -109.626739 
L 141.825183 -111.734132 
L 146.238238 -113.841526 
L 150.651294 -116.165869 
L 155.06435 -118.059112 
L 159.477405 -120.16791 
L 163.890461 -122.278392 
L 168.303516 -124.341434 
L 172.716572 -126.486282 
L 177.129627 -128.593282 
L 181.542683 -130.700675 
L 185.955739 -132.822349 
L 190.368794 -135.445775 
L 194.78185 -137.723384 
L 199.194905 -139.719589 
L 203.607961 -141.924328 
L 208.021017 -144.110965 
L 212.434072 -146.538844 
L 216.847128 -148.72311 
L 221.260183 -151.171668 
L 225.673239 -153.881173 
L 230.086295 -155.787901 
L 234.49935 -157.452136 
L 238.912406 -159.478247 
L 243.325461 -161.383791 
L 247.738517 -163.164966 
L 252.151572 -165.057794 
L 256.564628 -167.046367 
L 260.977684 -168.761982 
L 265.390739 -171.006856 
L 269.803795 -173.014453 
L 274.21685 -174.987194 
L 278.629906 -176.838413 
L 283.042962 -178.733982 
L 287.456017 -180.646528 
L 291.869073 -182.180608 
L 296.282128 -184.040752 
L 300.695184 -186.09987 
L 305.108239 -187.83051 
L 309.521295 -189.355839 
L 313.934351 -190.682205 
L 318.347406 -192.112791 
L 322.760462 -193.536104 
L 327.173517 -194.999696 
L 331.586573 -196.678323 
L 335.999629 -198.383258 
L 340.412684 -199.729957 
L 344.82574 -201.009458 
L 349.238795 -202.270955 
L 353.651851 -203.522741 
L 358.064907 -204.954596 
L 362.477962 -206.371795 
L 366.891018 -207.556705 
L 371.304073 -208.651621 
L 375.717129 -209.755405 
L 380.130184 -210.430168 
L 384.54324 -211.621525 
L 388.956296 -212.941398 
L 393.369351 -213.514762 
L 397.782407 -214.921576 
L 402.195462 -215.569421 
L 406.608518 -216.737214 
L 411.021574 -217.951798 
L 415.434629 -219.159689 
L 419.847685 -219.972868 
L 424.26074 -221.003369 
L 428.673796 -222.205832 
L 433.086851 -223.362829 
L 437.499907 -224.014664 
L 441.912963 -225.105269 
L 446.326018 -225.982267 
L 450.739074 -226.8543 
L 455.152129 -227.703378 
L 459.565185 -228.560386 
L 463.978241 -229.501318 
L 468.391296 -230.376289 
L 472.804352 -231.328451 
L 477.217407 -232.1056 
L 481.630463 -233.003199 
L 486.043519 -233.878658 
L 490.456574 -234.751146 
L 494.86963 -235.626117 
L 499.282685 -236.479512 
L 503.695741 -237.219706 
L 508.108796 -238.170232 
L 512.521852 -239.126002 
L 516.934908 -240.000973 
L 521.347963 -240.661331 
L 525.761019 -241.340377 
L 525.761019 -373.952847 
L 525.761019 -373.952847 
L 521.347963 -371.552617 
L 516.934908 -369.202509 
L 512.521852 -366.479077 
L 508.108796 -363.610578 
L 503.695741 -360.74208 
L 499.282685 -358.26175 
L 494.86963 -355.63711 
L 490.456574 -352.837106 
L 486.043519 -349.954281 
L 481.630463 -346.88874 
L 477.217407 -344.188586 
L 472.804352 -341.488432 
L 468.391296 -338.788279 
L 463.978241 -336.09592 
L 459.565185 -333.557341 
L 455.152129 -330.742801 
L 450.739074 -328.013759 
L 446.326018 -325.322176 
L 441.912963 -322.626015 
L 437.499907 -320.058878 
L 433.086851 -317.545398 
L 428.673796 -314.965576 
L 424.26074 -312.534997 
L 419.847685 -309.943735 
L 415.434629 -307.129114 
L 411.021574 -305.017476 
L 406.608518 -302.585275 
L 402.195462 -300.324858 
L 397.782407 -297.501706 
L 393.369351 -294.816167 
L 388.956296 -292.386773 
L 384.54324 -290.102602 
L 380.130184 -287.839227 
L 375.717129 -285.946208 
L 371.304073 -283.813338 
L 366.891018 -281.612509 
L 362.477962 -279.400251 
L 358.064907 -276.945135 
L 353.651851 -274.764478 
L 349.238795 -272.205655 
L 344.82574 -269.60598 
L 340.412684 -267.318348 
L 335.999629 -265.266388 
L 331.586573 -263.362248 
L 327.173517 -260.839811 
L 322.760462 -258.731577 
L 318.347406 -257.403401 
L 313.934351 -256.009492 
L 309.521295 -253.818787 
L 305.108239 -250.830285 
L 300.695184 -248.637652 
L 296.282128 -247.079337 
L 291.869073 -245.272353 
L 287.456017 -242.330592 
L 283.042962 -239.844799 
L 278.629906 -237.63805 
L 274.21685 -236.830353 
L 269.803795 -234.269079 
L 265.390739 -232.55414 
L 260.977684 -231.269813 
L 256.564628 -229.879459 
L 252.151572 -228.064701 
L 247.738517 -225.744311 
L 243.325461 -224.323863 
L 238.912406 -222.17002 
L 234.49935 -220.913098 
L 230.086295 -219.183894 
L 225.673239 -217.918933 
L 221.260183 -216.742305 
L 216.847128 -215.307006 
L 212.434072 -214.634823 
L 208.021017 -213.45854 
L 203.607961 -212.05489 
L 199.194905 -210.547533 
L 194.78185 -209.177212 
L 190.368794 -207.648739 
L 185.955739 -206.45214 
L 181.542683 -205.351771 
L 177.129627 -204.408393 
L 172.716572 -203.214427 
L 168.303516 -202.152415 
L 163.890461 -201.085464 
L 159.477405 -200.018512 
L 155.06435 -198.953121 
L 150.651294 -198.07132 
L 146.238238 -197.433054 
L 141.825183 -196.535128 
L 137.412127 -195.48889 
L 132.999072 -194.442652 
L 128.586016 -193.381598 
L 124.17296 -192.423324 
L 119.759905 -191.769679 
L 115.346849 -191.1175 
L 110.933794 -190.46532 
L 106.520738 -189.813141 
L 102.107683 -189.149481 
L 97.694627 -187.697358 
L 93.281571 -186.080667 
L 88.868516 -185.102506 
z
" style="stroke: #ffffff; stroke-opacity: 0.15"/>
    </defs>
    <g clip-path="url(#pca3ebb12b8)">
     <use xlink:href="#m81ad4e026d" x="0" y="432" style="fill: #4c72b0; fill-opacity: 0.15; stroke: #ffffff; stroke-opacity: 0.15"/>
    </g>
   </g>
   <g id="line2d_12">
    <path d="M 88.868516 298.081845 
L 93.281571 296.413096 
L 97.694627 294.744347 
L 102.107683 293.075598 
L 106.520738 291.406849 
L 110.933794 289.7381 
L 115.346849 288.069351 
L 119.759905 286.400603 
L 124.17296 284.731854 
L 128.586016 283.063105 
L 132.999072 281.394356 
L 137.412127 279.725607 
L 141.825183 278.056858 
L 146.238238 276.388109 
L 150.651294 274.719361 
L 155.06435 273.050612 
L 159.477405 271.381863 
L 163.890461 269.713114 
L 168.303516 268.044365 
L 172.716572 266.375616 
L 177.129627 264.706867 
L 181.542683 263.038119 
L 185.955739 261.36937 
L 190.368794 259.700621 
L 194.78185 258.031872 
L 199.194905 256.363123 
L 203.607961 254.694374 
L 208.021017 253.025625 
L 212.434072 251.356876 
L 216.847128 249.688128 
L 221.260183 248.019379 
L 225.673239 246.35063 
L 230.086295 244.681881 
L 234.49935 243.013132 
L 238.912406 241.344383 
L 243.325461 239.675634 
L 247.738517 238.006886 
L 252.151572 236.338137 
L 256.564628 234.669388 
L 260.977684 233.000639 
L 265.390739 231.33189 
L 269.803795 229.663141 
L 274.21685 227.994392 
L 278.629906 226.325644 
L 283.042962 224.656895 
L 287.456017 222.988146 
L 291.869073 221.319397 
L 296.282128 219.650648 
L 300.695184 217.981899 
L 305.108239 216.31315 
L 309.521295 214.644401 
L 313.934351 212.975653 
L 318.347406 211.306904 
L 322.760462 209.638155 
L 327.173517 207.969406 
L 331.586573 206.300657 
L 335.999629 204.631908 
L 340.412684 202.963159 
L 344.82574 201.294411 
L 349.238795 199.625662 
L 353.651851 197.956913 
L 358.064907 196.288164 
L 362.477962 194.619415 
L 366.891018 192.950666 
L 371.304073 191.281917 
L 375.717129 189.613168 
L 380.130184 187.94442 
L 384.54324 186.275671 
L 388.956296 184.606922 
L 393.369351 182.938173 
L 397.782407 181.269424 
L 402.195462 179.600675 
L 406.608518 177.931926 
L 411.021574 176.263178 
L 415.434629 174.594429 
L 419.847685 172.92568 
L 424.26074 171.256931 
L 428.673796 169.588182 
L 433.086851 167.919433 
L 437.499907 166.250684 
L 441.912963 164.581936 
L 446.326018 162.913187 
L 450.739074 161.244438 
L 455.152129 159.575689 
L 459.565185 157.90694 
L 463.978241 156.238191 
L 468.391296 154.569442 
L 472.804352 152.900693 
L 477.217407 151.231945 
L 481.630463 149.563196 
L 486.043519 147.894447 
L 490.456574 146.225698 
L 494.86963 144.556949 
L 499.282685 142.8882 
L 503.695741 141.219451 
L 508.108796 139.550703 
L 512.521852 137.881954 
L 516.934908 136.213205 
L 521.347963 134.544456 
L 525.761019 132.875707 
" clip-path="url(#pca3ebb12b8)" style="fill: none; stroke: #4c72b0; stroke-width: 2.25; stroke-linecap: round"/>
   </g>
   <g id="patch_3">
    <path d="M 67.023891 380.270504 
L 67.023891 30.096 
" style="fill: none; stroke: #cccccc; stroke-width: 1.25; stroke-linejoin: miter; stroke-linecap: square"/>
   </g>
   <g id="patch_4">
    <path d="M 547.605644 380.270504 
L 547.605644 30.096 
" style="fill: none; stroke: #cccccc; stroke-width: 1.25; stroke-linejoin: miter; stroke-linecap: square"/>
   </g>
   <g id="patch_5">
    <path d="M 67.023891 380.270504 
L 547.605644 380.270504 
" style="fill: none; stroke: #cccccc; stroke-width: 1.25; stroke-linejoin: miter; stroke-linecap: square"/>
   </g>
   <g id="patch_6">
    <path d="M 67.023891 30.096 
L 547.605644 30.096 
" style="fill: none; stroke: #cccccc; stroke-width: 1.25; stroke-linejoin: miter; stroke-linecap: square"/>
   </g>
   <g id="text_14">
    <!-- Chart 6: Budget vs Transmission Added (R²=0.45, r=0.67) -->
    <g style="fill: #262626" transform="translate(138.937424 24.096) scale(0.132 -0.132)">
     <defs>
      <path id="ArialMT-4b" d="M 422 0 
L 422 4581 
L 984 4581 
L 984 2938 
Q 1378 3394 1978 3394 
Q 2347 3394 2619 3248 
Q 2891 3103 3008 2847 
Q 3125 2591 3125 2103 
L 3125 0 
L 2563 0 
L 2563 2103 
Q 2563 2525 2380 2717 
Q 2197 2909 1863 2909 
Q 1613 2909 1392 2779 
Q 1172 2650 1078 2428 
Q 984 2206 984 1816 
L 984 0 
L 422 0 
z
" transform="scale(0.015625)"/>
      <path id="ArialMT-3" transform="scale(0.015625)"/>
      <path id="ArialMT-1d" d="M 578 2678 
L 578 3319 
L 1219 3319 
L 1219 2678 
L 578 2678 
z
M 578 0 
L 578 641 
L 1219 641 
L 1219 0 
L 578 0 
z
" transform="scale(0.015625)"/>
      <path id="ArialMT-b" d="M 1497 -1347 
Q 1031 -759 709 28 
Q 388 816 388 1659 
Q 388 2403 628 3084 
Q 909 3875 1497 4659 
L 1900 4659 
Q 1522 4009 1400 3731 
Q 1209 3300 1100 2831 
Q 966 2247 966 1656 
Q 966 153 1900 -1347 
L 1497 -1347 
z
" transform="scale(0.015625)"/>
      <path id="ArialMT-35" d="M 503 0 
L 503 4581 
L 2534 4581 
Q 3147 4581 3465 4457 
Q 3784 4334 3975 4021 
Q 4166 3709 4166 3331 
Q 4166 2844 3850 2509 
Q 3534 2175 2875 2084 
Q 3116 1969 3241 1856 
Q 3506 1613 3744 1247 
L 4541 0 
L 3778 0 
L 3172 953 
Q 2906 1366 2734 1584 
Q 2563 1803 2427 1890 
Q 2291 1978 2150 2013 
Q 2047 2034 1813 2034 
L 1109 2034 
L 1109 0 
L 503 0 
z
M 1109 2559 
L 2413 2559 
Q 2828 2559 3062 2645 
Q 3297 2731 3419 2920 
Q 3541 3109 3541 3331 
Q 3541 3656 3305 3865 
Q 3069 4075 2559 4075 
L 1109 4075 
L 1109 2559 
z
" transform="scale(0.015625)"/>
      <path id="ArialMT-f0" d="M 78 2291 
Q 97 2469 225 2647 
Q 422 2916 872 3242 
Q 1322 3569 1406 3663 
Q 1522 3791 1522 3925 
Q 1522 4075 1412 4172 
Q 1303 4269 1091 4269 
Q 884 4269 782 4195 
Q 681 4122 616 3913 
L 144 3963 
Q 234 4309 457 4473 
Q 681 4638 1100 4638 
Q 1572 4638 1792 4453 
Q 2013 4269 2013 4003 
Q 2013 3741 1828 3506 
Q 1688 3331 1188 2972 
Q 928 2781 819 2669 
L 2025 2669 
L 2025 2291 
L 78 2291 
z
" transform="scale(0.015625)"/>
      <path id="ArialMT-20" d="M 3381 2694 
L 356 2694 
L 356 3219 
L 3381 3219 
L 3381 2694 
z
M 3381 1303 
L 356 1303 
L 356 1828 
L 3381 1828 
L 3381 1303 
z
" transform="scale(0.015625)"/>
      <path id="ArialMT-11" d="M 581 0 
L 581 641 
L 1222 641 
L 1222 0 
L 581 0 
z
" transform="scale(0.015625)"/>
      <path id="ArialMT-f" d="M 569 0 
L 569 641 
L 1209 641 
L 1209 0 
Q 1209 -353 1084 -570 
Q 959 -788 688 -906 
L 531 -666 
Q 709 -588 793 -436 
Q 878 -284 888 0 
L 569 0 
z
" transform="scale(0.015625)"/>
      <path id="ArialMT-1a" d="M 303 3981 
L 303 4522 
L 3269 4522 
L 3269 4084 
Q 2831 3619 2401 2847 
Q 1972 2075 1738 1259 
Q 1569 684 1522 0 
L 944 0 
Q 953 541 1156 1306 
Q 1359 2072 1739 2783 
Q 2119 3494 2547 3981 
L 303 3981 
z
" transform="scale(0.015625)"/>
      <path id="ArialMT-c" d="M 791 -1347 
L 388 -1347 
Q 1322 153 1322 1656 
Q 1322 2244 1188 2822 
Q 1081 3291 891 3722 
Q 769 4003 388 4659 
L 791 4659 
Q 1378 3875 1659 3084 
Q 1900 2403 1900 1659 
Q 1900 816 1576 28 
Q 1253 -759 791 -1347 
z
" transform="scale(0.015625)"/>
     </defs>
     <use xlink:href="#ArialMT-26"/>
     <use xlink:href="#ArialMT-4b" transform="translate(72.21875 0)"/>
     <use xlink:href="#ArialMT-44" transform="translate(127.828125 0)"/>
     <use xlink:href="#ArialMT-55" transform="translate(183.4375 0)"/>
     <use xlink:href="#ArialMT-57" transform="translate(216.734375 0)"/>
     <use xlink:href="#ArialMT-3" transform="translate(244.515625 0)"/>
     <use xlink:href="#ArialMT-19" transform="translate(272.296875 0)"/>
     <use xlink:href="#ArialMT-1d" transform="translate(327.90625 0)"/>
     <use xlink:href="#ArialMT-3" transform="translate(355.6875 0)"/>
     <use xlink:href="#ArialMT-25" transform="translate(383.46875 0)"/>
     <use xlink:href="#ArialMT-58" transform="translate(450.171875 0)"/>
     <use xlink:href="#ArialMT-47" transform="translate(505.78125 0)"/>
     <use xlink:href="#ArialMT-4a" transform="translate(561.390625 0)"/>
     <use xlink:href="#ArialMT-48" transform="translate(617 0)"/>
     <use xlink:href="#ArialMT-57" transform="translate(672.609375 0)"/>
     <use xlink:href="#ArialMT-3" transform="translate(700.390625 0)"/>
     <use xlink:href="#ArialMT-59" transform="translate(728.171875 0)"/>
     <use xlink:href="#ArialMT-56" transform="translate(778.171875 0)"/>
     <use xlink:href="#ArialMT-3" transform="translate(828.171875 0)"/>
     <use xlink:href="#ArialMT-37" transform="translate(854.140625 0)"/>
     <use xlink:href="#ArialMT-55" transform="translate(911.515625 0)"/>
     <use xlink:href="#ArialMT-44" transform="translate(944.8125 0)"/>
     <use xlink:href="#ArialMT-51" transform="translate(1000.421875 0)"/>
     <use xlink:href="#ArialMT-56" transform="translate(1056.03125 0)"/>
     <use xlink:href="#ArialMT-50" transform="translate(1106.03125 0)"/>
     <use xlink:href="#ArialMT-4c" transform="translate(1189.328125 0)"/>
     <use xlink:href="#ArialMT-56" transform="translate(1211.546875 0)"/>
     <use xlink:href="#ArialMT-56" transform="translate(1261.546875 0)"/>
     <use xlink:href="#ArialMT-4c" transform="translate(1311.546875 0)"/>
     <use xlink:href="#ArialMT-52" transform="translate(1333.765625 0)"/>
     <use xlink:href="#ArialMT-51" transform="translate(1389.375 0)"/>
     <use xlink:href="#ArialMT-3" transform="translate(1444.984375 0)"/>
     <use xlink:href="#ArialMT-24" transform="translate(1467.25 0)"/>
     <use xlink:href="#ArialMT-47" transform="translate(1533.953125 0)"/>
     <use xlink:href="#ArialMT-47" transform="translate(1589.5625 0)"/>
     <use xlink:href="#ArialMT-48" transform="translate(1645.171875 0)"/>
     <use xlink:href="#ArialMT-47" transform="translate(1700.78125 0)"/>
     <use xlink:href="#ArialMT-3" transform="translate(1756.390625 0)"/>
     <use xlink:href="#ArialMT-b" transform="translate(1784.171875 0)"/>
     <use xlink:href="#ArialMT-35" transform="translate(1817.46875 0)"/>
     <use xlink:href="#ArialMT-f0" transform="translate(1889.6875 0)"/>
     <use xlink:href="#ArialMT-20" transform="translate(1922.984375 0)"/>
     <use xlink:href="#ArialMT-13" transform="translate(1981.390625 0)"/>
     <use xlink:href="#ArialMT-11" transform="translate(2037 0)"/>
     <use xlink:href="#ArialMT-17" transform="translate(2064.78125 0)"/>
     <use xlink:href="#ArialMT-18" transform="translate(2120.390625 0)"/>
     <use xlink:href="#ArialMT-f" transform="translate(2176 0)"/>
     <use xlink:href="#ArialMT-3" transform="translate(2203.78125 0)"/>
     <use xlink:href="#ArialMT-55" transform="translate(2231.5625 0)"/>
     <use xlink:href="#ArialMT-20" transform="translate(2264.859375 0)"/>
     <use xlink:href="#ArialMT-13" transform="translate(2323.265625 0)"/>
     <use xlink:href="#ArialMT-11" transform="translate(2378.875 0)"/>
     <use xlink:href="#ArialMT-19" transform="translate(2406.65625 0)"/>
     <use xlink:href="#ArialMT-1a" transform="translate(2462.265625 0)"/>
     <use xlink:href="#ArialMT-c" transform="translate(2517.875 0)"/>
    </g>
   </g>
  </g>
 </g>
 <defs>
  <clipPath id="pca3ebb12b8">
   <rect x="67.023891" y="30.096" width="480.581753" height="350.174504"/>
  </clipPath>
 </defs>
</svg>
