<?xml version="1.0" encoding="utf-8" standalone="no"?>
<!DOCTYPE svg PUBLIC "-//W3C//DTD SVG 1.1//EN"
  "http://www.w3.org/Graphics/SVG/1.1/DTD/svg11.dtd">
<svg xmlns:xlink="http://www.w3.org/1999/xlink" width="720pt" height="432pt" viewBox="0 0 720 432" xmlns="http://www.w3.org/2000/svg" version="1.1">
 <metadata>
  <rdf:RDF xmlns:dc="http://purl.org/dc/elements/1.1/" xmlns:cc="http://creativecommons.org/ns#" xmlns:rdf="http://www.w3.org/1999/02/22-rdf-syntax-ns#">
   <cc:Work>
    <dc:type rdf:resource="http://purl.org/dc/dcmitype/StillImage"/>
    <dc:date>2026-06-30T19:48:30.469778</dc:date>
    <dc:format>image/svg+xml</dc:format>
    <dc:creator>
     <cc:Agent>
      <dc:title>Matplotlib v3.11.0, https://matplotlib.org/</dc:title>
     </cc:Agent>
    </dc:creator>
   </cc:Work>
  </rdf:RDF>
 </metadata>
 <defs>
  <style type="text/css">*{stroke-linejoin: round; stroke-linecap: butt}</style>
 </defs>
 <g id="figure_1">
  <g id="patch_1">
   <path d="M 0 432 
L 720 432 
L 720 0 
L 0 0 
z
" style="fill: #ffffff"/>
  </g>
  <g id="axes_1">
   <g id="patch_2">
    <path d="M 73.97393 380.270504 
L 693.691073 380.270504 
L 693.691073 30.096 
L 73.97393 30.096 
z
" style="fill: #ffffff"/>
   </g>
   <g id="matplotlib.axis_1">
    <g id="xtick_1">
     <g id="line2d_1">
      <path d="M 103.818745 380.270504 
L 103.818745 30.096 
" clip-path="url(#pb155c699a1)" style="fill: none; stroke: #cccccc; stroke-linecap: round"/>
     </g>
     <g id="text_1">
      <!-- 5000 -->
      <g style="fill: #262626" transform="translate(90.361276 398.579635) scale(0.121 -0.121)">
       <defs>
        <path id="ArialMT-18" d="M 266 1200 
L 856 1250 
Q 922 819 1161 601 
Q 1400 384 1738 384 
Q 2144 384 2425 690 
Q 2706 997 2706 1503 
Q 2706 1984 2436 2262 
Q 2166 2541 1728 2541 
Q 1456 2541 1237 2417 
Q 1019 2294 894 2097 
L 366 2166 
L 809 4519 
L 3088 4519 
L 3088 3981 
L 1259 3981 
L 1013 2750 
Q 1425 3038 1878 3038 
Q 2478 3038 2890 2622 
Q 3303 2206 3303 1553 
Q 3303 931 2941 478 
Q 2500 -78 1738 -78 
Q 1113 -78 717 272 
Q 322 622 266 1200 
z
" transform="scale(0.015625)"/>
        <path id="ArialMT-13" d="M 266 2259 
Q 266 3072 433 3567 
Q 600 4063 929 4331 
Q 1259 4600 1759 4600 
Q 2128 4600 2406 4451 
Q 2684 4303 2865 4023 
Q 3047 3744 3150 3342 
Q 3253 2941 3253 2259 
Q 3253 1453 3087 958 
Q 2922 463 2592 192 
Q 2263 -78 1759 -78 
Q 1097 -78 719 397 
Q 266 969 266 2259 
z
M 844 2259 
Q 844 1131 1108 757 
Q 1372 384 1759 384 
Q 2147 384 2411 759 
Q 2675 1134 2675 2259 
Q 2675 3391 2411 3762 
Q 2147 4134 1753 4134 
Q 1366 4134 1134 3806 
Q 844 3388 844 2259 
z
" transform="scale(0.015625)"/>
       </defs>
       <use xlink:href="#ArialMT-18"/>
       <use xlink:href="#ArialMT-13" transform="translate(55.609375 0)"/>
       <use xlink:href="#ArialMT-13" transform="translate(111.21875 0)"/>
       <use xlink:href="#ArialMT-13" transform="translate(166.828125 0)"/>
      </g>
     </g>
    </g>
    <g id="xtick_2">
     <g id="line2d_2">
      <path d="M 201.252113 380.270504 
L 201.252113 30.096 
" clip-path="url(#pb155c699a1)" style="fill: none; stroke: #cccccc; stroke-linecap: round"/>
     </g>
     <g id="text_2">
      <!-- 10000 -->
      <g style="fill: #262626" transform="translate(184.430277 398.579635) scale(0.121 -0.121)">
       <defs>
        <path id="ArialMT-14" d="M 2384 0 
L 1822 0 
L 1822 3584 
Q 1619 3391 1289 3197 
Q 959 3003 697 2906 
L 697 3450 
Q 1169 3672 1522 3987 
Q 1875 4303 2022 4600 
L 2384 4600 
L 2384 0 
z
" transform="scale(0.015625)"/>
       </defs>
       <use xlink:href="#ArialMT-14"/>
       <use xlink:href="#ArialMT-13" transform="translate(55.609375 0)"/>
       <use xlink:href="#ArialMT-13" transform="translate(111.21875 0)"/>
       <use xlink:href="#ArialMT-13" transform="translate(166.828125 0)"/>
       <use xlink:href="#ArialMT-13" transform="translate(222.4375 0)"/>
      </g>
     </g>
    </g>
    <g id="xtick_3">
     <g id="line2d_3">
      <path d="M 298.685481 380.270504 
L 298.685481 30.096 
" clip-path="url(#pb155c699a1)" style="fill: none; stroke: #cccccc; stroke-linecap: round"/>
     </g>
     <g id="text_3">
      <!-- 15000 -->
      <g style="fill: #262626" transform="translate(281.863645 398.579635) scale(0.121 -0.121)">
       <use xlink:href="#ArialMT-14"/>
       <use xlink:href="#ArialMT-18" transform="translate(55.609375 0)"/>
       <use xlink:href="#ArialMT-13" transform="translate(111.21875 0)"/>
       <use xlink:href="#ArialMT-13" transform="translate(166.828125 0)"/>
       <use xlink:href="#ArialMT-13" transform="translate(222.4375 0)"/>
      </g>
     </g>
    </g>
    <g id="xtick_4">
     <g id="line2d_4">
      <path d="M 396.118849 380.270504 
L 396.118849 30.096 
" clip-path="url(#pb155c699a1)" style="fill: none; stroke: #cccccc; stroke-linecap: round"/>
     </g>
     <g id="text_4">
      <!-- 20000 -->
      <g style="fill: #262626" transform="translate(379.297013 398.579635) scale(0.121 -0.121)">
       <defs>
        <path id="ArialMT-15" d="M 3222 541 
L 3222 0 
L 194 0 
Q 188 203 259 391 
Q 375 700 629 1000 
Q 884 1300 1366 1694 
Q 2113 2306 2375 2664 
Q 2638 3022 2638 3341 
Q 2638 3675 2398 3904 
Q 2159 4134 1775 4134 
Q 1369 4134 1125 3890 
Q 881 3647 878 3216 
L 300 3275 
Q 359 3922 746 4261 
Q 1134 4600 1788 4600 
Q 2447 4600 2831 4234 
Q 3216 3869 3216 3328 
Q 3216 3053 3103 2787 
Q 2991 2522 2730 2228 
Q 2469 1934 1863 1422 
Q 1356 997 1212 845 
Q 1069 694 975 541 
L 3222 541 
z
" transform="scale(0.015625)"/>
       </defs>
       <use xlink:href="#ArialMT-15"/>
       <use xlink:href="#ArialMT-13" transform="translate(55.609375 0)"/>
       <use xlink:href="#ArialMT-13" transform="translate(111.21875 0)"/>
       <use xlink:href="#ArialMT-13" transform="translate(166.828125 0)"/>
       <use xlink:href="#ArialMT-13" transform="translate(222.4375 0)"/>
      </g>
     </g>
    </g>
    <g id="xtick_5">
     <g id="line2d_5">
      <path d="M 493.552217 380.270504 
L 493.552217 30.096 
" clip-path="url(#pb155c699a1)" style="fill: none; stroke: #cccccc; stroke-linecap: round"/>
     </g>
     <g id="text_5">
      <!-- 25000 -->
      <g style="fill: #262626" transform="translate(476.730381 398.579635) scale(0.121 -0.121)">
       <use xlink:href="#ArialMT-15"/>
       <use xlink:href="#ArialMT-18" transform="translate(55.609375 0)"/>
       <use xlink:href="#ArialMT-13" transform="translate(111.21875 0)"/>
       <use xlink:href="#ArialMT-13" transform="translate(166.828125 0)"/>
       <use xlink:href="#ArialMT-13" transform="translate(222.4375 0)"/>
      </g>
     </g>
    </g>
    <g id="xtick_6">
     <g id="line2d_6">
      <path d="M 590.985586 380.270504 
L 590.985586 30.096 
" clip-path="url(#pb155c699a1)" style="fill: none; stroke: #cccccc; stroke-linecap: round"/>
     </g>
     <g id="text_6">
      <!-- 30000 -->
      <g style="fill: #262626" transform="translate(574.16375 398.579635) scale(0.121 -0.121)">
       <defs>
        <path id="ArialMT-16" d="M 269 1209 
L 831 1284 
Q 928 806 1161 595 
Q 1394 384 1728 384 
Q 2125 384 2398 659 
Q 2672 934 2672 1341 
Q 2672 1728 2419 1979 
Q 2166 2231 1775 2231 
Q 1616 2231 1378 2169 
L 1441 2663 
Q 1497 2656 1531 2656 
Q 1891 2656 2178 2843 
Q 2466 3031 2466 3422 
Q 2466 3731 2256 3934 
Q 2047 4138 1716 4138 
Q 1388 4138 1169 3931 
Q 950 3725 888 3313 
L 325 3413 
Q 428 3978 793 4289 
Q 1159 4600 1703 4600 
Q 2078 4600 2393 4439 
Q 2709 4278 2876 4000 
Q 3044 3722 3044 3409 
Q 3044 3113 2884 2869 
Q 2725 2625 2413 2481 
Q 2819 2388 3044 2092 
Q 3269 1797 3269 1353 
Q 3269 753 2831 336 
Q 2394 -81 1725 -81 
Q 1122 -81 723 278 
Q 325 638 269 1209 
z
" transform="scale(0.015625)"/>
       </defs>
       <use xlink:href="#ArialMT-16"/>
       <use xlink:href="#ArialMT-13" transform="translate(55.609375 0)"/>
       <use xlink:href="#ArialMT-13" transform="translate(111.21875 0)"/>
       <use xlink:href="#ArialMT-13" transform="translate(166.828125 0)"/>
       <use xlink:href="#ArialMT-13" transform="translate(222.4375 0)"/>
      </g>
     </g>
    </g>
    <g id="xtick_7">
     <g id="line2d_7">
      <path d="M 688.418954 380.270504 
L 688.418954 30.096 
" clip-path="url(#pb155c699a1)" style="fill: none; stroke: #cccccc; stroke-linecap: round"/>
     </g>
     <g id="text_7">
      <!-- 35000 -->
      <g style="fill: #262626" transform="translate(671.597118 398.579635) scale(0.121 -0.121)">
       <use xlink:href="#ArialMT-16"/>
       <use xlink:href="#ArialMT-18" transform="translate(55.609375 0)"/>
       <use xlink:href="#ArialMT-13" transform="translate(111.21875 0)"/>
       <use xlink:href="#ArialMT-13" transform="translate(166.828125 0)"/>
       <use xlink:href="#ArialMT-13" transform="translate(222.4375 0)"/>
      </g>
     </g>
    </g>
    <g id="text_8">
     <!-- Power Division Budget (Tk Crore) -->
     <g style="fill: #262626" transform="translate(285.539939 414.736031) scale(0.132 -0.132)">
      <defs>
       <path id="ArialMT-33" d="M 494 0 
L 494 4581 
L 2222 4581 
Q 2678 4581 2919 4538 
Q 3256 4481 3484 4323 
Q 3713 4166 3852 3881 
Q 3991 3597 3991 3256 
Q 3991 2672 3619 2267 
Q 3247 1863 2275 1863 
L 1100 1863 
L 1100 0 
L 494 0 
z
M 1100 2403 
L 2284 2403 
Q 2872 2403 3119 2622 
Q 3366 2841 3366 3238 
Q 3366 3525 3220 3729 
Q 3075 3934 2838 4000 
Q 2684 4041 2272 4041 
L 1100 4041 
L 1100 2403 
z
" transform="scale(0.015625)"/>
       <path id="ArialMT-52" d="M 213 1659 
Q 213 2581 725 3025 
Q 1153 3394 1769 3394 
Q 2453 3394 2887 2945 
Q 3322 2497 3322 1706 
Q 3322 1066 3130 698 
Q 2938 331 2570 128 
Q 2203 -75 1769 -75 
Q 1072 -75 642 372 
Q 213 819 213 1659 
z
M 791 1659 
Q 791 1022 1069 705 
Q 1347 388 1769 388 
Q 2188 388 2466 706 
Q 2744 1025 2744 1678 
Q 2744 2294 2464 2611 
Q 2184 2928 1769 2928 
Q 1347 2928 1069 2612 
Q 791 2297 791 1659 
z
" transform="scale(0.015625)"/>
       <path id="ArialMT-5a" d="M 1034 0 
L 19 3319 
L 600 3319 
L 1128 1403 
L 1325 691 
Q 1338 744 1497 1375 
L 2025 3319 
L 2603 3319 
L 3100 1394 
L 3266 759 
L 3456 1400 
L 4025 3319 
L 4572 3319 
L 3534 0 
L 2950 0 
L 2422 1988 
L 2294 2553 
L 1622 0 
L 1034 0 
z
" transform="scale(0.015625)"/>
       <path id="ArialMT-48" d="M 2694 1069 
L 3275 997 
Q 3138 488 2766 206 
Q 2394 -75 1816 -75 
Q 1088 -75 661 373 
Q 234 822 234 1631 
Q 234 2469 665 2931 
Q 1097 3394 1784 3394 
Q 2450 3394 2872 2941 
Q 3294 2488 3294 1666 
Q 3294 1616 3291 1516 
L 816 1516 
Q 847 969 1125 678 
Q 1403 388 1819 388 
Q 2128 388 2347 550 
Q 2566 713 2694 1069 
z
M 847 1978 
L 2700 1978 
Q 2663 2397 2488 2606 
Q 2219 2931 1791 2931 
Q 1403 2931 1139 2672 
Q 875 2413 847 1978 
z
" transform="scale(0.015625)"/>
       <path id="ArialMT-55" d="M 416 0 
L 416 3319 
L 922 3319 
L 922 2816 
Q 1116 3169 1280 3281 
Q 1444 3394 1641 3394 
Q 1925 3394 2219 3213 
L 2025 2691 
Q 1819 2813 1613 2813 
Q 1428 2813 1281 2702 
Q 1134 2591 1072 2394 
Q 978 2094 978 1738 
L 978 0 
L 416 0 
z
" transform="scale(0.015625)"/>
       <path id="ArialMT-3" transform="scale(0.015625)"/>
       <path id="ArialMT-27" d="M 494 0 
L 494 4581 
L 2072 4581 
Q 2606 4581 2888 4516 
Q 3281 4425 3559 4188 
Q 3922 3881 4101 3404 
Q 4281 2928 4281 2316 
Q 4281 1794 4159 1391 
Q 4038 988 3847 723 
Q 3656 459 3429 307 
Q 3203 156 2883 78 
Q 2563 0 2147 0 
L 494 0 
z
M 1100 541 
L 2078 541 
Q 2531 541 2789 625 
Q 3047 709 3200 863 
Q 3416 1078 3536 1442 
Q 3656 1806 3656 2325 
Q 3656 3044 3420 3430 
Q 3184 3816 2847 3947 
Q 2603 4041 2063 4041 
L 1100 4041 
L 1100 541 
z
" transform="scale(0.015625)"/>
       <path id="ArialMT-4c" d="M 425 3934 
L 425 4581 
L 988 4581 
L 988 3934 
L 425 3934 
z
M 425 0 
L 425 3319 
L 988 3319 
L 988 0 
L 425 0 
z
" transform="scale(0.015625)"/>
       <path id="ArialMT-59" d="M 1344 0 
L 81 3319 
L 675 3319 
L 1388 1331 
Q 1503 1009 1600 663 
Q 1675 925 1809 1294 
L 2547 3319 
L 3125 3319 
L 1869 0 
L 1344 0 
z
" transform="scale(0.015625)"/>
       <path id="ArialMT-56" d="M 197 991 
L 753 1078 
Q 800 744 1014 566 
Q 1228 388 1613 388 
Q 2000 388 2187 545 
Q 2375 703 2375 916 
Q 2375 1106 2209 1216 
Q 2094 1291 1634 1406 
Q 1016 1563 777 1677 
Q 538 1791 414 1992 
Q 291 2194 291 2438 
Q 291 2659 392 2848 
Q 494 3038 669 3163 
Q 800 3259 1026 3326 
Q 1253 3394 1513 3394 
Q 1903 3394 2198 3281 
Q 2494 3169 2634 2976 
Q 2775 2784 2828 2463 
L 2278 2388 
Q 2241 2644 2061 2787 
Q 1881 2931 1553 2931 
Q 1166 2931 1000 2803 
Q 834 2675 834 2503 
Q 834 2394 903 2306 
Q 972 2216 1119 2156 
Q 1203 2125 1616 2013 
Q 2213 1853 2448 1751 
Q 2684 1650 2818 1456 
Q 2953 1263 2953 975 
Q 2953 694 2789 445 
Q 2625 197 2315 61 
Q 2006 -75 1616 -75 
Q 969 -75 630 194 
Q 291 463 197 991 
z
" transform="scale(0.015625)"/>
       <path id="ArialMT-51" d="M 422 0 
L 422 3319 
L 928 3319 
L 928 2847 
Q 1294 3394 1984 3394 
Q 2284 3394 2536 3286 
Q 2788 3178 2913 3003 
Q 3038 2828 3088 2588 
Q 3119 2431 3119 2041 
L 3119 0 
L 2556 0 
L 2556 2019 
Q 2556 2363 2490 2533 
Q 2425 2703 2258 2804 
Q 2091 2906 1866 2906 
Q 1506 2906 1245 2678 
Q 984 2450 984 1813 
L 984 0 
L 422 0 
z
" transform="scale(0.015625)"/>
       <path id="ArialMT-25" d="M 469 0 
L 469 4581 
L 2188 4581 
Q 2713 4581 3030 4442 
Q 3347 4303 3526 4014 
Q 3706 3725 3706 3409 
Q 3706 3116 3547 2856 
Q 3388 2597 3066 2438 
Q 3481 2316 3704 2022 
Q 3928 1728 3928 1328 
Q 3928 1006 3792 729 
Q 3656 453 3456 303 
Q 3256 153 2954 76 
Q 2653 0 2216 0 
L 469 0 
z
M 1075 2656 
L 2066 2656 
Q 2469 2656 2644 2709 
Q 2875 2778 2992 2937 
Q 3109 3097 3109 3338 
Q 3109 3566 3000 3739 
Q 2891 3913 2687 3977 
Q 2484 4041 1991 4041 
L 1075 4041 
L 1075 2656 
z
M 1075 541 
L 2216 541 
Q 2509 541 2628 563 
Q 2838 600 2978 687 
Q 3119 775 3209 942 
Q 3300 1109 3300 1328 
Q 3300 1584 3169 1773 
Q 3038 1963 2805 2039 
Q 2572 2116 2134 2116 
L 1075 2116 
L 1075 541 
z
" transform="scale(0.015625)"/>
       <path id="ArialMT-58" d="M 2597 0 
L 2597 488 
Q 2209 -75 1544 -75 
Q 1250 -75 995 37 
Q 741 150 617 320 
Q 494 491 444 738 
Q 409 903 409 1263 
L 409 3319 
L 972 3319 
L 972 1478 
Q 972 1038 1006 884 
Q 1059 663 1231 536 
Q 1403 409 1656 409 
Q 1909 409 2131 539 
Q 2353 669 2445 892 
Q 2538 1116 2538 1541 
L 2538 3319 
L 3100 3319 
L 3100 0 
L 2597 0 
z
" transform="scale(0.015625)"/>
       <path id="ArialMT-47" d="M 2575 0 
L 2575 419 
Q 2259 -75 1647 -75 
Q 1250 -75 917 144 
Q 584 363 401 755 
Q 219 1147 219 1656 
Q 219 2153 384 2558 
Q 550 2963 881 3178 
Q 1213 3394 1622 3394 
Q 1922 3394 2156 3267 
Q 2391 3141 2538 2938 
L 2538 4581 
L 3097 4581 
L 3097 0 
L 2575 0 
z
M 797 1656 
Q 797 1019 1065 703 
Q 1334 388 1700 388 
Q 2069 388 2326 689 
Q 2584 991 2584 1609 
Q 2584 2291 2321 2609 
Q 2059 2928 1675 2928 
Q 1300 2928 1048 2622 
Q 797 2316 797 1656 
z
" transform="scale(0.015625)"/>
       <path id="ArialMT-4a" d="M 319 -275 
L 866 -356 
Q 900 -609 1056 -725 
Q 1266 -881 1628 -881 
Q 2019 -881 2231 -725 
Q 2444 -569 2519 -288 
Q 2563 -116 2559 434 
Q 2191 0 1641 0 
Q 956 0 581 494 
Q 206 988 206 1678 
Q 206 2153 378 2554 
Q 550 2956 876 3175 
Q 1203 3394 1644 3394 
Q 2231 3394 2613 2919 
L 2613 3319 
L 3131 3319 
L 3131 450 
Q 3131 -325 2973 -648 
Q 2816 -972 2473 -1159 
Q 2131 -1347 1631 -1347 
Q 1038 -1347 672 -1080 
Q 306 -813 319 -275 
z
M 784 1719 
Q 784 1066 1043 766 
Q 1303 466 1694 466 
Q 2081 466 2343 764 
Q 2606 1063 2606 1700 
Q 2606 2309 2336 2618 
Q 2066 2928 1684 2928 
Q 1309 2928 1046 2623 
Q 784 2319 784 1719 
z
" transform="scale(0.015625)"/>
       <path id="ArialMT-57" d="M 1650 503 
L 1731 6 
Q 1494 -44 1306 -44 
Q 1000 -44 831 53 
Q 663 150 594 308 
Q 525 466 525 972 
L 525 2881 
L 113 2881 
L 113 3319 
L 525 3319 
L 525 4141 
L 1084 4478 
L 1084 3319 
L 1650 3319 
L 1650 2881 
L 1084 2881 
L 1084 941 
Q 1084 700 1114 631 
Q 1144 563 1211 522 
Q 1278 481 1403 481 
Q 1497 481 1650 503 
z
" transform="scale(0.015625)"/>
       <path id="ArialMT-b" d="M 1497 -1347 
Q 1031 -759 709 28 
Q 388 816 388 1659 
Q 388 2403 628 3084 
Q 909 3875 1497 4659 
L 1900 4659 
Q 1522 4009 1400 3731 
Q 1209 3300 1100 2831 
Q 966 2247 966 1656 
Q 966 153 1900 -1347 
L 1497 -1347 
z
" transform="scale(0.015625)"/>
       <path id="ArialMT-37" d="M 1659 0 
L 1659 4041 
L 150 4041 
L 150 4581 
L 3781 4581 
L 3781 4041 
L 2266 4041 
L 2266 0 
L 1659 0 
z
" transform="scale(0.015625)"/>
       <path id="ArialMT-4e" d="M 425 0 
L 425 4581 
L 988 4581 
L 988 1969 
L 2319 3319 
L 3047 3319 
L 1778 2088 
L 3175 0 
L 2481 0 
L 1384 1697 
L 988 1316 
L 988 0 
L 425 0 
z
" transform="scale(0.015625)"/>
       <path id="ArialMT-26" d="M 3763 1606 
L 4369 1453 
Q 4178 706 3683 314 
Q 3188 -78 2472 -78 
Q 1731 -78 1267 223 
Q 803 525 561 1097 
Q 319 1669 319 2325 
Q 319 3041 592 3573 
Q 866 4106 1370 4382 
Q 1875 4659 2481 4659 
Q 3169 4659 3637 4309 
Q 4106 3959 4291 3325 
L 3694 3184 
Q 3534 3684 3231 3912 
Q 2928 4141 2469 4141 
Q 1941 4141 1586 3887 
Q 1231 3634 1087 3207 
Q 944 2781 944 2328 
Q 944 1744 1114 1308 
Q 1284 872 1643 656 
Q 2003 441 2422 441 
Q 2931 441 3284 734 
Q 3638 1028 3763 1606 
z
" transform="scale(0.015625)"/>
       <path id="ArialMT-c" d="M 791 -1347 
L 388 -1347 
Q 1322 153 1322 1656 
Q 1322 2244 1188 2822 
Q 1081 3291 891 3722 
Q 769 4003 388 4659 
L 791 4659 
Q 1378 3875 1659 3084 
Q 1900 2403 1900 1659 
Q 1900 816 1576 28 
Q 1253 -759 791 -1347 
z
" transform="scale(0.015625)"/>
      </defs>
      <use xlink:href="#ArialMT-33"/>
      <use xlink:href="#ArialMT-52" transform="translate(66.703125 0)"/>
      <use xlink:href="#ArialMT-5a" transform="translate(122.3125 0)"/>
      <use xlink:href="#ArialMT-48" transform="translate(194.53125 0)"/>
      <use xlink:href="#ArialMT-55" transform="translate(250.140625 0)"/>
      <use xlink:href="#ArialMT-3" transform="translate(283.4375 0)"/>
      <use xlink:href="#ArialMT-27" transform="translate(311.21875 0)"/>
      <use xlink:href="#ArialMT-4c" transform="translate(383.4375 0)"/>
      <use xlink:href="#ArialMT-59" transform="translate(405.65625 0)"/>
      <use xlink:href="#ArialMT-4c" transform="translate(455.65625 0)"/>
      <use xlink:href="#ArialMT-56" transform="translate(477.875 0)"/>
      <use xlink:href="#ArialMT-4c" transform="translate(527.875 0)"/>
      <use xlink:href="#ArialMT-52" transform="translate(550.09375 0)"/>
      <use xlink:href="#ArialMT-51" transform="translate(605.703125 0)"/>
      <use xlink:href="#ArialMT-3" transform="translate(661.3125 0)"/>
      <use xlink:href="#ArialMT-25" transform="translate(689.09375 0)"/>
      <use xlink:href="#ArialMT-58" transform="translate(755.796875 0)"/>
      <use xlink:href="#ArialMT-47" transform="translate(811.40625 0)"/>
      <use xlink:href="#ArialMT-4a" transform="translate(867.015625 0)"/>
      <use xlink:href="#ArialMT-48" transform="translate(922.625 0)"/>
      <use xlink:href="#ArialMT-57" transform="translate(978.234375 0)"/>
      <use xlink:href="#ArialMT-3" transform="translate(1006.015625 0)"/>
      <use xlink:href="#ArialMT-b" transform="translate(1033.796875 0)"/>
      <use xlink:href="#ArialMT-37" transform="translate(1067.09375 0)"/>
      <use xlink:href="#ArialMT-4e" transform="translate(1128.171875 0)"/>
      <use xlink:href="#ArialMT-3" transform="translate(1178.171875 0)"/>
      <use xlink:href="#ArialMT-26" transform="translate(1205.953125 0)"/>
      <use xlink:href="#ArialMT-55" transform="translate(1278.171875 0)"/>
      <use xlink:href="#ArialMT-52" transform="translate(1311.46875 0)"/>
      <use xlink:href="#ArialMT-55" transform="translate(1367.078125 0)"/>
      <use xlink:href="#ArialMT-48" transform="translate(1400.375 0)"/>
      <use xlink:href="#ArialMT-c" transform="translate(1455.984375 0)"/>
     </g>
    </g>
   </g>
   <g id="matplotlib.axis_2">
    <g id="ytick_1">
     <g id="line2d_8">
      <path d="M 73.97393 364.353481 
L 693.691073 364.353481 
" clip-path="url(#pb155c699a1)" style="fill: none; stroke: #cccccc; stroke-linecap: round"/>
     </g>
     <g id="text_9">
      <!-- 0 -->
      <g style="fill: #262626" transform="translate(57.745195 368.758046) scale(0.121 -0.121)">
       <use xlink:href="#ArialMT-13"/>
      </g>
     </g>
    </g>
    <g id="ytick_2">
     <g id="line2d_9">
      <path d="M 73.97393 309.489103 
L 693.691073 309.489103 
" clip-path="url(#pb155c699a1)" style="fill: none; stroke: #cccccc; stroke-linecap: round"/>
     </g>
     <g id="text_10">
      <!-- 5000 -->
      <g style="fill: #262626" transform="translate(37.558992 313.893668) scale(0.121 -0.121)">
       <use xlink:href="#ArialMT-18"/>
       <use xlink:href="#ArialMT-13" transform="translate(55.609375 0)"/>
       <use xlink:href="#ArialMT-13" transform="translate(111.21875 0)"/>
       <use xlink:href="#ArialMT-13" transform="translate(166.828125 0)"/>
      </g>
     </g>
    </g>
    <g id="ytick_3">
     <g id="line2d_10">
      <path d="M 73.97393 254.624725 
L 693.691073 254.624725 
" clip-path="url(#pb155c699a1)" style="fill: none; stroke: #cccccc; stroke-linecap: round"/>
     </g>
     <g id="text_11">
      <!-- 10000 -->
      <g style="fill: #262626" transform="translate(30.830258 259.029291) scale(0.121 -0.121)">
       <use xlink:href="#ArialMT-14"/>
       <use xlink:href="#ArialMT-13" transform="translate(55.609375 0)"/>
       <use xlink:href="#ArialMT-13" transform="translate(111.21875 0)"/>
       <use xlink:href="#ArialMT-13" transform="translate(166.828125 0)"/>
       <use xlink:href="#ArialMT-13" transform="translate(222.4375 0)"/>
      </g>
     </g>
    </g>
    <g id="ytick_4">
     <g id="line2d_11">
      <path d="M 73.97393 199.760347 
L 693.691073 199.760347 
" clip-path="url(#pb155c699a1)" style="fill: none; stroke: #cccccc; stroke-linecap: round"/>
     </g>
     <g id="text_12">
      <!-- 15000 -->
      <g style="fill: #262626" transform="translate(30.830258 204.164913) scale(0.121 -0.121)">
       <use xlink:href="#ArialMT-14"/>
       <use xlink:href="#ArialMT-18" transform="translate(55.609375 0)"/>
       <use xlink:href="#ArialMT-13" transform="translate(111.21875 0)"/>
       <use xlink:href="#ArialMT-13" transform="translate(166.828125 0)"/>
       <use xlink:href="#ArialMT-13" transform="translate(222.4375 0)"/>
      </g>
     </g>
    </g>
    <g id="ytick_5">
     <g id="line2d_12">
      <path d="M 73.97393 144.895969 
L 693.691073 144.895969 
" clip-path="url(#pb155c699a1)" style="fill: none; stroke: #cccccc; stroke-linecap: round"/>
     </g>
     <g id="text_13">
      <!-- 20000 -->
      <g style="fill: #262626" transform="translate(30.830258 149.300535) scale(0.121 -0.121)">
       <use xlink:href="#ArialMT-15"/>
       <use xlink:href="#ArialMT-13" transform="translate(55.609375 0)"/>
       <use xlink:href="#ArialMT-13" transform="translate(111.21875 0)"/>
       <use xlink:href="#ArialMT-13" transform="translate(166.828125 0)"/>
       <use xlink:href="#ArialMT-13" transform="translate(222.4375 0)"/>
      </g>
     </g>
    </g>
    <g id="ytick_6">
     <g id="line2d_13">
      <path d="M 73.97393 90.031591 
L 693.691073 90.031591 
" clip-path="url(#pb155c699a1)" style="fill: none; stroke: #cccccc; stroke-linecap: round"/>
     </g>
     <g id="text_14">
      <!-- 25000 -->
      <g style="fill: #262626" transform="translate(30.830258 94.436157) scale(0.121 -0.121)">
       <use xlink:href="#ArialMT-15"/>
       <use xlink:href="#ArialMT-18" transform="translate(55.609375 0)"/>
       <use xlink:href="#ArialMT-13" transform="translate(111.21875 0)"/>
       <use xlink:href="#ArialMT-13" transform="translate(166.828125 0)"/>
       <use xlink:href="#ArialMT-13" transform="translate(222.4375 0)"/>
      </g>
     </g>
    </g>
    <g id="ytick_7">
     <g id="line2d_14">
      <path d="M 73.97393 35.167213 
L 693.691073 35.167213 
" clip-path="url(#pb155c699a1)" style="fill: none; stroke: #cccccc; stroke-linecap: round"/>
     </g>
     <g id="text_15">
      <!-- 30000 -->
      <g style="fill: #262626" transform="translate(30.830258 39.571779) scale(0.121 -0.121)">
       <use xlink:href="#ArialMT-16"/>
       <use xlink:href="#ArialMT-13" transform="translate(55.609375 0)"/>
       <use xlink:href="#ArialMT-13" transform="translate(111.21875 0)"/>
       <use xlink:href="#ArialMT-13" transform="translate(166.828125 0)"/>
       <use xlink:href="#ArialMT-13" transform="translate(222.4375 0)"/>
      </g>
     </g>
    </g>
    <g id="text_16">
     <!-- Weighted Grid Index -->
     <g style="fill: #262626" transform="translate(24.05207 265.223658) rotate(-90) scale(0.132 -0.132)">
      <defs>
       <path id="ArialMT-3a" d="M 1294 0 
L 78 4581 
L 700 4581 
L 1397 1578 
Q 1509 1106 1591 641 
Q 1766 1375 1797 1488 
L 2669 4581 
L 3400 4581 
L 4056 2263 
Q 4303 1400 4413 641 
Q 4500 1075 4641 1638 
L 5359 4581 
L 5969 4581 
L 4713 0 
L 4128 0 
L 3163 3491 
Q 3041 3928 3019 4028 
Q 2947 3713 2884 3491 
L 1913 0 
L 1294 0 
z
" transform="scale(0.015625)"/>
       <path id="ArialMT-4b" d="M 422 0 
L 422 4581 
L 984 4581 
L 984 2938 
Q 1378 3394 1978 3394 
Q 2347 3394 2619 3248 
Q 2891 3103 3008 2847 
Q 3125 2591 3125 2103 
L 3125 0 
L 2563 0 
L 2563 2103 
Q 2563 2525 2380 2717 
Q 2197 2909 1863 2909 
Q 1613 2909 1392 2779 
Q 1172 2650 1078 2428 
Q 984 2206 984 1816 
L 984 0 
L 422 0 
z
" transform="scale(0.015625)"/>
       <path id="ArialMT-2a" d="M 2638 1797 
L 2638 2334 
L 4578 2338 
L 4578 638 
Q 4131 281 3656 101 
Q 3181 -78 2681 -78 
Q 2006 -78 1454 211 
Q 903 500 622 1047 
Q 341 1594 341 2269 
Q 341 2938 620 3517 
Q 900 4097 1425 4378 
Q 1950 4659 2634 4659 
Q 3131 4659 3532 4498 
Q 3934 4338 4162 4050 
Q 4391 3763 4509 3300 
L 3963 3150 
Q 3859 3500 3706 3700 
Q 3553 3900 3268 4020 
Q 2984 4141 2638 4141 
Q 2222 4141 1919 4014 
Q 1616 3888 1430 3681 
Q 1244 3475 1141 3228 
Q 966 2803 966 2306 
Q 966 1694 1177 1281 
Q 1388 869 1791 669 
Q 2194 469 2647 469 
Q 3041 469 3416 620 
Q 3791 772 3984 944 
L 3984 1797 
L 2638 1797 
z
" transform="scale(0.015625)"/>
       <path id="ArialMT-2c" d="M 597 0 
L 597 4581 
L 1203 4581 
L 1203 0 
L 597 0 
z
" transform="scale(0.015625)"/>
       <path id="ArialMT-5b" d="M 47 0 
L 1259 1725 
L 138 3319 
L 841 3319 
L 1350 2541 
Q 1494 2319 1581 2169 
Q 1719 2375 1834 2534 
L 2394 3319 
L 3066 3319 
L 1919 1756 
L 3153 0 
L 2463 0 
L 1781 1031 
L 1600 1309 
L 728 0 
L 47 0 
z
" transform="scale(0.015625)"/>
      </defs>
      <use xlink:href="#ArialMT-3a"/>
      <use xlink:href="#ArialMT-48" transform="translate(92.578125 0)"/>
      <use xlink:href="#ArialMT-4c" transform="translate(148.1875 0)"/>
      <use xlink:href="#ArialMT-4a" transform="translate(170.40625 0)"/>
      <use xlink:href="#ArialMT-4b" transform="translate(226.015625 0)"/>
      <use xlink:href="#ArialMT-57" transform="translate(281.625 0)"/>
      <use xlink:href="#ArialMT-48" transform="translate(309.40625 0)"/>
      <use xlink:href="#ArialMT-47" transform="translate(365.015625 0)"/>
      <use xlink:href="#ArialMT-3" transform="translate(420.625 0)"/>
      <use xlink:href="#ArialMT-2a" transform="translate(448.40625 0)"/>
      <use xlink:href="#ArialMT-55" transform="translate(526.1875 0)"/>
      <use xlink:href="#ArialMT-4c" transform="translate(559.484375 0)"/>
      <use xlink:href="#ArialMT-47" transform="translate(581.703125 0)"/>
      <use xlink:href="#ArialMT-3" transform="translate(637.3125 0)"/>
      <use xlink:href="#ArialMT-2c" transform="translate(665.09375 0)"/>
      <use xlink:href="#ArialMT-51" transform="translate(692.875 0)"/>
      <use xlink:href="#ArialMT-47" transform="translate(748.484375 0)"/>
      <use xlink:href="#ArialMT-48" transform="translate(804.09375 0)"/>
      <use xlink:href="#ArialMT-5b" transform="translate(859.703125 0)"/>
     </g>
    </g>
   </g>
   <g id="PathCollection_1">
    <path d="M 102.142891 369.298175 
C 103.454239 369.298175 104.712054 368.777171 105.639318 367.849908 
C 106.566581 366.922645 107.087585 365.664829 107.087585 364.353481 
C 107.087585 363.042133 106.566581 361.784317 105.639318 360.857054 
C 104.712054 359.929791 103.454239 359.408787 102.142891 359.408787 
C 100.831543 359.408787 99.573727 359.929791 98.646464 360.857054 
C 97.719201 361.784317 97.198197 363.042133 97.198197 364.353481 
C 97.198197 365.664829 97.719201 366.922645 98.646464 367.849908 
C 99.573727 368.777171 100.831543 369.298175 102.142891 369.298175 
z
" clip-path="url(#pb155c699a1)" style="fill: #ffa500; fill-opacity: 0.5; stroke: #ffa500; stroke-opacity: 0.5"/>
    <path d="M 138.446564 369.860749 
C 139.907108 369.860749 141.308029 369.280468 142.34079 368.247707 
C 143.373551 367.214947 143.953832 365.814026 143.953832 364.353481 
C 143.953832 362.892936 143.373551 361.492015 142.34079 360.459255 
C 141.308029 359.426494 139.907108 358.846213 138.446564 358.846213 
C 136.986019 358.846213 135.585098 359.426494 134.552337 360.459255 
C 133.519576 361.492015 132.939296 362.892936 132.939296 364.353481 
C 132.939296 365.814026 133.519576 367.214947 134.552337 368.247707 
C 135.585098 369.280468 136.986019 369.860749 138.446564 369.860749 
z
" clip-path="url(#pb155c699a1)" style="fill: #ffa500; fill-opacity: 0.5; stroke: #ffa500; stroke-opacity: 0.5"/>
    <path d="M 166.29302 370.025341 
C 167.797215 370.025341 169.240005 369.427718 170.303631 368.364092 
C 171.367258 367.300465 171.964881 365.857676 171.964881 364.353481 
C 171.964881 362.849286 171.367258 361.406497 170.303631 360.34287 
C 169.240005 359.279244 167.797215 358.681621 166.29302 358.681621 
C 164.788825 358.681621 163.346036 359.279244 162.282409 360.34287 
C 161.218783 361.406497 160.62116 362.849286 160.62116 364.353481 
C 160.62116 365.857676 161.218783 367.300465 162.282409 368.364092 
C 163.346036 369.427718 164.788825 370.025341 166.29302 370.025341 
z
" clip-path="url(#pb155c699a1)" style="fill: #ffa500; fill-opacity: 0.5; stroke: #ffa500; stroke-opacity: 0.5"/>
    <path d="M 189.657542 229.733797 
C 191.265906 229.733797 192.808613 229.094787 193.945898 227.957502 
C 195.083184 226.820217 195.722194 225.27751 195.722194 223.669146 
C 195.722194 222.060781 195.083184 220.518075 193.945898 219.380789 
C 192.808613 218.243504 191.265906 217.604494 189.657542 217.604494 
C 188.049178 217.604494 186.506471 218.243504 185.369186 219.380789 
C 184.2319 220.518075 183.59289 222.060781 183.59289 223.669146 
C 183.59289 225.27751 184.2319 226.820217 185.369186 227.957502 
C 186.506471 229.094787 188.049178 229.733797 189.657542 229.733797 
z
" clip-path="url(#pb155c699a1)" style="fill: #ffa500; fill-opacity: 0.5; stroke: #ffa500; stroke-opacity: 0.5"/>
    <path d="M 231.26159 370.605281 
C 232.919587 370.605281 234.5099 369.946552 235.68228 368.774171 
C 236.854661 367.60179 237.51339 366.011478 237.51339 364.353481 
C 237.51339 362.695484 236.854661 361.105172 235.68228 359.932791 
C 234.5099 358.76041 232.919587 358.101681 231.26159 358.101681 
C 229.603594 358.101681 228.013281 358.76041 226.8409 359.932791 
C 225.66852 361.105172 225.009791 362.695484 225.009791 364.353481 
C 225.009791 366.011478 225.66852 367.60179 226.8409 368.774171 
C 228.013281 369.946552 229.603594 370.605281 231.26159 370.605281 
z
" clip-path="url(#pb155c699a1)" style="fill: #ffa500; fill-opacity: 0.5; stroke: #ffa500; stroke-opacity: 0.5"/>
    <path d="M 327.623191 224.953364 
C 329.405782 224.953364 331.115603 224.245133 332.376085 222.984651 
C 333.636567 221.724168 334.344798 220.014348 334.344798 218.231757 
C 334.344798 216.449166 333.636567 214.739345 332.376085 213.478863 
C 331.115603 212.218381 329.405782 211.51015 327.623191 211.51015 
C 325.8406 211.51015 324.13078 212.218381 322.870298 213.478863 
C 321.609815 214.739345 320.901584 216.449166 320.901584 218.231757 
C 320.901584 220.014348 321.609815 221.724168 322.870298 222.984651 
C 324.13078 224.245133 325.8406 224.953364 327.623191 224.953364 
z
" clip-path="url(#pb155c699a1)" style="fill: #ffa500; fill-opacity: 0.5; stroke: #ffa500; stroke-opacity: 0.5"/>
    <path d="M 297.672174 371.237884 
C 299.497939 371.237884 301.249171 370.5125 302.540182 369.221489 
C 303.831193 367.930478 304.556577 366.179246 304.556577 364.353481 
C 304.556577 362.527716 303.831193 360.776484 302.540182 359.485473 
C 301.249171 358.194462 299.497939 357.469078 297.672174 357.469078 
C 295.846409 357.469078 294.095177 358.194462 292.804166 359.485473 
C 291.513155 360.776484 290.787771 362.527716 290.787771 364.353481 
C 290.787771 366.179246 291.513155 367.930478 292.804166 369.221489 
C 294.095177 370.5125 295.846409 371.237884 297.672174 371.237884 
z
" clip-path="url(#pb155c699a1)" style="fill: #ffa500; fill-opacity: 0.5; stroke: #ffa500; stroke-opacity: 0.5"/>
    <path d="M 417.90495 371.755508 
C 419.867991 371.755508 421.750894 370.975584 423.138974 369.587504 
C 424.527053 368.199425 425.306977 366.316521 425.306977 364.353481 
C 425.306977 362.390441 424.527053 360.507537 423.138974 359.119458 
C 421.750894 357.731378 419.867991 356.951454 417.90495 356.951454 
C 415.94191 356.951454 414.059006 357.731378 412.670927 359.119458 
C 411.282848 360.507537 410.502924 362.390441 410.502924 364.353481 
C 410.502924 366.316521 411.282848 368.199425 412.670927 369.587504 
C 414.059006 370.975584 415.94191 371.755508 417.90495 371.755508 
z
" clip-path="url(#pb155c699a1)" style="fill: #ffa500; fill-opacity: 0.5; stroke: #ffa500; stroke-opacity: 0.5"/>
    <path d="M 453.331723 372.382491 
C 455.461041 372.382491 457.503435 371.536504 459.00909 370.030848 
C 460.514746 368.525193 461.360733 366.482799 461.360733 364.353481 
C 461.360733 362.224163 460.514746 360.181769 459.00909 358.676114 
C 457.503435 357.170458 455.461041 356.324471 453.331723 356.324471 
C 451.202405 356.324471 449.160011 357.170458 447.654356 358.676114 
C 446.1487 360.181769 445.302713 362.224163 445.302713 364.353481 
C 445.302713 366.482799 446.1487 368.525193 447.654356 370.030848 
C 449.160011 371.536504 451.202405 372.382491 453.331723 372.382491 
z
" clip-path="url(#pb155c699a1)" style="fill: #ffa500; fill-opacity: 0.5; stroke: #ffa500; stroke-opacity: 0.5"/>
    <path d="M 514.169118 182.053447 
C 516.285598 182.053447 518.315678 181.21256 519.812256 179.715983 
C 521.308833 178.219405 522.14972 176.189326 522.14972 174.072845 
C 522.14972 171.956365 521.308833 169.926285 519.812256 168.429708 
C 518.315678 166.93313 516.285598 166.092244 514.169118 166.092244 
C 512.052638 166.092244 510.022558 166.93313 508.525981 168.429708 
C 507.029403 169.926285 506.188517 171.956365 506.188517 174.072845 
C 506.188517 176.189326 507.029403 178.219405 508.525981 179.715983 
C 510.022558 181.21256 512.052638 182.053447 514.169118 182.053447 
z
" clip-path="url(#pb155c699a1)" style="fill: #ffa500; fill-opacity: 0.5; stroke: #ffa500; stroke-opacity: 0.5"/>
    <path d="M 527.80979 372.657697 
C 530.012093 372.657697 532.124493 371.782712 533.681757 370.225448 
C 535.239021 368.668184 536.114005 366.555785 536.114005 364.353481 
C 536.114005 362.151177 535.239021 360.038778 533.681757 358.481514 
C 532.124493 356.92425 530.012093 356.049265 527.80979 356.049265 
C 525.607486 356.049265 523.495086 356.92425 521.937822 358.481514 
C 520.380558 360.038778 519.505574 362.151177 519.505574 364.353481 
C 519.505574 366.555785 520.380558 368.668184 521.937822 370.225448 
C 523.495086 371.782712 525.607486 372.657697 527.80979 372.657697 
z
" clip-path="url(#pb155c699a1)" style="fill: #ffa500; fill-opacity: 0.5; stroke: #ffa500; stroke-opacity: 0.5"/>
    <path d="M 501.307914 137.286124 
C 503.587889 137.286124 505.77479 136.380281 507.386976 134.768094 
C 508.999162 133.155908 509.905006 130.969007 509.905006 128.689032 
C 509.905006 126.409056 508.999162 124.222156 507.386976 122.609969 
C 505.77479 120.997783 503.587889 120.091939 501.307914 120.091939 
C 499.027938 120.091939 496.841037 120.997783 495.228851 122.609969 
C 493.616665 124.222156 492.710821 126.409056 492.710821 128.689032 
C 492.710821 130.969007 493.616665 133.155908 495.228851 134.768094 
C 496.841037 136.380281 499.027938 137.286124 501.307914 137.286124 
z
" clip-path="url(#pb155c699a1)" style="fill: #ffa500; fill-opacity: 0.5; stroke: #ffa500; stroke-opacity: 0.5"/>
    <path d="M 514.325011 137.53437 
C 516.670822 137.53437 518.920871 136.602369 520.57961 134.94363 
C 522.238349 133.284891 523.170349 131.034843 523.170349 128.689032 
C 523.170349 126.343221 522.238349 124.093172 520.57961 122.434434 
C 518.920871 120.775695 516.670822 119.843694 514.325011 119.843694 
C 511.979201 119.843694 509.729152 120.775695 508.070413 122.434434 
C 506.411674 124.093172 505.479674 126.343221 505.479674 128.689032 
C 505.479674 131.034843 506.411674 133.284891 508.070413 134.94363 
C 509.729152 136.602369 511.979201 137.53437 514.325011 137.53437 
z
" clip-path="url(#pb155c699a1)" style="fill: #ffa500; fill-opacity: 0.5; stroke: #ffa500; stroke-opacity: 0.5"/>
    <path d="M 665.522112 55.089641 
C 667.92926 55.089641 670.23814 54.133271 671.940251 52.431161 
C 673.642361 50.729051 674.598731 48.42017 674.598731 46.013023 
C 674.598731 43.605876 673.642361 41.296995 671.940251 39.594885 
C 670.23814 37.892774 667.92926 36.936405 665.522112 36.936405 
C 663.114965 36.936405 660.806084 37.892774 659.103974 39.594885 
C 657.401864 41.296995 656.445494 43.605876 656.445494 46.013023 
C 656.445494 48.42017 657.401864 50.729051 659.103974 52.431161 
C 660.806084 54.133271 663.114965 55.089641 665.522112 55.089641 
z
" clip-path="url(#pb155c699a1)" style="fill: #ffa500; fill-opacity: 0.5; stroke: #ffa500; stroke-opacity: 0.5"/>
    <path d="M 575.980847 373.432853 
C 578.388725 373.432853 580.698306 372.476193 582.400933 370.773567 
C 584.103559 369.07094 585.060219 366.761359 585.060219 364.353481 
C 585.060219 361.945603 584.103559 359.636022 582.400933 357.933395 
C 580.698306 356.230769 578.388725 355.274109 575.980847 355.274109 
C 573.572969 355.274109 571.263388 356.230769 569.560761 357.933395 
C 567.858135 359.636022 566.901475 361.945603 566.901475 364.353481 
C 566.901475 366.761359 567.858135 369.07094 569.560761 370.773567 
C 571.263388 372.476193 573.572969 373.432853 575.980847 373.432853 
z
" clip-path="url(#pb155c699a1)" style="fill: #ffa500; fill-opacity: 0.5; stroke: #ffa500; stroke-opacity: 0.5"/>
   </g>
   <g id="patch_3">
    <path d="M 73.97393 380.270504 
L 73.97393 30.096 
" style="fill: none; stroke: #cccccc; stroke-width: 1.25; stroke-linejoin: miter; stroke-linecap: square"/>
   </g>
   <g id="patch_4">
    <path d="M 693.691073 380.270504 
L 693.691073 30.096 
" style="fill: none; stroke: #cccccc; stroke-width: 1.25; stroke-linejoin: miter; stroke-linecap: square"/>
   </g>
   <g id="patch_5">
    <path d="M 73.97393 380.270504 
L 693.691073 380.270504 
" style="fill: none; stroke: #cccccc; stroke-width: 1.25; stroke-linejoin: miter; stroke-linecap: square"/>
   </g>
   <g id="patch_6">
    <path d="M 73.97393 30.096 
L 693.691073 30.096 
" style="fill: none; stroke: #cccccc; stroke-width: 1.25; stroke-linejoin: miter; stroke-linecap: square"/>
   </g>
   <g id="text_17">
    <!-- Chart 9: System Scaling (Budget vs Weighted Index, Size=Peak Demand) -->
    <g style="fill: #262626" transform="translate(167.70622 24.096) scale(0.132 -0.132)">
     <defs>
      <path id="ArialMT-44" d="M 2588 409 
Q 2275 144 1986 34 
Q 1697 -75 1366 -75 
Q 819 -75 525 192 
Q 231 459 231 875 
Q 231 1119 342 1320 
Q 453 1522 633 1644 
Q 813 1766 1038 1828 
Q 1203 1872 1538 1913 
Q 2219 1994 2541 2106 
Q 2544 2222 2544 2253 
Q 2544 2597 2384 2738 
Q 2169 2928 1744 2928 
Q 1347 2928 1158 2789 
Q 969 2650 878 2297 
L 328 2372 
Q 403 2725 575 2942 
Q 747 3159 1072 3276 
Q 1397 3394 1825 3394 
Q 2250 3394 2515 3294 
Q 2781 3194 2906 3042 
Q 3031 2891 3081 2659 
Q 3109 2516 3109 2141 
L 3109 1391 
Q 3109 606 3145 398 
Q 3181 191 3288 0 
L 2700 0 
Q 2613 175 2588 409 
z
M 2541 1666 
Q 2234 1541 1622 1453 
Q 1275 1403 1131 1340 
Q 988 1278 909 1158 
Q 831 1038 831 891 
Q 831 666 1001 516 
Q 1172 366 1500 366 
Q 1825 366 2078 508 
Q 2331 650 2450 897 
Q 2541 1088 2541 1459 
L 2541 1666 
z
" transform="scale(0.015625)"/>
      <path id="ArialMT-1c" d="M 350 1059 
L 891 1109 
Q 959 728 1153 556 
Q 1347 384 1650 384 
Q 1909 384 2104 503 
Q 2300 622 2425 820 
Q 2550 1019 2634 1356 
Q 2719 1694 2719 2044 
Q 2719 2081 2716 2156 
Q 2547 1888 2255 1720 
Q 1963 1553 1622 1553 
Q 1053 1553 659 1965 
Q 266 2378 266 3053 
Q 266 3750 677 4175 
Q 1088 4600 1706 4600 
Q 2153 4600 2523 4359 
Q 2894 4119 3086 3673 
Q 3278 3228 3278 2384 
Q 3278 1506 3087 986 
Q 2897 466 2520 194 
Q 2144 -78 1638 -78 
Q 1100 -78 759 220 
Q 419 519 350 1059 
z
M 2653 3081 
Q 2653 3566 2395 3850 
Q 2138 4134 1775 4134 
Q 1400 4134 1122 3828 
Q 844 3522 844 3034 
Q 844 2597 1108 2323 
Q 1372 2050 1759 2050 
Q 2150 2050 2401 2323 
Q 2653 2597 2653 3081 
z
" transform="scale(0.015625)"/>
      <path id="ArialMT-1d" d="M 578 2678 
L 578 3319 
L 1219 3319 
L 1219 2678 
L 578 2678 
z
M 578 0 
L 578 641 
L 1219 641 
L 1219 0 
L 578 0 
z
" transform="scale(0.015625)"/>
      <path id="ArialMT-36" d="M 288 1472 
L 859 1522 
Q 900 1178 1048 958 
Q 1197 738 1509 602 
Q 1822 466 2213 466 
Q 2559 466 2825 569 
Q 3091 672 3220 851 
Q 3350 1031 3350 1244 
Q 3350 1459 3225 1620 
Q 3100 1781 2813 1891 
Q 2628 1963 1997 2114 
Q 1366 2266 1113 2400 
Q 784 2572 623 2826 
Q 463 3081 463 3397 
Q 463 3744 659 4045 
Q 856 4347 1234 4503 
Q 1613 4659 2075 4659 
Q 2584 4659 2973 4495 
Q 3363 4331 3572 4012 
Q 3781 3694 3797 3291 
L 3216 3247 
Q 3169 3681 2898 3903 
Q 2628 4125 2100 4125 
Q 1550 4125 1298 3923 
Q 1047 3722 1047 3438 
Q 1047 3191 1225 3031 
Q 1400 2872 2139 2705 
Q 2878 2538 3153 2413 
Q 3553 2228 3743 1945 
Q 3934 1663 3934 1294 
Q 3934 928 3725 604 
Q 3516 281 3123 101 
Q 2731 -78 2241 -78 
Q 1619 -78 1198 103 
Q 778 284 539 648 
Q 300 1013 288 1472 
z
" transform="scale(0.015625)"/>
      <path id="ArialMT-5c" d="M 397 -1278 
L 334 -750 
Q 519 -800 656 -800 
Q 844 -800 956 -737 
Q 1069 -675 1141 -563 
Q 1194 -478 1313 -144 
Q 1328 -97 1363 -6 
L 103 3319 
L 709 3319 
L 1400 1397 
Q 1534 1031 1641 628 
Q 1738 1016 1872 1384 
L 2581 3319 
L 3144 3319 
L 1881 -56 
Q 1678 -603 1566 -809 
Q 1416 -1088 1222 -1217 
Q 1028 -1347 759 -1347 
Q 597 -1347 397 -1278 
z
" transform="scale(0.015625)"/>
      <path id="ArialMT-50" d="M 422 0 
L 422 3319 
L 925 3319 
L 925 2853 
Q 1081 3097 1340 3245 
Q 1600 3394 1931 3394 
Q 2300 3394 2536 3241 
Q 2772 3088 2869 2813 
Q 3263 3394 3894 3394 
Q 4388 3394 4653 3120 
Q 4919 2847 4919 2278 
L 4919 0 
L 4359 0 
L 4359 2091 
Q 4359 2428 4304 2576 
Q 4250 2725 4106 2815 
Q 3963 2906 3769 2906 
Q 3419 2906 3187 2673 
Q 2956 2441 2956 1928 
L 2956 0 
L 2394 0 
L 2394 2156 
Q 2394 2531 2256 2718 
Q 2119 2906 1806 2906 
Q 1569 2906 1367 2781 
Q 1166 2656 1075 2415 
Q 984 2175 984 1722 
L 984 0 
L 422 0 
z
" transform="scale(0.015625)"/>
      <path id="ArialMT-46" d="M 2588 1216 
L 3141 1144 
Q 3050 572 2676 248 
Q 2303 -75 1759 -75 
Q 1078 -75 664 370 
Q 250 816 250 1647 
Q 250 2184 428 2587 
Q 606 2991 970 3192 
Q 1334 3394 1763 3394 
Q 2303 3394 2647 3120 
Q 2991 2847 3088 2344 
L 2541 2259 
Q 2463 2594 2264 2762 
Q 2066 2931 1784 2931 
Q 1359 2931 1093 2626 
Q 828 2322 828 1663 
Q 828 994 1084 691 
Q 1341 388 1753 388 
Q 2084 388 2306 591 
Q 2528 794 2588 1216 
z
" transform="scale(0.015625)"/>
      <path id="ArialMT-4f" d="M 409 0 
L 409 4581 
L 972 4581 
L 972 0 
L 409 0 
z
" transform="scale(0.015625)"/>
      <path id="ArialMT-f" d="M 569 0 
L 569 641 
L 1209 641 
L 1209 0 
Q 1209 -353 1084 -570 
Q 959 -788 688 -906 
L 531 -666 
Q 709 -588 793 -436 
Q 878 -284 888 0 
L 569 0 
z
" transform="scale(0.015625)"/>
      <path id="ArialMT-5d" d="M 125 0 
L 125 456 
L 2238 2881 
Q 1878 2863 1603 2863 
L 250 2863 
L 250 3319 
L 2963 3319 
L 2963 2947 
L 1166 841 
L 819 456 
Q 1197 484 1528 484 
L 3063 484 
L 3063 0 
L 125 0 
z
" transform="scale(0.015625)"/>
      <path id="ArialMT-20" d="M 3381 2694 
L 356 2694 
L 356 3219 
L 3381 3219 
L 3381 2694 
z
M 3381 1303 
L 356 1303 
L 356 1828 
L 3381 1828 
L 3381 1303 
z
" transform="scale(0.015625)"/>
     </defs>
     <use xlink:href="#ArialMT-26"/>
     <use xlink:href="#ArialMT-4b" transform="translate(72.21875 0)"/>
     <use xlink:href="#ArialMT-44" transform="translate(127.828125 0)"/>
     <use xlink:href="#ArialMT-55" transform="translate(183.4375 0)"/>
     <use xlink:href="#ArialMT-57" transform="translate(216.734375 0)"/>
     <use xlink:href="#ArialMT-3" transform="translate(244.515625 0)"/>
     <use xlink:href="#ArialMT-1c" transform="translate(272.296875 0)"/>
     <use xlink:href="#ArialMT-1d" transform="translate(327.90625 0)"/>
     <use xlink:href="#ArialMT-3" transform="translate(355.6875 0)"/>
     <use xlink:href="#ArialMT-36" transform="translate(383.46875 0)"/>
     <use xlink:href="#ArialMT-5c" transform="translate(450.171875 0)"/>
     <use xlink:href="#ArialMT-56" transform="translate(500.171875 0)"/>
     <use xlink:href="#ArialMT-57" transform="translate(550.171875 0)"/>
     <use xlink:href="#ArialMT-48" transform="translate(577.953125 0)"/>
     <use xlink:href="#ArialMT-50" transform="translate(633.5625 0)"/>
     <use xlink:href="#ArialMT-3" transform="translate(716.859375 0)"/>
     <use xlink:href="#ArialMT-36" transform="translate(744.640625 0)"/>
     <use xlink:href="#ArialMT-46" transform="translate(811.34375 0)"/>
     <use xlink:href="#ArialMT-44" transform="translate(861.34375 0)"/>
     <use xlink:href="#ArialMT-4f" transform="translate(916.953125 0)"/>
     <use xlink:href="#ArialMT-4c" transform="translate(939.171875 0)"/>
     <use xlink:href="#ArialMT-51" transform="translate(961.390625 0)"/>
     <use xlink:href="#ArialMT-4a" transform="translate(1017 0)"/>
     <use xlink:href="#ArialMT-3" transform="translate(1072.609375 0)"/>
     <use xlink:href="#ArialMT-b" transform="translate(1100.390625 0)"/>
     <use xlink:href="#ArialMT-25" transform="translate(1133.6875 0)"/>
     <use xlink:href="#ArialMT-58" transform="translate(1200.390625 0)"/>
     <use xlink:href="#ArialMT-47" transform="translate(1256 0)"/>
     <use xlink:href="#ArialMT-4a" transform="translate(1311.609375 0)"/>
     <use xlink:href="#ArialMT-48" transform="translate(1367.21875 0)"/>
     <use xlink:href="#ArialMT-57" transform="translate(1422.828125 0)"/>
     <use xlink:href="#ArialMT-3" transform="translate(1450.609375 0)"/>
     <use xlink:href="#ArialMT-59" transform="translate(1478.390625 0)"/>
     <use xlink:href="#ArialMT-56" transform="translate(1528.390625 0)"/>
     <use xlink:href="#ArialMT-3" transform="translate(1578.390625 0)"/>
     <use xlink:href="#ArialMT-3a" transform="translate(1606.171875 0)"/>
     <use xlink:href="#ArialMT-48" transform="translate(1698.75 0)"/>
     <use xlink:href="#ArialMT-4c" transform="translate(1754.359375 0)"/>
     <use xlink:href="#ArialMT-4a" transform="translate(1776.578125 0)"/>
     <use xlink:href="#ArialMT-4b" transform="translate(1832.1875 0)"/>
     <use xlink:href="#ArialMT-57" transform="translate(1887.796875 0)"/>
     <use xlink:href="#ArialMT-48" transform="translate(1915.578125 0)"/>
     <use xlink:href="#ArialMT-47" transform="translate(1971.1875 0)"/>
     <use xlink:href="#ArialMT-3" transform="translate(2026.796875 0)"/>
     <use xlink:href="#ArialMT-2c" transform="translate(2054.578125 0)"/>
     <use xlink:href="#ArialMT-51" transform="translate(2082.359375 0)"/>
     <use xlink:href="#ArialMT-47" transform="translate(2137.96875 0)"/>
     <use xlink:href="#ArialMT-48" transform="translate(2193.578125 0)"/>
     <use xlink:href="#ArialMT-5b" transform="translate(2249.1875 0)"/>
     <use xlink:href="#ArialMT-f" transform="translate(2299.1875 0)"/>
     <use xlink:href="#ArialMT-3" transform="translate(2326.96875 0)"/>
     <use xlink:href="#ArialMT-36" transform="translate(2354.75 0)"/>
     <use xlink:href="#ArialMT-4c" transform="translate(2421.453125 0)"/>
     <use xlink:href="#ArialMT-5d" transform="translate(2443.671875 0)"/>
     <use xlink:href="#ArialMT-48" transform="translate(2493.671875 0)"/>
     <use xlink:href="#ArialMT-20" transform="translate(2549.28125 0)"/>
     <use xlink:href="#ArialMT-33" transform="translate(2607.6875 0)"/>
     <use xlink:href="#ArialMT-48" transform="translate(2674.390625 0)"/>
     <use xlink:href="#ArialMT-44" transform="translate(2730 0)"/>
     <use xlink:href="#ArialMT-4e" transform="translate(2785.609375 0)"/>
     <use xlink:href="#ArialMT-3" transform="translate(2835.609375 0)"/>
     <use xlink:href="#ArialMT-27" transform="translate(2863.390625 0)"/>
     <use xlink:href="#ArialMT-48" transform="translate(2935.609375 0)"/>
     <use xlink:href="#ArialMT-50" transform="translate(2991.21875 0)"/>
     <use xlink:href="#ArialMT-44" transform="translate(3074.515625 0)"/>
     <use xlink:href="#ArialMT-51" transform="translate(3130.125 0)"/>
     <use xlink:href="#ArialMT-47" transform="translate(3185.734375 0)"/>
     <use xlink:href="#ArialMT-c" transform="translate(3241.34375 0)"/>
    </g>
   </g>
  </g>
 </g>
 <defs>
  <clipPath id="pb155c699a1">
   <rect x="73.97393" y="30.096" width="619.717144" height="350.174504"/>
  </clipPath>
 </defs>
</svg>
