<?xml version="1.0" encoding="utf-8" standalone="no"?>
<!DOCTYPE svg PUBLIC "-//W3C//DTD SVG 1.1//EN"
  "http://www.w3.org/Graphics/SVG/1.1/DTD/svg11.dtd">
<svg xmlns:xlink="http://www.w3.org/1999/xlink" width="720pt" height="432pt" viewBox="0 0 720 432" xmlns="http://www.w3.org/2000/svg" version="1.1">
 <metadata>
  <rdf:RDF xmlns:dc="http://purl.org/dc/elements/1.1/" xmlns:cc="http://creativecommons.org/ns#" xmlns:rdf="http://www.w3.org/1999/02/22-rdf-syntax-ns#">
   <cc:Work>
    <dc:type rdf:resource="http://purl.org/dc/dcmitype/StillImage"/>
    <dc:date>2026-06-30T19:48:31.385864</dc:date>
    <dc:format>image/svg+xml</dc:format>
    <dc:creator>
     <cc:Agent>
      <dc:title>Matplotlib v3.11.0, https://matplotlib.org/</dc:title>
     </cc:Agent>
    </dc:creator>
   </cc:Work>
  </rdf:RDF>
 </metadata>
 <defs>
  <style type="text/css">*{stroke-linejoin: round; stroke-linecap: butt}</style>
 </defs>
 <g id="figure_1">
  <g id="patch_1">
   <path d="M 0 432 
L 720 432 
L 720 0 
L 0 0 
z
" style="fill: #ffffff"/>
  </g>
  <g id="axes_1">
   <g id="patch_2">
    <path d="M 64.316 370.346212 
L 705.744 370.346212 
L 705.744 30.096 
L 64.316 30.096 
z
" style="fill: #ffffff"/>
   </g>
   <g id="matplotlib.axis_1">
    <g id="xtick_1">
     <g id="line2d_1">
      <path d="M 110.373742 370.346212 
L 110.373742 30.096 
" clip-path="url(#pa31f8adfee)" style="fill: none; stroke: #cccccc; stroke-linecap: round"/>
     </g>
     <g id="text_1">
      <!-- FY2012 -->
      <g style="fill: #262626" transform="translate(97.605595 416.039896) rotate(-45) scale(0.121 -0.121)">
       <defs>
        <path id="ArialMT-29" d="M 525 0 
L 525 4581 
L 3616 4581 
L 3616 4041 
L 1131 4041 
L 1131 2622 
L 3281 2622 
L 3281 2081 
L 1131 2081 
L 1131 0 
L 525 0 
z
" transform="scale(0.015625)"/>
        <path id="ArialMT-3c" d="M 1784 0 
L 1784 1941 
L 19 4581 
L 756 4581 
L 1659 3200 
Q 1909 2813 2125 2425 
Q 2331 2784 2625 3234 
L 3513 4581 
L 4219 4581 
L 2391 1941 
L 2391 0 
L 1784 0 
z
" transform="scale(0.015625)"/>
        <path id="ArialMT-15" d="M 3222 541 
L 3222 0 
L 194 0 
Q 188 203 259 391 
Q 375 700 629 1000 
Q 884 1300 1366 1694 
Q 2113 2306 2375 2664 
Q 2638 3022 2638 3341 
Q 2638 3675 2398 3904 
Q 2159 4134 1775 4134 
Q 1369 4134 1125 3890 
Q 881 3647 878 3216 
L 300 3275 
Q 359 3922 746 4261 
Q 1134 4600 1788 4600 
Q 2447 4600 2831 4234 
Q 3216 3869 3216 3328 
Q 3216 3053 3103 2787 
Q 2991 2522 2730 2228 
Q 2469 1934 1863 1422 
Q 1356 997 1212 845 
Q 1069 694 975 541 
L 3222 541 
z
" transform="scale(0.015625)"/>
        <path id="ArialMT-13" d="M 266 2259 
Q 266 3072 433 3567 
Q 600 4063 929 4331 
Q 1259 4600 1759 4600 
Q 2128 4600 2406 4451 
Q 2684 4303 2865 4023 
Q 3047 3744 3150 3342 
Q 3253 2941 3253 2259 
Q 3253 1453 3087 958 
Q 2922 463 2592 192 
Q 2263 -78 1759 -78 
Q 1097 -78 719 397 
Q 266 969 266 2259 
z
M 844 2259 
Q 844 1131 1108 757 
Q 1372 384 1759 384 
Q 2147 384 2411 759 
Q 2675 1134 2675 2259 
Q 2675 3391 2411 3762 
Q 2147 4134 1753 4134 
Q 1366 4134 1134 3806 
Q 844 3388 844 2259 
z
" transform="scale(0.015625)"/>
        <path id="ArialMT-14" d="M 2384 0 
L 1822 0 
L 1822 3584 
Q 1619 3391 1289 3197 
Q 959 3003 697 2906 
L 697 3450 
Q 1169 3672 1522 3987 
Q 1875 4303 2022 4600 
L 2384 4600 
L 2384 0 
z
" transform="scale(0.015625)"/>
       </defs>
       <use xlink:href="#ArialMT-29"/>
       <use xlink:href="#ArialMT-3c" transform="translate(61.078125 0)"/>
       <use xlink:href="#ArialMT-15" transform="translate(127.78125 0)"/>
       <use xlink:href="#ArialMT-13" transform="translate(183.390625 0)"/>
       <use xlink:href="#ArialMT-14" transform="translate(239 0)"/>
       <use xlink:href="#ArialMT-15" transform="translate(294.609375 0)"/>
      </g>
     </g>
    </g>
    <g id="xtick_2">
     <g id="line2d_2">
      <path d="M 152.628551 370.346212 
L 152.628551 30.096 
" clip-path="url(#pa31f8adfee)" style="fill: none; stroke: #cccccc; stroke-linecap: round"/>
     </g>
     <g id="text_2">
      <!-- FY2013 -->
      <g style="fill: #262626" transform="translate(139.860404 416.039896) rotate(-45) scale(0.121 -0.121)">
       <defs>
        <path id="ArialMT-16" d="M 269 1209 
L 831 1284 
Q 928 806 1161 595 
Q 1394 384 1728 384 
Q 2125 384 2398 659 
Q 2672 934 2672 1341 
Q 2672 1728 2419 1979 
Q 2166 2231 1775 2231 
Q 1616 2231 1378 2169 
L 1441 2663 
Q 1497 2656 1531 2656 
Q 1891 2656 2178 2843 
Q 2466 3031 2466 3422 
Q 2466 3731 2256 3934 
Q 2047 4138 1716 4138 
Q 1388 4138 1169 3931 
Q 950 3725 888 3313 
L 325 3413 
Q 428 3978 793 4289 
Q 1159 4600 1703 4600 
Q 2078 4600 2393 4439 
Q 2709 4278 2876 4000 
Q 3044 3722 3044 3409 
Q 3044 3113 2884 2869 
Q 2725 2625 2413 2481 
Q 2819 2388 3044 2092 
Q 3269 1797 3269 1353 
Q 3269 753 2831 336 
Q 2394 -81 1725 -81 
Q 1122 -81 723 278 
Q 325 638 269 1209 
z
" transform="scale(0.015625)"/>
       </defs>
       <use xlink:href="#ArialMT-29"/>
       <use xlink:href="#ArialMT-3c" transform="translate(61.078125 0)"/>
       <use xlink:href="#ArialMT-15" transform="translate(127.78125 0)"/>
       <use xlink:href="#ArialMT-13" transform="translate(183.390625 0)"/>
       <use xlink:href="#ArialMT-14" transform="translate(239 0)"/>
       <use xlink:href="#ArialMT-16" transform="translate(294.609375 0)"/>
      </g>
     </g>
    </g>
    <g id="xtick_3">
     <g id="line2d_3">
      <path d="M 194.88336 370.346212 
L 194.88336 30.096 
" clip-path="url(#pa31f8adfee)" style="fill: none; stroke: #cccccc; stroke-linecap: round"/>
     </g>
     <g id="text_3">
      <!-- FY2014 -->
      <g style="fill: #262626" transform="translate(182.115213 416.039896) rotate(-45) scale(0.121 -0.121)">
       <defs>
        <path id="ArialMT-17" d="M 2069 0 
L 2069 1097 
L 81 1097 
L 81 1613 
L 2172 4581 
L 2631 4581 
L 2631 1613 
L 3250 1613 
L 3250 1097 
L 2631 1097 
L 2631 0 
L 2069 0 
z
M 2069 1613 
L 2069 3678 
L 634 1613 
L 2069 1613 
z
" transform="scale(0.015625)"/>
       </defs>
       <use xlink:href="#ArialMT-29"/>
       <use xlink:href="#ArialMT-3c" transform="translate(61.078125 0)"/>
       <use xlink:href="#ArialMT-15" transform="translate(127.78125 0)"/>
       <use xlink:href="#ArialMT-13" transform="translate(183.390625 0)"/>
       <use xlink:href="#ArialMT-14" transform="translate(239 0)"/>
       <use xlink:href="#ArialMT-17" transform="translate(294.609375 0)"/>
      </g>
     </g>
    </g>
    <g id="xtick_4">
     <g id="line2d_4">
      <path d="M 237.138169 370.346212 
L 237.138169 30.096 
" clip-path="url(#pa31f8adfee)" style="fill: none; stroke: #cccccc; stroke-linecap: round"/>
     </g>
     <g id="text_4">
      <!-- FY2015 -->
      <g style="fill: #262626" transform="translate(224.370022 416.039896) rotate(-45) scale(0.121 -0.121)">
       <defs>
        <path id="ArialMT-18" d="M 266 1200 
L 856 1250 
Q 922 819 1161 601 
Q 1400 384 1738 384 
Q 2144 384 2425 690 
Q 2706 997 2706 1503 
Q 2706 1984 2436 2262 
Q 2166 2541 1728 2541 
Q 1456 2541 1237 2417 
Q 1019 2294 894 2097 
L 366 2166 
L 809 4519 
L 3088 4519 
L 3088 3981 
L 1259 3981 
L 1013 2750 
Q 1425 3038 1878 3038 
Q 2478 3038 2890 2622 
Q 3303 2206 3303 1553 
Q 3303 931 2941 478 
Q 2500 -78 1738 -78 
Q 1113 -78 717 272 
Q 322 622 266 1200 
z
" transform="scale(0.015625)"/>
       </defs>
       <use xlink:href="#ArialMT-29"/>
       <use xlink:href="#ArialMT-3c" transform="translate(61.078125 0)"/>
       <use xlink:href="#ArialMT-15" transform="translate(127.78125 0)"/>
       <use xlink:href="#ArialMT-13" transform="translate(183.390625 0)"/>
       <use xlink:href="#ArialMT-14" transform="translate(239 0)"/>
       <use xlink:href="#ArialMT-18" transform="translate(294.609375 0)"/>
      </g>
     </g>
    </g>
    <g id="xtick_5">
     <g id="line2d_5">
      <path d="M 279.392978 370.346212 
L 279.392978 30.096 
" clip-path="url(#pa31f8adfee)" style="fill: none; stroke: #cccccc; stroke-linecap: round"/>
     </g>
     <g id="text_5">
      <!-- FY2016 -->
      <g style="fill: #262626" transform="translate(266.624831 416.039896) rotate(-45) scale(0.121 -0.121)">
       <defs>
        <path id="ArialMT-19" d="M 3184 3459 
L 2625 3416 
Q 2550 3747 2413 3897 
Q 2184 4138 1850 4138 
Q 1581 4138 1378 3988 
Q 1113 3794 959 3422 
Q 806 3050 800 2363 
Q 1003 2672 1297 2822 
Q 1591 2972 1913 2972 
Q 2475 2972 2870 2558 
Q 3266 2144 3266 1488 
Q 3266 1056 3080 686 
Q 2894 316 2569 119 
Q 2244 -78 1831 -78 
Q 1128 -78 684 439 
Q 241 956 241 2144 
Q 241 3472 731 4075 
Q 1159 4600 1884 4600 
Q 2425 4600 2770 4297 
Q 3116 3994 3184 3459 
z
M 888 1484 
Q 888 1194 1011 928 
Q 1134 663 1356 523 
Q 1578 384 1822 384 
Q 2178 384 2434 671 
Q 2691 959 2691 1453 
Q 2691 1928 2437 2201 
Q 2184 2475 1800 2475 
Q 1419 2475 1153 2201 
Q 888 1928 888 1484 
z
" transform="scale(0.015625)"/>
       </defs>
       <use xlink:href="#ArialMT-29"/>
       <use xlink:href="#ArialMT-3c" transform="translate(61.078125 0)"/>
       <use xlink:href="#ArialMT-15" transform="translate(127.78125 0)"/>
       <use xlink:href="#ArialMT-13" transform="translate(183.390625 0)"/>
       <use xlink:href="#ArialMT-14" transform="translate(239 0)"/>
       <use xlink:href="#ArialMT-19" transform="translate(294.609375 0)"/>
      </g>
     </g>
    </g>
    <g id="xtick_6">
     <g id="line2d_6">
      <path d="M 321.647787 370.346212 
L 321.647787 30.096 
" clip-path="url(#pa31f8adfee)" style="fill: none; stroke: #cccccc; stroke-linecap: round"/>
     </g>
     <g id="text_6">
      <!-- FY2017 -->
      <g style="fill: #262626" transform="translate(308.87964 416.039896) rotate(-45) scale(0.121 -0.121)">
       <defs>
        <path id="ArialMT-1a" d="M 303 3981 
L 303 4522 
L 3269 4522 
L 3269 4084 
Q 2831 3619 2401 2847 
Q 1972 2075 1738 1259 
Q 1569 684 1522 0 
L 944 0 
Q 953 541 1156 1306 
Q 1359 2072 1739 2783 
Q 2119 3494 2547 3981 
L 303 3981 
z
" transform="scale(0.015625)"/>
       </defs>
       <use xlink:href="#ArialMT-29"/>
       <use xlink:href="#ArialMT-3c" transform="translate(61.078125 0)"/>
       <use xlink:href="#ArialMT-15" transform="translate(127.78125 0)"/>
       <use xlink:href="#ArialMT-13" transform="translate(183.390625 0)"/>
       <use xlink:href="#ArialMT-14" transform="translate(239 0)"/>
       <use xlink:href="#ArialMT-1a" transform="translate(294.609375 0)"/>
      </g>
     </g>
    </g>
    <g id="xtick_7">
     <g id="line2d_7">
      <path d="M 363.902596 370.346212 
L 363.902596 30.096 
" clip-path="url(#pa31f8adfee)" style="fill: none; stroke: #cccccc; stroke-linecap: round"/>
     </g>
     <g id="text_7">
      <!-- FY2018 -->
      <g style="fill: #262626" transform="translate(351.134448 416.039896) rotate(-45) scale(0.121 -0.121)">
       <defs>
        <path id="ArialMT-1b" d="M 1131 2484 
Q 781 2613 612 2850 
Q 444 3088 444 3419 
Q 444 3919 803 4259 
Q 1163 4600 1759 4600 
Q 2359 4600 2725 4251 
Q 3091 3903 3091 3403 
Q 3091 3084 2923 2848 
Q 2756 2613 2416 2484 
Q 2838 2347 3058 2040 
Q 3278 1734 3278 1309 
Q 3278 722 2862 322 
Q 2447 -78 1769 -78 
Q 1091 -78 675 323 
Q 259 725 259 1325 
Q 259 1772 486 2073 
Q 713 2375 1131 2484 
z
M 1019 3438 
Q 1019 3113 1228 2906 
Q 1438 2700 1772 2700 
Q 2097 2700 2305 2904 
Q 2513 3109 2513 3406 
Q 2513 3716 2298 3927 
Q 2084 4138 1766 4138 
Q 1444 4138 1231 3931 
Q 1019 3725 1019 3438 
z
M 838 1322 
Q 838 1081 952 856 
Q 1066 631 1291 507 
Q 1516 384 1775 384 
Q 2178 384 2440 643 
Q 2703 903 2703 1303 
Q 2703 1709 2433 1975 
Q 2163 2241 1756 2241 
Q 1359 2241 1098 1978 
Q 838 1716 838 1322 
z
" transform="scale(0.015625)"/>
       </defs>
       <use xlink:href="#ArialMT-29"/>
       <use xlink:href="#ArialMT-3c" transform="translate(61.078125 0)"/>
       <use xlink:href="#ArialMT-15" transform="translate(127.78125 0)"/>
       <use xlink:href="#ArialMT-13" transform="translate(183.390625 0)"/>
       <use xlink:href="#ArialMT-14" transform="translate(239 0)"/>
       <use xlink:href="#ArialMT-1b" transform="translate(294.609375 0)"/>
      </g>
     </g>
    </g>
    <g id="xtick_8">
     <g id="line2d_8">
      <path d="M 406.157404 370.346212 
L 406.157404 30.096 
" clip-path="url(#pa31f8adfee)" style="fill: none; stroke: #cccccc; stroke-linecap: round"/>
     </g>
     <g id="text_8">
      <!-- FY2019 -->
      <g style="fill: #262626" transform="translate(393.389257 416.039896) rotate(-45) scale(0.121 -0.121)">
       <defs>
        <path id="ArialMT-1c" d="M 350 1059 
L 891 1109 
Q 959 728 1153 556 
Q 1347 384 1650 384 
Q 1909 384 2104 503 
Q 2300 622 2425 820 
Q 2550 1019 2634 1356 
Q 2719 1694 2719 2044 
Q 2719 2081 2716 2156 
Q 2547 1888 2255 1720 
Q 1963 1553 1622 1553 
Q 1053 1553 659 1965 
Q 266 2378 266 3053 
Q 266 3750 677 4175 
Q 1088 4600 1706 4600 
Q 2153 4600 2523 4359 
Q 2894 4119 3086 3673 
Q 3278 3228 3278 2384 
Q 3278 1506 3087 986 
Q 2897 466 2520 194 
Q 2144 -78 1638 -78 
Q 1100 -78 759 220 
Q 419 519 350 1059 
z
M 2653 3081 
Q 2653 3566 2395 3850 
Q 2138 4134 1775 4134 
Q 1400 4134 1122 3828 
Q 844 3522 844 3034 
Q 844 2597 1108 2323 
Q 1372 2050 1759 2050 
Q 2150 2050 2401 2323 
Q 2653 2597 2653 3081 
z
" transform="scale(0.015625)"/>
       </defs>
       <use xlink:href="#ArialMT-29"/>
       <use xlink:href="#ArialMT-3c" transform="translate(61.078125 0)"/>
       <use xlink:href="#ArialMT-15" transform="translate(127.78125 0)"/>
       <use xlink:href="#ArialMT-13" transform="translate(183.390625 0)"/>
       <use xlink:href="#ArialMT-14" transform="translate(239 0)"/>
       <use xlink:href="#ArialMT-1c" transform="translate(294.609375 0)"/>
      </g>
     </g>
    </g>
    <g id="xtick_9">
     <g id="line2d_9">
      <path d="M 448.412213 370.346212 
L 448.412213 30.096 
" clip-path="url(#pa31f8adfee)" style="fill: none; stroke: #cccccc; stroke-linecap: round"/>
     </g>
     <g id="text_9">
      <!-- FY2020 -->
      <g style="fill: #262626" transform="translate(435.644066 416.039896) rotate(-45) scale(0.121 -0.121)">
       <use xlink:href="#ArialMT-29"/>
       <use xlink:href="#ArialMT-3c" transform="translate(61.078125 0)"/>
       <use xlink:href="#ArialMT-15" transform="translate(127.78125 0)"/>
       <use xlink:href="#ArialMT-13" transform="translate(183.390625 0)"/>
       <use xlink:href="#ArialMT-15" transform="translate(239 0)"/>
       <use xlink:href="#ArialMT-13" transform="translate(294.609375 0)"/>
      </g>
     </g>
    </g>
    <g id="xtick_10">
     <g id="line2d_10">
      <path d="M 490.667022 370.346212 
L 490.667022 30.096 
" clip-path="url(#pa31f8adfee)" style="fill: none; stroke: #cccccc; stroke-linecap: round"/>
     </g>
     <g id="text_10">
      <!-- FY2021 -->
      <g style="fill: #262626" transform="translate(477.898875 416.039896) rotate(-45) scale(0.121 -0.121)">
       <use xlink:href="#ArialMT-29"/>
       <use xlink:href="#ArialMT-3c" transform="translate(61.078125 0)"/>
       <use xlink:href="#ArialMT-15" transform="translate(127.78125 0)"/>
       <use xlink:href="#ArialMT-13" transform="translate(183.390625 0)"/>
       <use xlink:href="#ArialMT-15" transform="translate(239 0)"/>
       <use xlink:href="#ArialMT-14" transform="translate(294.609375 0)"/>
      </g>
     </g>
    </g>
    <g id="xtick_11">
     <g id="line2d_11">
      <path d="M 532.921831 370.346212 
L 532.921831 30.096 
" clip-path="url(#pa31f8adfee)" style="fill: none; stroke: #cccccc; stroke-linecap: round"/>
     </g>
     <g id="text_11">
      <!-- FY2022 -->
      <g style="fill: #262626" transform="translate(520.153684 416.039896) rotate(-45) scale(0.121 -0.121)">
       <use xlink:href="#ArialMT-29"/>
       <use xlink:href="#ArialMT-3c" transform="translate(61.078125 0)"/>
       <use xlink:href="#ArialMT-15" transform="translate(127.78125 0)"/>
       <use xlink:href="#ArialMT-13" transform="translate(183.390625 0)"/>
       <use xlink:href="#ArialMT-15" transform="translate(239 0)"/>
       <use xlink:href="#ArialMT-15" transform="translate(294.609375 0)"/>
      </g>
     </g>
    </g>
    <g id="xtick_12">
     <g id="line2d_12">
      <path d="M 575.17664 370.346212 
L 575.17664 30.096 
" clip-path="url(#pa31f8adfee)" style="fill: none; stroke: #cccccc; stroke-linecap: round"/>
     </g>
     <g id="text_12">
      <!-- FY2023 -->
      <g style="fill: #262626" transform="translate(562.408493 416.039896) rotate(-45) scale(0.121 -0.121)">
       <use xlink:href="#ArialMT-29"/>
       <use xlink:href="#ArialMT-3c" transform="translate(61.078125 0)"/>
       <use xlink:href="#ArialMT-15" transform="translate(127.78125 0)"/>
       <use xlink:href="#ArialMT-13" transform="translate(183.390625 0)"/>
       <use xlink:href="#ArialMT-15" transform="translate(239 0)"/>
       <use xlink:href="#ArialMT-16" transform="translate(294.609375 0)"/>
      </g>
     </g>
    </g>
    <g id="xtick_13">
     <g id="line2d_13">
      <path d="M 617.431449 370.346212 
L 617.431449 30.096 
" clip-path="url(#pa31f8adfee)" style="fill: none; stroke: #cccccc; stroke-linecap: round"/>
     </g>
     <g id="text_13">
      <!-- FY2024 -->
      <g style="fill: #262626" transform="translate(604.663302 416.039896) rotate(-45) scale(0.121 -0.121)">
       <use xlink:href="#ArialMT-29"/>
       <use xlink:href="#ArialMT-3c" transform="translate(61.078125 0)"/>
       <use xlink:href="#ArialMT-15" transform="translate(127.78125 0)"/>
       <use xlink:href="#ArialMT-13" transform="translate(183.390625 0)"/>
       <use xlink:href="#ArialMT-15" transform="translate(239 0)"/>
       <use xlink:href="#ArialMT-17" transform="translate(294.609375 0)"/>
      </g>
     </g>
    </g>
    <g id="xtick_14">
     <g id="line2d_14">
      <path d="M 659.686258 370.346212 
L 659.686258 30.096 
" clip-path="url(#pa31f8adfee)" style="fill: none; stroke: #cccccc; stroke-linecap: round"/>
     </g>
     <g id="text_14">
      <!-- FY2025 -->
      <g style="fill: #262626" transform="translate(646.918111 416.039896) rotate(-45) scale(0.121 -0.121)">
       <use xlink:href="#ArialMT-29"/>
       <use xlink:href="#ArialMT-3c" transform="translate(61.078125 0)"/>
       <use xlink:href="#ArialMT-15" transform="translate(127.78125 0)"/>
       <use xlink:href="#ArialMT-13" transform="translate(183.390625 0)"/>
       <use xlink:href="#ArialMT-15" transform="translate(239 0)"/>
       <use xlink:href="#ArialMT-18" transform="translate(294.609375 0)"/>
      </g>
     </g>
    </g>
   </g>
   <g id="matplotlib.axis_2">
    <g id="ytick_1">
     <g id="line2d_15">
      <path d="M 64.316 360.93585 
L 705.744 360.93585 
" clip-path="url(#pa31f8adfee)" style="fill: none; stroke: #cccccc; stroke-linecap: round"/>
     </g>
     <g id="text_15">
      <!-- −30000 -->
      <g style="fill: #262626" transform="translate(14.105172 365.340415) scale(0.121 -0.121)">
       <defs>
        <path id="ArialMT-ed" d="M 3381 1997 
L 356 1997 
L 356 2522 
L 3381 2522 
L 3381 1997 
z
" transform="scale(0.015625)"/>
       </defs>
       <use xlink:href="#ArialMT-ed"/>
       <use xlink:href="#ArialMT-16" transform="translate(58.40625 0)"/>
       <use xlink:href="#ArialMT-13" transform="translate(114.015625 0)"/>
       <use xlink:href="#ArialMT-13" transform="translate(169.625 0)"/>
       <use xlink:href="#ArialMT-13" transform="translate(225.234375 0)"/>
       <use xlink:href="#ArialMT-13" transform="translate(280.84375 0)"/>
      </g>
     </g>
    </g>
    <g id="ytick_2">
     <g id="line2d_16">
      <path d="M 64.316 299.670832 
L 705.744 299.670832 
" clip-path="url(#pa31f8adfee)" style="fill: none; stroke: #cccccc; stroke-linecap: round"/>
     </g>
     <g id="text_16">
      <!-- −20000 -->
      <g style="fill: #262626" transform="translate(14.105172 304.075398) scale(0.121 -0.121)">
       <use xlink:href="#ArialMT-ed"/>
       <use xlink:href="#ArialMT-15" transform="translate(58.40625 0)"/>
       <use xlink:href="#ArialMT-13" transform="translate(114.015625 0)"/>
       <use xlink:href="#ArialMT-13" transform="translate(169.625 0)"/>
       <use xlink:href="#ArialMT-13" transform="translate(225.234375 0)"/>
       <use xlink:href="#ArialMT-13" transform="translate(280.84375 0)"/>
      </g>
     </g>
    </g>
    <g id="ytick_3">
     <g id="line2d_17">
      <path d="M 64.316 238.405815 
L 705.744 238.405815 
" clip-path="url(#pa31f8adfee)" style="fill: none; stroke: #cccccc; stroke-linecap: round"/>
     </g>
     <g id="text_17">
      <!-- −10000 -->
      <g style="fill: #262626" transform="translate(14.105172 242.81038) scale(0.121 -0.121)">
       <use xlink:href="#ArialMT-ed"/>
       <use xlink:href="#ArialMT-14" transform="translate(58.40625 0)"/>
       <use xlink:href="#ArialMT-13" transform="translate(114.015625 0)"/>
       <use xlink:href="#ArialMT-13" transform="translate(169.625 0)"/>
       <use xlink:href="#ArialMT-13" transform="translate(225.234375 0)"/>
       <use xlink:href="#ArialMT-13" transform="translate(280.84375 0)"/>
      </g>
     </g>
    </g>
    <g id="ytick_4">
     <g id="line2d_18">
      <path d="M 64.316 177.140797 
L 705.744 177.140797 
" clip-path="url(#pa31f8adfee)" style="fill: none; stroke: #cccccc; stroke-linecap: round"/>
     </g>
     <g id="text_18">
      <!-- 0 -->
      <g style="fill: #262626" transform="translate(48.087266 181.545362) scale(0.121 -0.121)">
       <use xlink:href="#ArialMT-13"/>
      </g>
     </g>
    </g>
    <g id="ytick_5">
     <g id="line2d_19">
      <path d="M 64.316 115.875779 
L 705.744 115.875779 
" clip-path="url(#pa31f8adfee)" style="fill: none; stroke: #cccccc; stroke-linecap: round"/>
     </g>
     <g id="text_19">
      <!-- 10000 -->
      <g style="fill: #262626" transform="translate(21.172328 120.280345) scale(0.121 -0.121)">
       <use xlink:href="#ArialMT-14"/>
       <use xlink:href="#ArialMT-13" transform="translate(55.609375 0)"/>
       <use xlink:href="#ArialMT-13" transform="translate(111.21875 0)"/>
       <use xlink:href="#ArialMT-13" transform="translate(166.828125 0)"/>
       <use xlink:href="#ArialMT-13" transform="translate(222.4375 0)"/>
      </g>
     </g>
    </g>
    <g id="ytick_6">
     <g id="line2d_20">
      <path d="M 64.316 54.610762 
L 705.744 54.610762 
" clip-path="url(#pa31f8adfee)" style="fill: none; stroke: #cccccc; stroke-linecap: round"/>
     </g>
     <g id="text_20">
      <!-- 20000 -->
      <g style="fill: #262626" transform="translate(21.172328 59.015327) scale(0.121 -0.121)">
       <use xlink:href="#ArialMT-15"/>
       <use xlink:href="#ArialMT-13" transform="translate(55.609375 0)"/>
       <use xlink:href="#ArialMT-13" transform="translate(111.21875 0)"/>
       <use xlink:href="#ArialMT-13" transform="translate(166.828125 0)"/>
       <use xlink:href="#ArialMT-13" transform="translate(222.4375 0)"/>
      </g>
     </g>
    </g>
   </g>
   <g id="patch_3">
    <path d="M 93.471818 177.140797 
L 127.275665 177.140797 
L 127.275665 177.140797 
L 93.471818 177.140797 
z
" clip-path="url(#pa31f8adfee)" style="fill: #008000; stroke: #ffffff; stroke-linejoin: miter"/>
   </g>
   <g id="patch_4">
    <path d="M 135.726627 177.140797 
L 169.530474 177.140797 
L 169.530474 177.140797 
L 135.726627 177.140797 
z
" clip-path="url(#pa31f8adfee)" style="fill: #008000; stroke: #ffffff; stroke-linejoin: miter"/>
   </g>
   <g id="patch_5">
    <path d="M 177.981436 177.140797 
L 211.785283 177.140797 
L 211.785283 98.592305 
L 177.981436 98.592305 
z
" clip-path="url(#pa31f8adfee)" style="fill: #008000; stroke: #ffffff; stroke-linejoin: miter"/>
   </g>
   <g id="patch_6">
    <path d="M 220.236245 177.140797 
L 254.040092 177.140797 
L 254.040092 255.689289 
L 220.236245 255.689289 
z
" clip-path="url(#pa31f8adfee)" style="fill: #ff0000; stroke: #ffffff; stroke-linejoin: miter"/>
   </g>
   <g id="patch_7">
    <path d="M 262.491054 177.140797 
L 296.294901 177.140797 
L 296.294901 95.55644 
L 262.491054 95.55644 
z
" clip-path="url(#pa31f8adfee)" style="fill: #008000; stroke: #ffffff; stroke-linejoin: miter"/>
   </g>
   <g id="patch_8">
    <path d="M 304.745863 177.140797 
L 338.54971 177.140797 
L 338.54971 258.725154 
L 304.745863 258.725154 
z
" clip-path="url(#pa31f8adfee)" style="fill: #ff0000; stroke: #ffffff; stroke-linejoin: miter"/>
   </g>
   <g id="patch_9">
    <path d="M 347.000672 177.140797 
L 380.804519 177.140797 
L 380.804519 177.140797 
L 347.000672 177.140797 
z
" clip-path="url(#pa31f8adfee)" style="fill: #008000; stroke: #ffffff; stroke-linejoin: miter"/>
   </g>
   <g id="patch_10">
    <path d="M 389.255481 177.140797 
L 423.059328 177.140797 
L 423.059328 177.140797 
L 389.255481 177.140797 
z
" clip-path="url(#pa31f8adfee)" style="fill: #008000; stroke: #ffffff; stroke-linejoin: miter"/>
   </g>
   <g id="patch_11">
    <path d="M 431.51029 177.140797 
L 465.314137 177.140797 
L 465.314137 70.90113 
L 431.51029 70.90113 
z
" clip-path="url(#pa31f8adfee)" style="fill: #008000; stroke: #ffffff; stroke-linejoin: miter"/>
   </g>
   <g id="patch_12">
    <path d="M 473.765099 177.140797 
L 507.568946 177.140797 
L 507.568946 283.380464 
L 473.765099 283.380464 
z
" clip-path="url(#pa31f8adfee)" style="fill: #ff0000; stroke: #ffffff; stroke-linejoin: miter"/>
   </g>
   <g id="patch_13">
    <path d="M 516.019908 177.140797 
L 549.823755 177.140797 
L 549.823755 45.561919 
L 516.019908 45.561919 
z
" clip-path="url(#pa31f8adfee)" style="fill: #008000; stroke: #ffffff; stroke-linejoin: miter"/>
   </g>
   <g id="patch_14">
    <path d="M 558.274717 177.140797 
L 592.078564 177.140797 
L 592.078564 177.140797 
L 558.274717 177.140797 
z
" clip-path="url(#pa31f8adfee)" style="fill: #008000; stroke: #ffffff; stroke-linejoin: miter"/>
   </g>
   <g id="patch_15">
    <path d="M 600.529526 177.140797 
L 634.333373 177.140797 
L 634.333373 130.980179 
L 600.529526 130.980179 
z
" clip-path="url(#pa31f8adfee)" style="fill: #008000; stroke: #ffffff; stroke-linejoin: miter"/>
   </g>
   <g id="patch_16">
    <path d="M 642.784335 177.140797 
L 676.588182 177.140797 
L 676.588182 354.880293 
L 642.784335 354.880293 
z
" clip-path="url(#pa31f8adfee)" style="fill: #ff0000; stroke: #ffffff; stroke-linejoin: miter"/>
   </g>
   <g id="patch_17">
    <path d="M 64.316 370.346212 
L 64.316 30.096 
" style="fill: none; stroke: #cccccc; stroke-width: 1.25; stroke-linejoin: miter; stroke-linecap: square"/>
   </g>
   <g id="patch_18">
    <path d="M 705.744 370.346212 
L 705.744 30.096 
" style="fill: none; stroke: #cccccc; stroke-width: 1.25; stroke-linejoin: miter; stroke-linecap: square"/>
   </g>
   <g id="patch_19">
    <path d="M 64.316 370.346212 
L 705.744 370.346212 
" style="fill: none; stroke: #cccccc; stroke-width: 1.25; stroke-linejoin: miter; stroke-linecap: square"/>
   </g>
   <g id="patch_20">
    <path d="M 64.316 30.096 
L 705.744 30.096 
" style="fill: none; stroke: #cccccc; stroke-width: 1.25; stroke-linejoin: miter; stroke-linecap: square"/>
   </g>
   <g id="text_21">
    <!-- Chart 10: Annual Change in Weighted Grid Index -->
    <g style="fill: #262626" transform="translate(242.069875 24.096) scale(0.132 -0.132)">
     <defs>
      <path id="ArialMT-26" d="M 3763 1606 
L 4369 1453 
Q 4178 706 3683 314 
Q 3188 -78 2472 -78 
Q 1731 -78 1267 223 
Q 803 525 561 1097 
Q 319 1669 319 2325 
Q 319 3041 592 3573 
Q 866 4106 1370 4382 
Q 1875 4659 2481 4659 
Q 3169 4659 3637 4309 
Q 4106 3959 4291 3325 
L 3694 3184 
Q 3534 3684 3231 3912 
Q 2928 4141 2469 4141 
Q 1941 4141 1586 3887 
Q 1231 3634 1087 3207 
Q 944 2781 944 2328 
Q 944 1744 1114 1308 
Q 1284 872 1643 656 
Q 2003 441 2422 441 
Q 2931 441 3284 734 
Q 3638 1028 3763 1606 
z
" transform="scale(0.015625)"/>
      <path id="ArialMT-4b" d="M 422 0 
L 422 4581 
L 984 4581 
L 984 2938 
Q 1378 3394 1978 3394 
Q 2347 3394 2619 3248 
Q 2891 3103 3008 2847 
Q 3125 2591 3125 2103 
L 3125 0 
L 2563 0 
L 2563 2103 
Q 2563 2525 2380 2717 
Q 2197 2909 1863 2909 
Q 1613 2909 1392 2779 
Q 1172 2650 1078 2428 
Q 984 2206 984 1816 
L 984 0 
L 422 0 
z
" transform="scale(0.015625)"/>
      <path id="ArialMT-44" d="M 2588 409 
Q 2275 144 1986 34 
Q 1697 -75 1366 -75 
Q 819 -75 525 192 
Q 231 459 231 875 
Q 231 1119 342 1320 
Q 453 1522 633 1644 
Q 813 1766 1038 1828 
Q 1203 1872 1538 1913 
Q 2219 1994 2541 2106 
Q 2544 2222 2544 2253 
Q 2544 2597 2384 2738 
Q 2169 2928 1744 2928 
Q 1347 2928 1158 2789 
Q 969 2650 878 2297 
L 328 2372 
Q 403 2725 575 2942 
Q 747 3159 1072 3276 
Q 1397 3394 1825 3394 
Q 2250 3394 2515 3294 
Q 2781 3194 2906 3042 
Q 3031 2891 3081 2659 
Q 3109 2516 3109 2141 
L 3109 1391 
Q 3109 606 3145 398 
Q 3181 191 3288 0 
L 2700 0 
Q 2613 175 2588 409 
z
M 2541 1666 
Q 2234 1541 1622 1453 
Q 1275 1403 1131 1340 
Q 988 1278 909 1158 
Q 831 1038 831 891 
Q 831 666 1001 516 
Q 1172 366 1500 366 
Q 1825 366 2078 508 
Q 2331 650 2450 897 
Q 2541 1088 2541 1459 
L 2541 1666 
z
" transform="scale(0.015625)"/>
      <path id="ArialMT-55" d="M 416 0 
L 416 3319 
L 922 3319 
L 922 2816 
Q 1116 3169 1280 3281 
Q 1444 3394 1641 3394 
Q 1925 3394 2219 3213 
L 2025 2691 
Q 1819 2813 1613 2813 
Q 1428 2813 1281 2702 
Q 1134 2591 1072 2394 
Q 978 2094 978 1738 
L 978 0 
L 416 0 
z
" transform="scale(0.015625)"/>
      <path id="ArialMT-57" d="M 1650 503 
L 1731 6 
Q 1494 -44 1306 -44 
Q 1000 -44 831 53 
Q 663 150 594 308 
Q 525 466 525 972 
L 525 2881 
L 113 2881 
L 113 3319 
L 525 3319 
L 525 4141 
L 1084 4478 
L 1084 3319 
L 1650 3319 
L 1650 2881 
L 1084 2881 
L 1084 941 
Q 1084 700 1114 631 
Q 1144 563 1211 522 
Q 1278 481 1403 481 
Q 1497 481 1650 503 
z
" transform="scale(0.015625)"/>
      <path id="ArialMT-3" transform="scale(0.015625)"/>
      <path id="ArialMT-1d" d="M 578 2678 
L 578 3319 
L 1219 3319 
L 1219 2678 
L 578 2678 
z
M 578 0 
L 578 641 
L 1219 641 
L 1219 0 
L 578 0 
z
" transform="scale(0.015625)"/>
      <path id="ArialMT-24" d="M -9 0 
L 1750 4581 
L 2403 4581 
L 4278 0 
L 3588 0 
L 3053 1388 
L 1138 1388 
L 634 0 
L -9 0 
z
M 1313 1881 
L 2866 1881 
L 2388 3150 
Q 2169 3728 2063 4100 
Q 1975 3659 1816 3225 
L 1313 1881 
z
" transform="scale(0.015625)"/>
      <path id="ArialMT-51" d="M 422 0 
L 422 3319 
L 928 3319 
L 928 2847 
Q 1294 3394 1984 3394 
Q 2284 3394 2536 3286 
Q 2788 3178 2913 3003 
Q 3038 2828 3088 2588 
Q 3119 2431 3119 2041 
L 3119 0 
L 2556 0 
L 2556 2019 
Q 2556 2363 2490 2533 
Q 2425 2703 2258 2804 
Q 2091 2906 1866 2906 
Q 1506 2906 1245 2678 
Q 984 2450 984 1813 
L 984 0 
L 422 0 
z
" transform="scale(0.015625)"/>
      <path id="ArialMT-58" d="M 2597 0 
L 2597 488 
Q 2209 -75 1544 -75 
Q 1250 -75 995 37 
Q 741 150 617 320 
Q 494 491 444 738 
Q 409 903 409 1263 
L 409 3319 
L 972 3319 
L 972 1478 
Q 972 1038 1006 884 
Q 1059 663 1231 536 
Q 1403 409 1656 409 
Q 1909 409 2131 539 
Q 2353 669 2445 892 
Q 2538 1116 2538 1541 
L 2538 3319 
L 3100 3319 
L 3100 0 
L 2597 0 
z
" transform="scale(0.015625)"/>
      <path id="ArialMT-4f" d="M 409 0 
L 409 4581 
L 972 4581 
L 972 0 
L 409 0 
z
" transform="scale(0.015625)"/>
      <path id="ArialMT-4a" d="M 319 -275 
L 866 -356 
Q 900 -609 1056 -725 
Q 1266 -881 1628 -881 
Q 2019 -881 2231 -725 
Q 2444 -569 2519 -288 
Q 2563 -116 2559 434 
Q 2191 0 1641 0 
Q 956 0 581 494 
Q 206 988 206 1678 
Q 206 2153 378 2554 
Q 550 2956 876 3175 
Q 1203 3394 1644 3394 
Q 2231 3394 2613 2919 
L 2613 3319 
L 3131 3319 
L 3131 450 
Q 3131 -325 2973 -648 
Q 2816 -972 2473 -1159 
Q 2131 -1347 1631 -1347 
Q 1038 -1347 672 -1080 
Q 306 -813 319 -275 
z
M 784 1719 
Q 784 1066 1043 766 
Q 1303 466 1694 466 
Q 2081 466 2343 764 
Q 2606 1063 2606 1700 
Q 2606 2309 2336 2618 
Q 2066 2928 1684 2928 
Q 1309 2928 1046 2623 
Q 784 2319 784 1719 
z
" transform="scale(0.015625)"/>
      <path id="ArialMT-48" d="M 2694 1069 
L 3275 997 
Q 3138 488 2766 206 
Q 2394 -75 1816 -75 
Q 1088 -75 661 373 
Q 234 822 234 1631 
Q 234 2469 665 2931 
Q 1097 3394 1784 3394 
Q 2450 3394 2872 2941 
Q 3294 2488 3294 1666 
Q 3294 1616 3291 1516 
L 816 1516 
Q 847 969 1125 678 
Q 1403 388 1819 388 
Q 2128 388 2347 550 
Q 2566 713 2694 1069 
z
M 847 1978 
L 2700 1978 
Q 2663 2397 2488 2606 
Q 2219 2931 1791 2931 
Q 1403 2931 1139 2672 
Q 875 2413 847 1978 
z
" transform="scale(0.015625)"/>
      <path id="ArialMT-4c" d="M 425 3934 
L 425 4581 
L 988 4581 
L 988 3934 
L 425 3934 
z
M 425 0 
L 425 3319 
L 988 3319 
L 988 0 
L 425 0 
z
" transform="scale(0.015625)"/>
      <path id="ArialMT-3a" d="M 1294 0 
L 78 4581 
L 700 4581 
L 1397 1578 
Q 1509 1106 1591 641 
Q 1766 1375 1797 1488 
L 2669 4581 
L 3400 4581 
L 4056 2263 
Q 4303 1400 4413 641 
Q 4500 1075 4641 1638 
L 5359 4581 
L 5969 4581 
L 4713 0 
L 4128 0 
L 3163 3491 
Q 3041 3928 3019 4028 
Q 2947 3713 2884 3491 
L 1913 0 
L 1294 0 
z
" transform="scale(0.015625)"/>
      <path id="ArialMT-47" d="M 2575 0 
L 2575 419 
Q 2259 -75 1647 -75 
Q 1250 -75 917 144 
Q 584 363 401 755 
Q 219 1147 219 1656 
Q 219 2153 384 2558 
Q 550 2963 881 3178 
Q 1213 3394 1622 3394 
Q 1922 3394 2156 3267 
Q 2391 3141 2538 2938 
L 2538 4581 
L 3097 4581 
L 3097 0 
L 2575 0 
z
M 797 1656 
Q 797 1019 1065 703 
Q 1334 388 1700 388 
Q 2069 388 2326 689 
Q 2584 991 2584 1609 
Q 2584 2291 2321 2609 
Q 2059 2928 1675 2928 
Q 1300 2928 1048 2622 
Q 797 2316 797 1656 
z
" transform="scale(0.015625)"/>
      <path id="ArialMT-2a" d="M 2638 1797 
L 2638 2334 
L 4578 2338 
L 4578 638 
Q 4131 281 3656 101 
Q 3181 -78 2681 -78 
Q 2006 -78 1454 211 
Q 903 500 622 1047 
Q 341 1594 341 2269 
Q 341 2938 620 3517 
Q 900 4097 1425 4378 
Q 1950 4659 2634 4659 
Q 3131 4659 3532 4498 
Q 3934 4338 4162 4050 
Q 4391 3763 4509 3300 
L 3963 3150 
Q 3859 3500 3706 3700 
Q 3553 3900 3268 4020 
Q 2984 4141 2638 4141 
Q 2222 4141 1919 4014 
Q 1616 3888 1430 3681 
Q 1244 3475 1141 3228 
Q 966 2803 966 2306 
Q 966 1694 1177 1281 
Q 1388 869 1791 669 
Q 2194 469 2647 469 
Q 3041 469 3416 620 
Q 3791 772 3984 944 
L 3984 1797 
L 2638 1797 
z
" transform="scale(0.015625)"/>
      <path id="ArialMT-2c" d="M 597 0 
L 597 4581 
L 1203 4581 
L 1203 0 
L 597 0 
z
" transform="scale(0.015625)"/>
      <path id="ArialMT-5b" d="M 47 0 
L 1259 1725 
L 138 3319 
L 841 3319 
L 1350 2541 
Q 1494 2319 1581 2169 
Q 1719 2375 1834 2534 
L 2394 3319 
L 3066 3319 
L 1919 1756 
L 3153 0 
L 2463 0 
L 1781 1031 
L 1600 1309 
L 728 0 
L 47 0 
z
" transform="scale(0.015625)"/>
     </defs>
     <use xlink:href="#ArialMT-26"/>
     <use xlink:href="#ArialMT-4b" transform="translate(72.21875 0)"/>
     <use xlink:href="#ArialMT-44" transform="translate(127.828125 0)"/>
     <use xlink:href="#ArialMT-55" transform="translate(183.4375 0)"/>
     <use xlink:href="#ArialMT-57" transform="translate(216.734375 0)"/>
     <use xlink:href="#ArialMT-3" transform="translate(244.515625 0)"/>
     <use xlink:href="#ArialMT-14" transform="translate(272.296875 0)"/>
     <use xlink:href="#ArialMT-13" transform="translate(327.90625 0)"/>
     <use xlink:href="#ArialMT-1d" transform="translate(383.515625 0)"/>
     <use xlink:href="#ArialMT-3" transform="translate(411.296875 0)"/>
     <use xlink:href="#ArialMT-24" transform="translate(433.5625 0)"/>
     <use xlink:href="#ArialMT-51" transform="translate(500.265625 0)"/>
     <use xlink:href="#ArialMT-51" transform="translate(555.875 0)"/>
     <use xlink:href="#ArialMT-58" transform="translate(611.484375 0)"/>
     <use xlink:href="#ArialMT-44" transform="translate(667.09375 0)"/>
     <use xlink:href="#ArialMT-4f" transform="translate(722.703125 0)"/>
     <use xlink:href="#ArialMT-3" transform="translate(744.921875 0)"/>
     <use xlink:href="#ArialMT-26" transform="translate(772.703125 0)"/>
     <use xlink:href="#ArialMT-4b" transform="translate(844.921875 0)"/>
     <use xlink:href="#ArialMT-44" transform="translate(900.53125 0)"/>
     <use xlink:href="#ArialMT-51" transform="translate(956.140625 0)"/>
     <use xlink:href="#ArialMT-4a" transform="translate(1011.75 0)"/>
     <use xlink:href="#ArialMT-48" transform="translate(1067.359375 0)"/>
     <use xlink:href="#ArialMT-3" transform="translate(1122.96875 0)"/>
     <use xlink:href="#ArialMT-4c" transform="translate(1150.75 0)"/>
     <use xlink:href="#ArialMT-51" transform="translate(1172.96875 0)"/>
     <use xlink:href="#ArialMT-3" transform="translate(1228.578125 0)"/>
     <use xlink:href="#ArialMT-3a" transform="translate(1256.359375 0)"/>
     <use xlink:href="#ArialMT-48" transform="translate(1348.9375 0)"/>
     <use xlink:href="#ArialMT-4c" transform="translate(1404.546875 0)"/>
     <use xlink:href="#ArialMT-4a" transform="translate(1426.765625 0)"/>
     <use xlink:href="#ArialMT-4b" transform="translate(1482.375 0)"/>
     <use xlink:href="#ArialMT-57" transform="translate(1537.984375 0)"/>
     <use xlink:href="#ArialMT-48" transform="translate(1565.765625 0)"/>
     <use xlink:href="#ArialMT-47" transform="translate(1621.375 0)"/>
     <use xlink:href="#ArialMT-3" transform="translate(1676.984375 0)"/>
     <use xlink:href="#ArialMT-2a" transform="translate(1704.765625 0)"/>
     <use xlink:href="#ArialMT-55" transform="translate(1782.546875 0)"/>
     <use xlink:href="#ArialMT-4c" transform="translate(1815.84375 0)"/>
     <use xlink:href="#ArialMT-47" transform="translate(1838.0625 0)"/>
     <use xlink:href="#ArialMT-3" transform="translate(1893.671875 0)"/>
     <use xlink:href="#ArialMT-2c" transform="translate(1921.453125 0)"/>
     <use xlink:href="#ArialMT-51" transform="translate(1949.234375 0)"/>
     <use xlink:href="#ArialMT-47" transform="translate(2004.84375 0)"/>
     <use xlink:href="#ArialMT-48" transform="translate(2060.453125 0)"/>
     <use xlink:href="#ArialMT-5b" transform="translate(2116.0625 0)"/>
    </g>
   </g>
  </g>
 </g>
 <defs>
  <clipPath id="pa31f8adfee">
   <rect x="64.316" y="30.096" width="641.428" height="340.250212"/>
  </clipPath>
 </defs>
</svg>
